<svg width="45" height="44" viewBox="0 0 45 44" fill="none" xmlns="http://www.w3.org/2000/svg">
<path fill-rule="evenodd" clip-rule="evenodd" d="M6.49548 6.35154C3.81592 9.0364 3.81592 13.3576 3.81592 22C3.81592 30.6424 3.81592 34.9636 6.49548 37.6485C9.17505 40.3334 13.4877 40.3334 22.1131 40.3334C30.7385 40.3334 35.0512 40.3334 37.7308 37.6485C40.4104 34.9636 40.4104 30.6424 40.4104 22C40.4104 13.3576 40.4104 9.0364 37.7308 6.35154C35.0512 3.66669 30.7385 3.66669 22.1131 3.66669C13.4877 3.66669 9.17505 3.66669 6.49548 6.35154ZM31.2618 22.4584C32.0196 22.4584 32.634 23.074 32.634 23.8334V33C32.634 33.7594 32.0196 34.375 31.2618 34.375C30.5039 34.375 29.8895 33.7594 29.8895 33V23.8334C29.8895 23.074 30.5039 22.4584 31.2618 22.4584ZM23.4854 11C23.4854 10.2406 22.871 9.62502 22.1131 9.62502C21.3552 9.62502 20.7408 10.2406 20.7408 11V33C20.7408 33.7594 21.3552 34.375 22.1131 34.375C22.871 34.375 23.4854 33.7594 23.4854 33V11ZM12.9645 15.125C13.7224 15.125 14.3368 15.7406 14.3368 16.5V33C14.3368 33.7594 13.7224 34.375 12.9645 34.375C12.2066 34.375 11.5922 33.7594 11.5922 33V16.5C11.5922 15.7406 12.2066 15.125 12.9645 15.125Z" fill="#004136"/>
</svg>
