<svg width="45" height="44" viewBox="0 0 45 44" fill="none" xmlns="http://www.w3.org/2000/svg">
<path d="M18.1414 8.78697C17.6055 8.25 16.7429 8.25 15.0179 8.25H14.5604V5.5C14.5604 4.74061 13.946 4.125 13.1881 4.125C12.4302 4.125 11.8158 4.74061 11.8158 5.5V8.25H11.3584C9.63334 8.25 8.7708 8.25 8.23489 8.78697C7.69897 9.32394 7.69897 10.1882 7.69897 11.9167V12.2903C8.06946 12.1927 8.44117 12.1247 8.80702 12.0754C9.98833 11.9163 11.4405 11.9165 13.0244 11.9167H13.3519C14.9358 11.9165 16.3879 11.9163 17.5693 12.0754C17.9351 12.1247 18.3068 12.1928 18.6773 12.2903L18.6773 11.9167C18.6773 10.1882 18.6773 9.32394 18.1414 8.78697Z" fill="#004136"/>
<path fill-rule="evenodd" clip-rule="evenodd" d="M4.03953 38.9583C3.28163 38.9583 2.66724 39.5739 2.66724 40.3333C2.66724 41.0927 3.28163 41.7083 4.03953 41.7083H40.634C41.3919 41.7083 42.0063 41.0927 42.0063 40.3333C42.0063 39.5739 41.3919 38.9583 40.634 38.9583H38.8042V14.2486C38.8042 11.7904 38.8043 10.5612 38.1526 9.61905C37.5009 8.67686 36.3524 8.24529 34.0552 7.38216C29.5628 5.69417 27.3166 4.85018 25.7415 5.94384C24.1665 7.0375 24.1665 9.44119 24.1665 14.2486V19.25L24.3302 19.25C25.9141 19.2498 27.3663 19.2496 28.5476 19.4088C29.8484 19.584 31.2234 19.9963 32.3542 21.1294C33.4851 22.2625 33.8966 23.6401 34.0715 24.9436C34.2303 26.1272 34.2301 27.5823 34.23 29.1693L34.2299 29.3333V38.9583H31.4854V29.3333C31.4854 25.8764 31.4854 24.1479 30.4135 23.0739C29.3417 22 27.6166 22 24.1665 22H20.507C17.0569 22 15.3318 22 14.26 23.0739C13.1881 24.1479 13.1881 25.8764 13.1881 29.3333V38.9583H10.4436V29.3333L10.4435 29.1693C10.4434 27.5823 10.4432 26.1272 10.602 24.9436C10.7769 23.6401 11.1884 22.2625 12.3193 21.1294C13.4501 19.9963 14.8251 19.584 16.1259 19.4088C17.3072 19.2496 18.7594 19.2498 20.3433 19.25L20.475 19.25C20.4039 17.5337 20.1746 16.4814 19.4352 15.7406C18.3634 14.6667 16.6383 14.6667 13.1881 14.6667C9.73798 14.6667 8.0129 14.6667 6.94108 15.7406C5.86925 16.8145 5.86925 18.543 5.86925 22V38.9583H4.03953ZM17.305 27.5C17.305 26.7406 17.9194 26.125 18.6773 26.125H25.9962C26.7541 26.125 27.3685 26.7406 27.3685 27.5C27.3685 28.2594 26.7541 28.875 25.9962 28.875H18.6773C17.9194 28.875 17.305 28.2594 17.305 27.5ZM17.305 33C17.305 32.2406 17.9194 31.625 18.6773 31.625H25.9962C26.7541 31.625 27.3685 32.2406 27.3685 33C27.3685 33.7594 26.7541 34.375 25.9962 34.375H18.6773C17.9194 34.375 17.305 33.7594 17.305 33Z" fill="#004136"/>
</svg>
