<svg width="150" height="44" viewBox="0 0 150 44" fill="none" xmlns="http://www.w3.org/2000/svg">
<path d="M2.31568 8.26196L2.97145 7.56388L3.66952 8.26196H3.79644L4.60028 7.41581L3.75413 6.59082H3.64837L2.97145 7.28889L2.27338 6.59082H2.16761L1.36377 7.41581L2.18876 8.26196H2.31568Z" fill="#1D1E1C"/>
<path d="M1.78689 14.4178C2.20996 14.4178 2.65419 14.2909 3.0138 14.0793C3.09842 13.8043 3.14072 13.5293 3.20418 13.2755H3.22534V13.2966C3.43687 14.7351 3.94456 15.3062 5.10801 15.3062H5.95416H6.18685H6.8003H7.033H7.64645H7.87914H8.4926H8.72529H9.33874H9.57143H10.1849H10.4176H11.031H11.2637H11.8772H12.1099H12.7233H12.956H13.5695H13.8022H14.4156H14.6483H15.2618H15.4945H16.1079H16.3406H16.9541H17.1868H17.8002H18.0329H18.6464H18.879H19.4925H19.7252H20.3386H20.5713H21.1848H21.4175H22.0309H22.2636H22.8771H23.1098H23.7232H23.9559H24.5694H24.8021H25.4155H25.6482H26.2617H26.4944H27.3405C28.7578 15.2851 30.2809 15.0735 31.6982 14.6505L32.7347 14.3543L33.052 13.0428L32.9885 13.0005L31.9732 13.2543C30.3232 13.6774 28.652 13.1274 28.652 12.1332C28.652 11.3293 29.477 10.9697 30.2809 10.9697C30.9578 10.9697 31.5924 11.139 32.2693 11.6043L32.5232 11.3082C32.0155 10.2294 31.3809 9.63705 30.5347 9.63705C29.3078 9.63705 28.1867 10.9697 28.1867 12.387C28.1867 13.0005 28.4405 13.5293 28.9059 13.9312C28.4828 13.9735 27.9751 13.9736 27.4251 13.9736H26.7905H26.579H25.9444H25.7328H25.0982H24.8867H24.2521H24.0405H23.4059H23.1944H22.5598H22.3482H21.7136H21.5021H20.8675H20.6559H20.0213H19.8098H19.1752H18.9637H18.329H18.1175H17.4829H17.2714H16.6368H16.4252H15.7906H15.5791H14.9445H14.7329H14.0983H13.8868H13.2522H13.0406H12.406H12.1945H11.5599H11.3483H10.7137H10.5022H9.86758H9.65605H9.02144H8.8099H8.17529H7.96376H7.32915H7.11761H6.483H6.27146H5.42532C4.40994 13.9736 4.1561 13.5928 4.00802 12.4293L3.6061 9.00244H3.24649L2.82342 10.0813L1.76573 10.8217C0.559975 11.6466 0.0945961 12.1966 0.0945961 13.0005C0.0522888 13.8678 0.750359 14.4178 1.78689 14.4178ZM1.44843 11.7524L2.90803 11.0332L3.16188 12.8101C2.78111 13.0005 2.33688 13.0639 1.78689 13.0639C1.06766 13.0639 0.581131 12.8736 0.581131 12.5774C0.581131 12.3024 0.856126 12.0274 1.44843 11.7524Z" fill="#1D1E1C"/>
<path d="M37.1772 15.3062H38.0233H38.256H38.8695H39.1022H39.7156H39.9483H40.5618H40.7945H41.4079H41.6406H42.2541H42.4867H43.1002H43.3329H43.9463H44.179H44.7925H45.0252H45.6386H45.8713H46.7175C47.2675 15.2639 47.7117 15.1158 48.0502 14.8408C48.1348 14.587 48.1982 14.3543 48.2617 14.1216H48.2828C48.4521 14.8408 49.1501 15.3062 50.1867 15.3062H51.0328H51.2655H51.879H52.1117H52.9578C53.529 15.2639 53.9732 15.0735 54.4174 14.6293C55.2424 15.1582 56.3001 15.5178 57.5481 15.5178C58.9443 15.5178 60.2135 15.3062 61.1866 14.8832C61.7577 15.1582 62.3923 15.3062 63.1327 15.3062C64.0846 15.3062 64.9308 14.9678 65.3538 14.6928C65.5865 14.1428 65.7135 13.487 65.7135 12.8736V7.9236L66.3481 7.43707V7.39476L65.7135 6.61207V5.66016H65.3538C64.5289 6.21015 64.3385 6.86592 64.7615 7.54284L64.9519 13.6985C64.5289 13.8678 63.9577 13.9735 63.4077 13.9735C63.0269 13.9735 62.5827 13.9312 62.2231 13.8889C62.4135 13.3812 62.4981 12.937 62.4981 12.5139C62.4981 11.3293 61.6096 10.3986 60.4462 10.3986C59.0924 10.3986 57.7597 11.4563 56.0462 13.9735C55.7078 13.8889 55.4116 13.762 55.1366 13.6351L55.7501 12.7255L55.4116 12.4716L54.9886 13.0639C54.4809 13.7409 53.9732 13.9735 52.979 13.9735H52.3443H52.1328H51.4982H51.2867H50.4405C49.3194 13.9735 48.9598 13.7409 48.9598 12.9582V11.7947H48.5367L48.2194 13.6774C47.8598 13.8889 47.3732 13.9947 46.7386 13.9947H46.104H45.8925H45.2579H45.0463H44.4117H44.2002H43.5656H43.354H42.7194H42.5079H41.8733H41.6617H41.0271H40.8156H40.181H39.9695H39.3348H39.1233H38.4887H38.2772H37.431C36.3099 13.9947 35.9291 13.6985 35.9291 12.8524V5.66016H35.506L34.8926 6.90823L35.0618 12.8736C35.1253 14.6716 35.6753 15.3062 37.1772 15.3062ZM60.002 11.7313C60.9327 11.7313 61.8635 12.4928 62.0962 13.3601C60.8904 13.8889 59.2827 14.1851 57.6962 14.1851C57.3578 14.1851 57.0193 14.1428 56.6808 14.0793C57.9501 12.4505 58.902 11.7313 60.002 11.7313Z" fill="#1D1E1C"/>
<path d="M48.9172 10.8005L49.7211 9.95439L48.8749 9.12939H48.7903L47.9653 9.95439L48.8115 10.8005H48.9172Z" fill="#1D1E1C"/>
<path d="M68.6961 15.3062L69.0981 13.8255V5.66016H68.6961L68.0615 6.90823L68.2942 15.3062H68.6961Z" fill="#1D1E1C"/>
<path d="M74.4495 9.3833L75.1052 8.68523L75.8033 9.3833H75.9302L76.7341 8.5583L75.8879 7.71216H75.7822L75.1052 8.41023L74.4072 7.71216H74.3014L73.4976 8.5583L74.3437 9.3833H74.4495Z" fill="#1D1E1C"/>
<path d="M75.042 15.5178C76.3324 15.5178 77.0939 14.5659 77.0939 13.1274C77.0939 11.8582 76.4805 11.0755 74.1959 10.0813L74.1536 10.1236V11.4351C73.4978 12.2178 73.1382 13.064 73.1382 13.762C73.1382 14.862 73.8786 15.5178 75.042 15.5178ZM74.6824 11.7947C76.0997 12.4082 76.6074 12.937 76.6074 13.3813C76.6074 13.889 76.0574 14.1851 75.1266 14.1851C74.1747 14.1851 73.6459 13.8678 73.6459 13.3601C73.6247 12.937 74.0055 12.3659 74.6824 11.7947Z" fill="#1D1E1C"/>
<path d="M77.0728 17.21V17.633L79.5266 18.4157C80.7746 16.7023 81.3458 15.158 81.3458 13.6984C81.3458 12.81 80.9862 11.7946 80.415 10.885H80.0554L79.6112 12.0062C80.542 13.1484 80.8593 13.7196 80.8593 14.4177C80.8593 15.6023 79.4843 16.6177 77.0728 17.21Z" fill="#1D1E1C"/>
<path d="M83.6302 15.3062L84.0321 13.8255V5.66016H83.6091L82.9956 6.90823L83.2071 15.3062H83.6302Z" fill="#1D1E1C"/>
<path d="M88.1996 13.6984C88.1996 12.81 87.84 11.7946 87.2689 10.885H86.9093L86.465 12.0062C87.3958 13.1484 87.7131 13.7196 87.7131 14.4177C87.7131 15.6023 86.3593 16.6177 83.9478 17.21V17.633L86.4016 18.4157C87.6285 16.7023 88.1996 15.158 88.1996 13.6984Z" fill="#1D1E1C"/>
<path d="M86.9936 9.89086L87.7974 9.04472L86.9513 8.21973H86.8455L86.0205 9.04472L86.8667 9.89086H86.9936Z" fill="#1D1E1C"/>
<path d="M93.4246 13.5716C93.4246 11.837 92.5573 10.4197 91.4785 10.4197C90.5265 10.4197 89.5535 11.7947 89.5535 13.1062C89.5535 14.1639 90.1669 14.8196 91.2669 14.8196C91.7111 14.8196 92.0708 14.7562 92.4727 14.5446L92.8534 13.5716C92.8957 13.7831 92.9381 13.9946 92.9381 14.2273C92.9381 15.7081 91.3515 16.7446 88.6016 17.21V17.6331L91.0342 18.4158C92.5361 16.9773 93.4246 15.1581 93.4246 13.5716ZM91.3938 13.487C90.5477 13.487 90.0612 13.2966 90.0612 12.8312C90.0612 12.2389 90.5689 11.7101 91.14 11.7101C91.7958 11.7101 92.4727 12.4293 92.7688 13.2966C92.4092 13.4023 91.9862 13.487 91.3938 13.487Z" fill="#1D1E1C"/>
<path d="M3.64837 21.335L2.97145 22.0119L2.27338 21.335H2.16761L1.36377 22.16L2.18876 23.0061H2.31568L2.97145 22.308L3.66952 23.0061H3.79644L4.60028 22.16L3.75413 21.335H3.64837Z" fill="#1D1E1C"/>
<path d="M19.0482 31.2139H18.9425L18.2655 31.9119L17.5675 31.2139H17.4617L16.6367 32.0389L17.4829 32.885H17.6098L18.2655 32.1869L18.9636 32.885H19.0905L19.8944 32.0389L19.0482 31.2139Z" fill="#1D1E1C"/>
<path d="M25.2886 30.0502H25.9021H26.1348H26.7482H26.9809H27.827C28.7155 30.0079 29.7097 29.7752 30.1963 29.4579C30.4078 28.9291 30.5347 28.2521 30.5347 27.6175C30.5347 26.9829 30.2809 26.1368 29.9213 25.6079H29.5616L29.1174 26.7291C29.6251 27.3214 29.9424 27.8714 30.0693 28.3156C29.5828 28.5483 28.7155 28.6964 27.8905 28.6964H27.2559H27.0444H26.4098H26.1982H25.5636H25.3521H24.7175H24.5059H23.8713H23.6598H23.0252H22.8136H22.179H21.9675H21.3329H21.1213H20.2752C19.154 28.6964 18.7944 28.4637 18.7944 27.681V26.5387H18.3714L18.0541 28.4214C17.6944 28.6329 17.2079 28.7387 16.5733 28.7387H15.9387H15.7272H15.0925H14.881H14.2464H14.0349H13.4002H13.1887H12.5541H12.3426H11.708H11.4964H10.8618H10.6503H10.0157H9.80413H9.16952H8.95798H8.32337H8.11184H7.47723H7.26569H6.63108H6.41954H5.5734C4.55802 28.7387 4.30418 28.3579 4.1561 27.1945L3.75418 23.7676H3.39457L2.9715 24.8464L1.91381 25.5868C0.708055 26.4118 0.242676 26.9618 0.242676 27.7656C0.242676 28.6541 0.919594 29.2041 1.95612 29.2041C2.3792 29.2041 2.82342 29.0771 3.18303 28.8656C3.26765 28.5906 3.30996 28.3156 3.37342 28.0618H3.39457V28.0829C3.60611 29.5214 4.1138 30.0925 5.27725 30.0925H6.12339H6.35608H6.96954H7.20223H7.81569H8.04837H8.66183H8.89452H9.50798H9.74067H10.3541H10.5868H11.2003H11.433H12.0464H12.2791H12.8926H13.1253H13.7387H13.9714H14.5849H14.8175H15.431H15.6637H16.5098C17.0598 30.0502 17.5041 29.9021 17.8425 29.6271C17.9271 29.3733 17.9906 29.1406 18.0541 28.9079H18.0752C18.2444 29.6271 18.9425 30.0925 19.979 30.0925H20.8252H21.0579H21.6713H21.904H22.5175H22.7502H23.3636H23.5963H24.2098H24.4425H25.0559H25.2886V30.0502ZM1.78689 27.8291C1.06767 27.8291 0.581136 27.6387 0.581136 27.3425C0.581136 27.0675 0.856131 26.7925 1.44843 26.4964L2.90804 25.7772L3.16188 27.5541C2.75996 27.7445 2.33689 27.8291 1.78689 27.8291Z" fill="#1D1E1C"/>
<path d="M28.7368 23.7889L29.5618 24.635H29.6887L30.4926 23.7889L29.6464 22.9639H29.5407L28.7368 23.7889Z" fill="#1D1E1C"/>
<path d="M57.3364 20.3831H56.9768C56.1518 20.9331 55.9614 21.5888 56.3844 22.2657L56.5748 28.4215C56.1518 28.5907 55.5806 28.6964 55.0306 28.6964C54.3325 28.6964 53.9941 28.4849 53.6768 27.8714L53.4018 27.3215C52.8941 26.3272 52.5345 26.0311 51.9845 26.0311C51.1383 26.0311 50.3345 27.0465 50.0595 28.3791C49.7634 28.5695 49.2768 28.6753 48.8114 28.6753C47.923 28.6753 47.3095 28.5061 46.7384 28.0618C47.4153 27.5118 47.6903 27.0888 47.6903 26.6445C47.6903 25.9042 47.098 25.4811 46.1461 25.4811C45.6384 25.4811 45.0884 25.6292 44.4961 25.9465L44.0942 27.0465L44.2422 27.3849C44.7711 27.3849 45.1942 27.5965 45.5115 28.0618L45.5538 28.1253C44.8346 28.5061 44.0942 28.6753 43.3115 28.6753H42.6769H42.4653H41.8307H41.6192H40.9846H40.773H40.1384H39.9269H39.2923H39.0808H38.2558C37.2615 28.6753 36.7962 28.2099 36.2885 26.7503L35.3366 24.0215H34.9346L34.4904 25.1426L35.4 27.4061C35.5481 27.7868 35.6962 28.1041 35.8442 28.4003C35.4212 28.6964 34.7654 28.8868 34.025 28.8868C32.8616 28.8868 32.5443 28.6753 32.502 27.8714L32.4808 27.6599H32.1C31.9731 28.1253 31.9097 28.4849 31.9097 28.7388C31.9097 29.7118 32.4808 30.1984 33.75 30.1984C34.5116 30.1984 35.3577 29.9234 35.7808 29.5214C35.8654 29.2464 35.9289 28.9714 35.9712 28.6964H36.0135C36.5423 29.6484 37.0923 29.9868 37.875 29.9868H38.7211H38.9538H39.5673H39.8H40.4134H40.6461H41.2596H41.4923H42.1057H42.3384H43.1846C44.1153 29.9234 44.9826 29.5003 45.9134 28.6541C46.7172 29.6272 47.4153 29.9868 48.4307 29.9868C48.9807 29.9868 49.5518 29.7541 49.9537 29.4368C50.7153 29.8176 51.7729 30.156 52.8941 30.3464C52.9787 30.1349 53.1056 29.733 53.2114 29.3522C53.5922 29.7964 53.9941 29.9657 54.6498 29.9657C55.6018 29.9657 56.4691 29.6272 56.8921 29.3522C57.1248 28.8022 57.2517 28.1465 57.2517 27.533V22.583L57.8864 22.0965V22.0542L57.2517 21.2715V20.3831H57.3364ZM50.5249 28.3157C50.7153 27.7445 51.1172 27.3638 51.5826 27.3638C51.9633 27.3638 52.2595 27.5753 52.5979 28.2311L52.8941 28.7811C52.9576 28.908 53.021 29.0137 53.0845 29.0984C52.2595 28.9714 51.2653 28.6753 50.5249 28.3157Z" fill="#1D1E1C"/>
<path d="M60.1922 30.0503L60.5941 28.5695V20.3831H60.1711L59.5576 21.6523L59.7692 30.0503H60.1922Z" fill="#1D1E1C"/>
<path d="M66.5381 30.2619C67.8284 30.2619 68.59 29.31 68.59 27.8716C68.59 26.6023 67.9765 25.8197 65.6919 24.8254L65.6496 24.8677V26.1793C64.9938 26.962 64.6342 27.8081 64.6342 28.5062C64.6131 29.6062 65.3535 30.2619 66.5381 30.2619ZM66.1573 26.5389C67.5746 27.1523 68.0823 27.6812 68.0823 28.1254C68.0823 28.6331 67.5323 28.9292 66.6015 28.9292C65.6496 28.9292 65.1208 28.6119 65.1208 28.1043C65.0996 27.66 65.4804 27.0889 66.1573 26.5389Z" fill="#1D1E1C"/>
<path d="M65.7976 22.4561L64.9727 23.281L65.8188 24.1272H65.9457L66.6015 23.4291L67.2996 24.1272H67.4053L68.2092 23.281L67.363 22.4561H67.2784L66.6015 23.1541L65.9034 22.4561H65.7976Z" fill="#1D1E1C"/>
<path d="M71.8476 25.1426C70.8957 25.1426 69.9226 26.5176 69.9226 27.8291C69.9226 28.8868 70.5361 29.5425 71.6361 29.5425C72.0803 29.5425 72.4399 29.4791 72.8418 29.2675L73.2226 28.2945C73.2649 28.506 73.3072 28.7175 73.3072 28.9502C73.3072 30.431 71.7207 31.4675 68.9707 31.9329V32.356L71.4034 33.1387C72.9053 31.7002 73.8149 29.881 73.8149 28.2733C73.7937 26.5599 72.9264 25.1426 71.8476 25.1426ZM71.7418 28.231C70.8957 28.231 70.4092 28.0406 70.4092 27.5752C70.4092 26.9829 70.9168 26.4541 71.488 26.4541C72.1438 26.4541 72.8207 27.1733 73.1168 28.0406C72.7784 28.1464 72.3341 28.231 71.7418 28.231Z" fill="#1D1E1C"/>
<path d="M80.2459 22.562L81.0074 21.7794L80.2247 21.0178H80.1189L79.3574 21.7794L80.1401 22.562H80.2459Z" fill="#1D1E1C"/>
<path d="M80.8803 22.4985L80.2034 23.1755L79.5053 22.4985H79.3995L78.5957 23.3235L79.4207 24.1485H79.5476L80.2034 23.4504L80.9014 24.1485H81.0284L81.8322 23.3235L80.9861 22.4985H80.8803Z" fill="#1D1E1C"/>
<path d="M82.0864 30.0504C83.0383 30.0504 83.8844 29.7119 84.3286 29.4369C84.5613 28.8869 84.6883 28.2311 84.6883 27.6177V22.6677L85.3229 22.1812V22.1389L84.6883 21.3562V20.4043H84.3286C83.5036 20.9543 83.3133 21.6101 83.7363 22.287L83.9267 28.4427C83.5036 28.6119 82.9325 28.7177 82.3825 28.7177C81.3883 28.7177 81.0287 28.3369 80.8383 27.1735L80.521 25.1639H80.1614L79.9921 25.6293C79.6114 26.7292 79.146 27.0042 78.6172 27.0042C78.1941 27.0042 77.7075 26.7715 77.1576 26.0735H76.7979L76.3537 27.2158C77.1999 27.9985 77.6018 28.6331 77.6018 29.2042C77.6018 30.3677 76.2479 31.383 73.8364 31.9542V32.3773L76.2903 33.1599C77.5383 31.4465 78.1095 29.9023 78.1095 28.4427C78.1095 28.4004 78.1095 28.3369 78.1095 28.2946C78.2364 28.3158 78.3422 28.3369 78.4691 28.3369C79.146 28.3369 79.696 27.8715 79.9498 26.835L80.0979 27.66C80.3941 29.4792 80.8383 30.0504 82.0864 30.0504C82.0652 30.0504 82.0652 30.0504 82.0864 30.0504Z" fill="#1D1E1C"/>
<path d="M87.9247 28.5695V20.3831H87.5016L86.8882 21.6523L87.0997 30.0503H87.5228L87.9247 28.5695Z" fill="#1D1E1C"/>
<path d="M88.7285 31.954V32.3771L91.1612 33.1598C92.6631 31.7214 93.5727 29.9021 93.5727 28.2945C93.5727 26.5599 92.7054 25.1426 91.6266 25.1426C90.6747 25.1426 89.7016 26.5176 89.7016 27.8291C89.7016 28.8868 90.315 29.5425 91.415 29.5425C91.8593 29.5425 92.2189 29.4791 92.6208 29.2675L93.0016 28.2945C93.0439 28.506 93.0862 28.7175 93.0862 28.9502C93.065 30.431 91.4996 31.4675 88.7285 31.954ZM91.5419 28.231C90.6958 28.231 90.2093 28.0406 90.2093 27.5752C90.2093 26.9829 90.717 26.4541 91.2881 26.4541C91.9439 26.4541 92.6208 27.1733 92.9169 28.0406C92.5573 28.1464 92.1343 28.231 91.5419 28.231Z" fill="#1D1E1C"/>
<path d="M3.81777 36.3965L4.24084 36.2696V36.1003H3.1197L3.09855 36.333L2.23124 38.4484L1.19472 36.1003H0.0947266V36.2696L0.5178 36.3965L0.496645 39.1042L0.0947266 39.2099V39.4003H1.36395V39.2099L0.792798 39.0407V36.5446L1.87163 38.9349L1.9774 39.2522H2.18894L2.27355 38.9349L3.31008 36.4811L3.28893 39.1042L2.8447 39.2099V39.4003H4.262V39.2099L3.83892 39.1042L3.81777 36.3965Z" fill="#1D1E1C"/>
<path d="M5.36195 36.9675L4.57926 37.1368V37.3271L4.87541 37.4118V39.1041L4.55811 39.2098V39.4002H5.72156V39.2098L5.36195 39.1041V36.9675Z" fill="#1D1E1C"/>
<path d="M5.42631 36.016C5.42631 35.8465 5.27805 35.6982 5.08742 35.6982C4.91798 35.6982 4.74854 35.8465 4.74854 36.016C4.74854 36.2066 4.8968 36.3548 5.08742 36.3548C5.27805 36.3337 5.42631 36.1854 5.42631 36.016Z" fill="#1D1E1C"/>
<path d="M8.28085 37.8138C8.28085 37.1791 8.06931 36.9888 7.58277 36.9888C7.18085 36.9888 6.8847 37.3272 6.77893 37.433L6.67317 36.9888H6.65201L5.9751 37.2215V37.3695L6.31355 37.4541V39.1253L5.99625 39.2311V39.4214H7.11739V39.2311L6.80009 39.1464V37.6234C6.8424 37.5599 7.09624 37.3695 7.35009 37.3695C7.66739 37.3695 7.79431 37.5599 7.79431 37.8984V39.1464L7.51931 39.2311V39.4214H8.59815V39.2311L8.28085 39.1253V37.8138Z" fill="#1D1E1C"/>
<path d="M9.67705 36.9675L8.89436 37.1368V37.3271L9.19051 37.4118V39.1041L8.85205 39.2098V39.4002H10.0367V39.2098L9.67705 39.1041V36.9675Z" fill="#1D1E1C"/>
<path d="M9.74174 36.016C9.74174 35.8465 9.59348 35.6982 9.40286 35.6982C9.23341 35.6982 9.06396 35.8465 9.06396 36.016C9.06396 36.2066 9.21223 36.3548 9.40286 36.3548C9.5723 36.3337 9.74174 36.1854 9.74174 36.016Z" fill="#1D1E1C"/>
<path d="M11.4963 38.0464L11.2636 37.9406C10.9675 37.8137 10.8828 37.6868 10.8828 37.4964C10.8828 37.306 11.0309 37.1579 11.2425 37.1579C11.4117 37.1579 11.5175 37.2214 11.5809 37.2848L11.7925 37.7291H11.9617L11.9405 37.1156C11.729 37.0098 11.5175 36.9675 11.3059 36.9675C10.8194 36.9675 10.4175 37.2848 10.4175 37.6868C10.4175 38.0041 10.5867 38.1733 10.9252 38.3425L11.1367 38.4483C11.4963 38.6175 11.6021 38.7444 11.6021 38.9348C11.6021 39.1464 11.4328 39.2944 11.179 39.2944C10.9675 39.2944 10.8617 39.2098 10.7771 39.1464L10.5232 38.5964H10.354L10.4386 39.3156C10.629 39.4214 10.8617 39.506 11.1367 39.506C11.6444 39.506 12.0886 39.1675 12.0886 38.7444C12.0674 38.4483 11.9405 38.2368 11.4963 38.0464Z" fill="#1D1E1C"/>
<path d="M13.5062 39.1042C13.3158 39.1042 13.1678 39.083 13.1678 38.6811V37.3273H13.8024V37.0523H13.1466V36.3965H12.9774L12.7024 37.0099L12.3428 37.1157V37.3273H12.7024L12.6812 38.9138C12.6812 39.2311 12.787 39.4849 13.2101 39.4849C13.5908 39.4849 13.9081 39.2522 13.9081 39.2522L13.8658 39.1042C13.8447 39.083 13.6543 39.1042 13.5062 39.1042Z" fill="#1D1E1C"/>
<path d="M15.5368 36.9675C15.3464 36.9675 15.2194 37.0945 15.0502 37.3271L14.8598 37.5598L14.8175 36.9675H14.7964L14.0771 37.2002V37.3695L14.4156 37.4329V39.1041L14.0983 39.2098V39.4002H15.3252V39.2098L14.881 39.1252V37.7714C15.0079 37.6021 15.1137 37.5175 15.2194 37.4541L15.6214 37.6021C15.6848 37.5175 15.7906 37.3906 15.7906 37.2425C15.8117 37.0733 15.706 36.9675 15.5368 36.9675Z" fill="#1D1E1C"/>
<path d="M17.5041 37.2214L17.8426 37.3272L17.2292 38.9983H17.208L16.6157 37.306L16.9753 37.2214V37.0522H15.833V37.2214L16.0657 37.306L16.9542 39.6329L16.6792 40.2675C16.6157 40.1618 16.5311 40.056 16.4042 40.056C16.2561 40.056 16.1292 40.1618 16.1292 40.331C16.1292 40.5214 16.2772 40.6483 16.4676 40.6483C16.7426 40.6483 16.8695 40.4579 17.0176 40.0137L18.0964 37.2849L18.3291 37.2002V37.031H17.483V37.2214H17.5041Z" fill="#1D1E1C"/>
<path d="M20.6558 36.9675C20 36.9675 19.4712 37.5387 19.4712 38.2579C19.4712 38.9137 19.8731 39.4637 20.6558 39.4637C21.3327 39.4637 21.8404 38.8925 21.8404 38.1521C21.8404 37.4118 21.375 36.9675 20.6558 36.9675ZM20.7193 39.231C20.2327 39.231 20 38.6598 20 38.1098C20 37.6021 20.2116 37.2002 20.5923 37.2002C21.0154 37.2002 21.2904 37.6021 21.3116 38.3002C21.3327 38.829 21.1 39.231 20.7193 39.231Z" fill="#1D1E1C"/>
<path d="M23.575 35.6772C23.0039 35.6772 22.4962 36.2695 22.4962 36.9676V36.9888L22.1577 37.0945V37.3061H22.4962V39.1253L22.1789 39.2311V39.4214H23.4269V39.2311L22.9827 39.1253V37.3272H23.6385V37.0522H22.9827V36.6715C22.9827 36.1215 23.2154 35.9311 23.4904 35.9311C23.6173 35.9311 23.7019 35.9734 23.7019 35.9946L23.8289 36.4176C23.8289 36.4176 23.8923 36.4388 23.9558 36.4388C24.1462 36.4388 24.2308 36.3119 24.2308 36.1638C24.2308 35.9311 23.9769 35.6772 23.575 35.6772Z" fill="#1D1E1C"/>
<path d="M25.9021 36.3965L26.3252 36.2696V36.1003H24.9502V36.2696L25.3733 36.3965V39.1042L24.9502 39.2099V39.4003H26.3252V39.2099L25.9021 39.1042V36.3965Z" fill="#1D1E1C"/>
<path d="M28.9483 37.8138C28.9483 37.1791 28.7368 36.9888 28.2503 36.9888C27.8483 36.9888 27.5522 37.3272 27.4464 37.433L27.3407 36.9888H27.3195L26.6426 37.2215V37.3695L26.981 37.4541V39.1253L26.6637 39.2311V39.4214H27.7849V39.2311L27.4676 39.1464V37.6234C27.5099 37.5599 27.7637 37.3695 28.0176 37.3695C28.3349 37.3695 28.4618 37.5599 28.4618 37.8984V39.1464L28.1868 39.2311V39.4214H29.2656V39.2311L28.9483 39.1253V37.8138Z" fill="#1D1E1C"/>
<path d="M31.7405 35.6982L30.7886 35.8252V35.9944L31.254 36.079V37.0309C31.1482 37.0098 31.0213 36.9886 30.8521 36.9886C30.154 36.9886 29.604 37.5386 29.604 38.3636C29.604 38.9348 29.9425 39.5059 30.5982 39.5059C30.9367 39.5059 31.1271 39.3367 31.3175 39.1463L31.4444 39.4848L32.1424 39.379V39.2098L31.7617 39.104V35.6982H31.7405ZM31.2328 38.9771C31.1271 39.0405 31.0002 39.104 30.8521 39.104C30.2598 39.104 30.0482 38.5963 30.0482 38.0886C30.0482 37.5175 30.3444 37.2213 30.704 37.2213C31.0213 37.2213 31.1905 37.4752 31.2328 37.5386V38.9771Z" fill="#1D1E1C"/>
<path d="M34.6174 37.0098L33.729 37.0944V37.2848L34.1097 37.3694V38.9136C34.0463 38.9559 33.877 39.1251 33.6232 39.1251C33.2847 39.1251 33.1367 38.9347 33.1155 38.554V37.0098L32.2905 37.0944V37.2848L32.629 37.3694V38.6174C32.629 39.1886 32.8828 39.4847 33.3059 39.4847C33.7501 39.4847 34.0463 39.1674 34.1309 39.0617L34.3001 39.4636L34.9982 39.3578V39.1674L34.6174 39.0828V37.0098Z" fill="#1D1E1C"/>
<path d="M36.4367 38.0464L36.204 37.9406C35.9079 37.8137 35.8233 37.6868 35.8233 37.4964C35.8233 37.306 35.9713 37.1579 36.1829 37.1579C36.3521 37.1579 36.4579 37.2214 36.5213 37.2848L36.7329 37.7291H36.9021L36.881 37.1156C36.6694 37.0098 36.4579 36.9675 36.2463 36.9675C35.7598 36.9675 35.3579 37.2848 35.3579 37.6868C35.3579 38.0041 35.5271 38.1733 35.8656 38.3425L36.0771 38.4483C36.4367 38.6175 36.5425 38.7444 36.5425 38.9348C36.5425 39.1464 36.3733 39.2944 36.1194 39.2944C35.9079 39.2944 35.8021 39.2098 35.7175 39.1464L35.4637 38.5964H35.2944L35.379 39.3156C35.5694 39.4214 35.8021 39.506 36.0771 39.506C36.5848 39.506 37.029 39.1675 37.029 38.7444C37.029 38.4483 36.881 38.2368 36.4367 38.0464Z" fill="#1D1E1C"/>
<path d="M38.4462 39.1042C38.2558 39.1042 38.1077 39.083 38.1077 38.6811V37.3273H38.7423V37.0523H38.0866V36.3965H37.9173L37.6423 37.0099L37.2827 37.1157V37.3273H37.6423L37.6212 38.9138C37.6212 39.2311 37.7269 39.4849 38.15 39.4849C38.5308 39.4849 38.8481 39.2522 38.8481 39.2522L38.8058 39.1042C38.7846 39.083 38.5942 39.1042 38.4462 39.1042Z" fill="#1D1E1C"/>
<path d="M40.4767 36.9675C40.2863 36.9675 40.1594 37.0945 39.9902 37.3271L39.7998 37.5598L39.7575 36.9675H39.7363L39.0171 37.2002V37.3695L39.3555 37.4329V39.1041L39.0382 39.2098V39.4002H40.2652V39.2098L39.8209 39.1252V37.7714C39.9479 37.6021 40.0536 37.5175 40.1594 37.4541L40.5613 37.6021C40.6248 37.5175 40.7305 37.3906 40.7305 37.2425C40.7517 37.0733 40.6671 36.9675 40.4767 36.9675Z" fill="#1D1E1C"/>
<path d="M42.4656 37.2214L42.804 37.3272L42.1906 38.9983H42.1694L41.5771 37.306L41.9367 37.2214V37.0522H40.7944V37.2214L41.0271 37.306L41.9156 39.6329L41.6406 40.2675C41.5771 40.1618 41.4925 40.056 41.3656 40.056C41.2175 40.056 41.0906 40.1618 41.0906 40.331C41.0906 40.5214 41.2387 40.6483 41.429 40.6483C41.704 40.6483 41.831 40.4579 41.979 40.0137L43.0579 37.2849L43.2906 37.2002V37.031H42.4444V37.2214H42.4656Z" fill="#1D1E1C"/>
<path d="M46.2943 39.0194V37.7079C46.2943 37.2002 46.0828 36.9675 45.5539 36.9675C45.0251 36.9675 44.5597 37.3271 44.5597 37.581C44.5597 37.7291 44.6443 37.8137 44.8136 37.8137C44.8982 37.8137 45.0251 37.7925 45.0251 37.7925L45.0462 37.306C45.0885 37.2848 45.2155 37.2214 45.3424 37.2214C45.6174 37.2214 45.7866 37.4118 45.8078 37.7925V38.0252L45.2789 38.1521C44.7712 38.2791 44.4751 38.4694 44.4751 38.8714C44.4751 39.2733 44.7924 39.4637 45.0886 39.4637C45.4059 39.4637 45.5328 39.3156 45.7866 39.0617H45.8078C45.8078 39.2733 45.9135 39.4637 46.1885 39.4637C46.4001 39.4637 46.6962 39.3367 46.6962 39.3367V39.1887H46.4635C46.3155 39.1675 46.2943 39.1464 46.2943 39.0194ZM45.8078 38.8714C45.7443 38.956 45.6174 39.1041 45.4059 39.1041C45.1943 39.1041 45.0039 38.9771 45.0039 38.7233C45.0039 38.5117 45.152 38.4271 45.3847 38.3425L45.8078 38.1944V38.8714Z" fill="#1D1E1C"/>
<path d="M49.2345 37.8138C49.2345 37.1791 49.0229 36.9888 48.5364 36.9888C48.1345 36.9888 47.8383 37.3272 47.7325 37.433L47.6268 36.9888H47.6056L46.9287 37.2215V37.3695L47.2672 37.4541V39.1253L46.9499 39.2311V39.4214H48.071V39.2311L47.7537 39.1464V37.6234C47.796 37.5599 48.0499 37.3695 48.3037 37.3695C48.621 37.3695 48.7479 37.5599 48.7479 37.8984V39.1464L48.4729 39.2311V39.4214H49.5518V39.2311L49.2345 39.1253V37.8138Z" fill="#1D1E1C"/>
<path d="M52.0057 35.6982L51.0537 35.8252V35.9944L51.5191 36.079V37.0309C51.4134 37.0098 51.2864 36.9886 51.1172 36.9886C50.4191 36.9886 49.8691 37.5386 49.8691 38.3636C49.8691 38.9348 50.2076 39.5059 50.8634 39.5059C51.2018 39.5059 51.3922 39.3367 51.5826 39.1463L51.7095 39.4848L52.4076 39.379V39.2098L52.0268 39.104V35.6982H52.0057ZM51.5191 38.9771C51.4134 39.0405 51.2864 39.104 51.1384 39.104C50.5461 39.104 50.3345 38.5963 50.3345 38.0886C50.3345 37.5175 50.6307 37.2213 50.9903 37.2213C51.3076 37.2213 51.4768 37.4752 51.5191 37.5386V38.9771Z" fill="#1D1E1C"/>
<path d="M57.4419 36.3965L57.865 36.2696V36.1003H56.7439L56.7227 36.333L55.8554 38.4484L54.7977 36.1003H53.7189V36.2696L54.142 36.3965L54.1208 39.1042L53.6978 39.2099V39.4003H54.967V39.2099L54.417 39.0407V36.5446L55.4958 38.9349L55.6016 39.2522H55.792L55.8977 38.9349L56.9131 36.4811V39.1042L56.4689 39.2099V39.4003H57.865V39.2099L57.4631 39.1042L57.4419 36.3965Z" fill="#1D1E1C"/>
<path d="M58.373 36.016C58.373 36.2066 58.5213 36.3549 58.7119 36.3549C58.8814 36.3549 59.0508 36.2066 59.0508 36.016C59.0508 35.8466 58.9026 35.6983 58.7119 35.6983C58.5213 35.6771 58.373 35.8254 58.373 36.016Z" fill="#1D1E1C"/>
<path d="M58.9866 36.9675L58.2039 37.1368V37.3271L58.5001 37.4118V39.1041L58.1616 39.2098V39.4002H59.3462V39.2098L58.9866 39.1041V36.9675Z" fill="#1D1E1C"/>
<path d="M61.8844 37.8138C61.8844 37.1791 61.6728 36.9888 61.1863 36.9888C60.7844 36.9888 60.4882 37.3272 60.3824 37.433L60.2767 36.9888H60.2555L59.5786 37.2215V37.3695L59.9171 37.4541V39.1253L59.5998 39.2311V39.4214H60.7209V39.2311L60.4036 39.1464V37.6234C60.4459 37.5599 60.6998 37.3695 60.9536 37.3695C61.2709 37.3695 61.3978 37.5599 61.3978 37.8984V39.1464L61.1228 39.2311V39.4214H62.2017V39.2311L61.8844 39.1253V37.8138Z" fill="#1D1E1C"/>
<path d="M63.8307 39.0618C63.323 39.0618 62.9634 38.7022 62.9634 38.0676H64.5923C64.5923 37.3907 64.275 36.9888 63.6827 36.9888C63.0057 36.9888 62.498 37.5599 62.498 38.3214C62.498 38.7868 62.773 39.4849 63.598 39.4849C64.3173 39.4849 64.5711 38.8503 64.5923 38.7868L64.4865 38.7234C64.5076 38.7022 64.2538 39.0618 63.8307 39.0618ZM63.5769 37.2215C63.8942 37.2215 64.0423 37.5176 64.0423 37.8561H62.9846C63.048 37.4753 63.2807 37.2215 63.5769 37.2215Z" fill="#1D1E1C"/>
<path d="M66.4537 36.9675C66.2634 36.9675 66.1364 37.0945 65.9672 37.3271L65.7768 37.5598L65.7345 36.9675H65.7134L64.9941 37.2002V37.3695L65.3326 37.4329V39.1041L65.0153 39.2098V39.4002H66.2422V39.2098L65.798 39.1252V37.7714C65.9249 37.6021 66.0307 37.5175 66.1364 37.4541L66.5384 37.6021C66.6018 37.5175 66.7076 37.3906 66.7076 37.2425C66.7287 37.0733 66.623 36.9675 66.4537 36.9675Z" fill="#1D1E1C"/>
<path d="M68.7382 39.0194V37.7079C68.7382 37.2002 68.5266 36.9675 67.9978 36.9675C67.4689 36.9675 67.0036 37.3271 67.0036 37.581C67.0036 37.7291 67.0882 37.8137 67.2574 37.8137C67.342 37.8137 67.4689 37.7925 67.4689 37.7925L67.4901 37.306C67.5324 37.2848 67.6593 37.2214 67.7862 37.2214C68.0612 37.2214 68.2305 37.4118 68.2516 37.7925V38.0252L67.7228 38.1521C67.2151 38.2791 66.9189 38.4694 66.9189 38.8714C66.9189 39.2733 67.2362 39.4637 67.5324 39.4637C67.8497 39.4637 67.9766 39.3156 68.2305 39.0617H68.2516C68.2516 39.2733 68.3574 39.4637 68.6324 39.4637C68.8439 39.4637 69.1401 39.3367 69.1401 39.3367V39.1887H68.9074C68.7593 39.1675 68.7382 39.1464 68.7382 39.0194ZM68.2305 38.8714C68.167 38.956 68.0401 39.1041 67.8286 39.1041C67.617 39.1041 67.4266 38.9771 67.4266 38.7233C67.4266 38.5117 67.5747 38.4271 67.8074 38.3425L68.2305 38.1944V38.8714Z" fill="#1D1E1C"/>
<path d="M70.1554 35.6982L69.3516 35.8463V36.0367L69.6689 36.1213V39.104L69.3516 39.2098V39.4001H70.4939V39.2098L70.1554 39.1251V35.6982Z" fill="#1D1E1C"/>
<path d="M73.7093 37.7715C74.1324 37.6234 74.4497 37.3484 74.4497 36.9253C74.4497 36.3965 73.9632 36.0792 73.0324 36.1004L71.8267 36.1215V36.2907L72.2497 36.4177V39.1253L71.8267 39.2311V39.4215H73.2016V39.2311L72.7997 39.1253V37.9407L73.2016 37.9196C73.2016 37.9196 73.2651 38.0253 73.4132 38.2369L74.2382 39.4003H75.0843V39.21L74.6612 39.1042L73.7093 37.7715ZM73.1593 37.708H72.7786V36.2696C73.4766 36.2484 73.8574 36.5446 73.8574 37.01C73.8786 37.3907 73.5613 37.6657 73.1593 37.708Z" fill="#1D1E1C"/>
<path d="M76.4172 39.0618C75.9095 39.0618 75.5499 38.7022 75.5499 38.0676H77.1787C77.1787 37.3907 76.8614 36.9888 76.2691 36.9888C75.5922 36.9888 75.0845 37.5599 75.0845 38.3214C75.0845 38.7868 75.3595 39.4849 76.1845 39.4849C76.9037 39.4849 77.1575 38.8503 77.1787 38.7868L77.0729 38.7234C77.0941 38.7022 76.8402 39.0618 76.4172 39.0618ZM76.1845 37.2215C76.5018 37.2215 76.6498 37.5176 76.6498 37.8561H75.5922C75.6345 37.4753 75.8672 37.2215 76.1845 37.2215Z" fill="#1D1E1C"/>
<path d="M78.7649 38.0464L78.5322 37.9406C78.236 37.8137 78.1514 37.6868 78.1514 37.4964C78.1514 37.306 78.2995 37.1579 78.511 37.1579C78.6802 37.1579 78.786 37.2214 78.8495 37.2848L79.061 37.7291H79.2302L79.2091 37.1156C78.9975 37.0098 78.786 36.9675 78.5745 36.9675C78.0879 36.9675 77.686 37.2848 77.686 37.6868C77.686 38.0041 77.8553 38.1733 78.1937 38.3425L78.4052 38.4483C78.7649 38.6175 78.8706 38.7444 78.8706 38.9348C78.8706 39.1464 78.7014 39.2944 78.4476 39.2944C78.236 39.2944 78.1302 39.2098 78.0456 39.1464L77.7918 38.5964H77.6226L77.7072 39.3156C77.8976 39.4214 78.1302 39.506 78.4052 39.506C78.9129 39.506 79.3572 39.1675 79.3572 38.7444C79.3572 38.4483 79.2091 38.2368 78.7649 38.0464Z" fill="#1D1E1C"/>
<path d="M80.9439 36.9675C80.2881 36.9675 79.7593 37.5387 79.7593 38.2579C79.7593 38.9137 80.1612 39.4637 80.9439 39.4637C81.6208 39.4637 82.1285 38.8925 82.1285 38.1521C82.1285 37.4118 81.6631 36.9675 80.9439 36.9675ZM81.0073 39.231C80.5208 39.231 80.2881 38.6598 80.2881 38.1098C80.2881 37.6021 80.4997 37.2002 80.8804 37.2002C81.3035 37.2002 81.5785 37.6021 81.5996 38.3002C81.5996 38.829 81.3881 39.231 81.0073 39.231Z" fill="#1D1E1C"/>
<path d="M84.6667 37.0098L83.7783 37.0944V37.2848L84.1591 37.3694V38.9136C84.0956 38.9559 83.9264 39.1251 83.6725 39.1251C83.3341 39.1251 83.186 38.9347 83.1648 38.554V37.0098L82.3398 37.0944V37.2848L82.6783 37.3694V38.6174C82.6783 39.1886 82.9322 39.4847 83.3552 39.4847C83.7995 39.4847 84.0956 39.1674 84.1802 39.0617L84.3494 39.4636L85.0475 39.3578V39.1674L84.6667 39.0828V37.0098Z" fill="#1D1E1C"/>
<path d="M86.6979 36.9675C86.5075 36.9675 86.3806 37.0945 86.2114 37.3271L86.021 37.5598L85.9787 36.9675H85.9575L85.2383 37.2002V37.3695L85.5767 37.4329V39.1041L85.2594 39.2098V39.4002H86.4864V39.2098L86.0421 39.1252V37.7714C86.169 37.6021 86.2748 37.5175 86.3806 37.4541L86.7825 37.6021C86.846 37.5175 86.9517 37.3906 86.9517 37.2425C86.9729 37.0733 86.8883 36.9675 86.6979 36.9675Z" fill="#1D1E1C"/>
<path d="M88.4748 39.0829C87.9882 39.0829 87.6286 38.6387 87.6286 38.0887C87.6286 37.6021 87.9036 37.2002 88.3055 37.2002C88.4748 37.2002 88.5805 37.2637 88.5805 37.2637L88.644 37.7502C88.644 37.7502 88.7286 37.7714 88.8344 37.7714C89.0036 37.7714 89.1094 37.6445 89.1094 37.4752C89.1094 37.2002 88.8132 36.9675 88.3902 36.9675C87.7767 36.9675 87.1421 37.4752 87.1421 38.3002C87.1421 39.0406 87.6286 39.4637 88.2209 39.4637C88.8767 39.4637 89.1094 38.9137 89.1517 38.8502L89.0459 38.7656C89.0459 38.7867 88.8132 39.0829 88.4748 39.0829Z" fill="#1D1E1C"/>
<path d="M90.7804 39.0618C90.2727 39.0618 89.9131 38.7022 89.9131 38.0676H91.542C91.542 37.3907 91.2247 36.9888 90.6324 36.9888C89.9554 36.9888 89.4478 37.5599 89.4478 38.3214C89.4478 38.7868 89.7228 39.4849 90.5477 39.4849C91.267 39.4849 91.5208 38.8503 91.542 38.7868L91.4362 38.7234C91.4573 38.7022 91.2035 39.0618 90.7804 39.0618ZM90.5266 37.2215C90.8439 37.2215 90.992 37.5176 90.992 37.8561H89.9343C89.9977 37.4753 90.2304 37.2215 90.5266 37.2215Z" fill="#1D1E1C"/>
<path d="M93.1286 38.0464L92.8959 37.9406C92.5998 37.8137 92.5152 37.6868 92.5152 37.4964C92.5152 37.306 92.6632 37.1579 92.8748 37.1579C93.044 37.1579 93.1498 37.2214 93.2132 37.2848L93.4248 37.7291H93.594L93.5729 37.1156C93.3613 37.0098 93.1498 36.9675 92.9382 36.9675C92.4517 36.9675 92.0498 37.2848 92.0498 37.6868C92.0498 38.0041 92.219 38.1733 92.5575 38.3425L92.769 38.4483C93.1286 38.6175 93.2344 38.7444 93.2344 38.9348C93.2344 39.1464 93.0652 39.2944 92.8113 39.2944C92.5998 39.2944 92.494 39.2098 92.4094 39.1464L92.1556 38.5964H91.9863L92.0709 39.3156C92.2613 39.4214 92.494 39.506 92.769 39.506C93.2767 39.506 93.7209 39.1675 93.7209 38.7444C93.7209 38.4483 93.5728 38.2368 93.1286 38.0464Z" fill="#1D1E1C"/>
<path d="M135.774 43.1233C135.922 43.081 136.07 43.0388 136.218 42.9753C136.092 43.0176 135.944 43.081 135.774 43.1233Z" fill="#9D999A"/>
<path d="M149.778 24.1274C149.587 27.089 148.339 32.4831 146.732 35.0427C145.357 37.2216 140.745 41.1984 136.853 42.7638C136.832 42.7638 136.832 42.785 136.811 42.785H136.789H136.768C136.747 42.785 136.747 42.785 136.726 42.8061C136.705 42.8061 136.705 42.8273 136.684 42.8273C134.78 43.5465 132.432 42.4254 131.078 41.6215C131.057 41.6215 131.036 41.6004 131.036 41.6004C130.803 41.4523 130.591 41.3254 130.422 41.1984C130.147 41.0081 129.978 40.8811 129.978 40.8811C129.597 40.6061 129.238 40.31 128.878 40.0138C128.772 39.9292 128.688 39.8446 128.582 39.7811C128.476 39.6754 128.349 39.5908 128.243 39.485C128.074 39.3369 127.905 39.1888 127.736 39.0196C127.566 38.8715 127.397 38.7023 127.228 38.5542C127.059 38.385 126.868 38.2158 126.699 38.0466C126.445 37.7927 126.17 37.5389 125.917 37.2639C131.713 35.9946 140.893 32.3985 146.012 28.6966C148.149 27.1736 149.566 25.6082 149.778 24.2121C149.757 24.1697 149.757 24.1486 149.778 24.1274Z" fill="url(#paint0_linear_123_1411)"/>
<path d="M149.757 24.085V24.1268C149.757 24.1477 149.757 24.1686 149.736 24.1895C149.736 24.1686 149.757 24.1268 149.757 24.085Z" fill="#9D999A"/>
<path d="M136.684 42.8272C136.578 42.8695 136.43 42.9329 136.261 42.9752C136.134 43.0175 135.986 43.081 135.817 43.1233C135.711 43.1656 135.584 43.1868 135.457 43.2291C135.415 43.2502 135.351 43.2502 135.288 43.2714C135.224 43.2925 135.182 43.2925 135.119 43.3137C135.055 43.3348 134.992 43.3349 134.928 43.356C134.844 43.3772 134.759 43.3772 134.674 43.3983C131.713 43.7156 123.4 42.4887 118.259 40.0983C118.175 40.056 118.111 40.0349 118.048 39.9926C117.963 39.9503 117.9 39.908 117.815 39.8868C115.911 38.9137 114.727 37.708 114.219 37.0945C110.665 32.6734 106.371 21.9908 106.434 15.8562V15.8351C106.455 15.4755 106.582 14.2697 107.365 12.9793C107.386 12.9582 107.407 12.9159 107.429 12.8947C107.471 12.8313 107.513 12.7467 107.555 12.6832C108.402 11.414 109.671 10.0601 111.236 9.06592C112.907 17.3158 118.344 29.6061 125.896 37.2638C126.149 37.5176 126.424 37.7926 126.678 38.0464C127.017 38.3849 127.376 38.7234 127.715 39.0195C127.884 39.1676 128.053 39.3368 128.223 39.4849C128.328 39.5907 128.455 39.6753 128.561 39.781C128.667 39.8656 128.751 39.9503 128.857 40.0137C129.217 40.3099 129.598 40.606 129.957 40.881C129.957 40.881 130.126 41.0079 130.401 41.1983C130.571 41.3041 130.782 41.4522 131.015 41.6003C131.036 41.6003 131.057 41.6214 131.057 41.6214C132.432 42.4252 134.78 43.5252 136.684 42.8272Z" fill="url(#paint1_linear_123_1411)"/>
<path d="M106.477 14.7561C106.434 15.0946 106.413 15.3907 106.413 15.6446C106.434 15.3907 106.455 15.0946 106.477 14.7561Z" fill="url(#paint2_linear_123_1411)"/>
<path d="M149.757 24.085V24.1268C149.757 24.1477 149.757 24.1686 149.736 24.1895C149.736 24.1686 149.757 24.1268 149.757 24.085Z" fill="url(#paint3_linear_123_1411)"/>
<path d="M149.757 24.1274V24.0851C149.757 24.1274 149.757 24.1697 149.736 24.1909C149.524 25.587 148.107 27.1312 145.97 28.6754C144.574 28.1889 140.83 26.7293 136.346 23.4928C128.349 17.7178 123.209 8.09292 116.482 7.60638C114.536 7.45831 112.738 8.09292 111.215 9.06599C109.65 10.0602 108.359 11.414 107.534 12.6833C107.492 12.7467 107.45 12.8313 107.407 12.8948C107.386 12.9371 107.365 12.9583 107.344 12.9794C106.561 14.2698 106.434 15.4544 106.413 15.8352C106.413 15.814 106.413 15.7929 106.413 15.7717C106.413 15.7294 106.413 15.7082 106.413 15.6659C106.413 15.4121 106.434 15.1159 106.477 14.7775V14.7563C106.477 14.7352 106.477 14.7352 106.477 14.714C106.477 14.6717 106.477 14.6294 106.498 14.5871V14.5659C107.45 8.07176 114.24 0.646829 119.74 0.794904C126.403 0.964133 132.115 8.91791 137.276 13.6986C141.719 17.8024 145.294 19.537 147.557 20.9966C149.017 21.9274 149.82 22.7736 149.736 24.1062C149.757 24.1062 149.757 24.1062 149.757 24.1274Z" fill="url(#paint4_linear_123_1411)"/>
<defs>
<linearGradient id="paint0_linear_123_1411" x1="167.21" y1="34.0068" x2="108.568" y2="33.0085" gradientUnits="userSpaceOnUse">
<stop offset="0.1266" stop-color="#DCD8D6"/>
<stop offset="0.1645" stop-color="#CDCAC8"/>
<stop offset="0.2369" stop-color="#A6A5A5"/>
<stop offset="0.2462" stop-color="#A1A0A0"/>
<stop offset="0.2793" stop-color="#A8A8A8"/>
<stop offset="0.3237" stop-color="#BABABA"/>
<stop offset="0.3554" stop-color="#ABABAB"/>
<stop offset="0.4164" stop-color="#838383"/>
<stop offset="0.4212" stop-color="#808080"/>
<stop offset="0.4832" stop-color="#8D8D8D"/>
<stop offset="0.5986" stop-color="#B1B1B1"/>
<stop offset="0.698" stop-color="#D4D4D4"/>
<stop offset="0.7251" stop-color="#CACBCB"/>
<stop offset="0.7707" stop-color="#B0B2B2"/>
<stop offset="0.8292" stop-color="#858989"/>
<stop offset="0.8953" stop-color="#4D5454"/>
<stop offset="0.9187" stop-color="#6F7373"/>
<stop offset="0.9556" stop-color="#9EA0A0"/>
<stop offset="0.9839" stop-color="#BCBCBC"/>
<stop offset="1" stop-color="#C7C6C6"/>
</linearGradient>
<linearGradient id="paint1_linear_123_1411" x1="110.248" y1="7.03" x2="161.072" y2="120.383" gradientUnits="userSpaceOnUse">
<stop offset="0.0305199" stop-color="#4E4D4D"/>
<stop offset="0.0430858" stop-color="#626161"/>
<stop offset="0.0586911" stop-color="#727272"/>
<stop offset="0.0780062" stop-color="#7E7E7E"/>
<stop offset="0.1048" stop-color="#848585"/>
<stop offset="0.1762" stop-color="#868787"/>
<stop offset="0.3476" stop-color="#4E4D4D"/>
<stop offset="0.3897" stop-color="#6A6969"/>
<stop offset="0.4445" stop-color="#878686"/>
<stop offset="0.5059" stop-color="#9E9D9D"/>
<stop offset="0.5756" stop-color="#B1B0B0"/>
<stop offset="0.6583" stop-color="#BDBCBC"/>
<stop offset="0.7668" stop-color="#C5C4C4"/>
<stop offset="1" stop-color="#C7C6C6"/>
</linearGradient>
<linearGradient id="paint2_linear_123_1411" x1="143.22" y1="36.8313" x2="97.3064" y2="9.81496" gradientUnits="userSpaceOnUse">
<stop stop-color="#DCD8D6"/>
<stop offset="0.0431043" stop-color="#B3B2B1"/>
<stop offset="0.1246" stop-color="#6A6F6E"/>
<stop offset="0.1624" stop-color="#4D5454"/>
<stop offset="0.7274" stop-color="#7C8285"/>
<stop offset="0.8217" stop-color="#848A8E"/>
<stop offset="0.839" stop-color="#898F92"/>
<stop offset="0.8601" stop-color="#989C9F"/>
<stop offset="0.8832" stop-color="#B1B2B3"/>
<stop offset="0.8997" stop-color="#C7C6C6"/>
</linearGradient>
<linearGradient id="paint3_linear_123_1411" x1="147.921" y1="23.0719" x2="102.543" y2="-3.6241" gradientUnits="userSpaceOnUse">
<stop stop-color="#DCD8D6"/>
<stop offset="0.0431043" stop-color="#B3B2B1"/>
<stop offset="0.1246" stop-color="#6A6F6E"/>
<stop offset="0.1624" stop-color="#4D5454"/>
<stop offset="0.3014" stop-color="#767B7C"/>
<stop offset="0.5858" stop-color="#D5D5D6"/>
<stop offset="0.6658" stop-color="#D3D3D4"/>
<stop offset="0.7118" stop-color="#CACBCD"/>
<stop offset="0.7491" stop-color="#BCBEC0"/>
<stop offset="0.7818" stop-color="#A9ACAE"/>
<stop offset="0.8112" stop-color="#8F9498"/>
<stop offset="0.8217" stop-color="#848A8E"/>
<stop offset="0.839" stop-color="#898F92"/>
<stop offset="0.8601" stop-color="#989C9F"/>
<stop offset="0.8832" stop-color="#B1B2B3"/>
<stop offset="0.8997" stop-color="#C7C6C6"/>
<stop offset="0.9219" stop-color="#C2C1C2"/>
<stop offset="0.9493" stop-color="#B3B4B5"/>
<stop offset="0.9794" stop-color="#9A9DA0"/>
<stop offset="1" stop-color="#848A8E"/>
</linearGradient>
<linearGradient id="paint4_linear_123_1411" x1="147.309" y1="30.0871" x2="93.8997" y2="-5.36754" gradientUnits="userSpaceOnUse">
<stop offset="0.0332898" stop-color="#676767"/>
<stop offset="0.0879776" stop-color="#7D7C7C"/>
<stop offset="0.1573" stop-color="#919090"/>
<stop offset="0.2265" stop-color="#9D9C9C"/>
<stop offset="0.2946" stop-color="#A1A0A0"/>
<stop offset="0.3503" stop-color="#999898"/>
<stop offset="0.4379" stop-color="#828282"/>
<stop offset="0.5205" stop-color="#676767"/>
<stop offset="0.5272" stop-color="#6C6C6C"/>
<stop offset="0.589" stop-color="#969696"/>
<stop offset="0.6375" stop-color="#B0B0B0"/>
<stop offset="0.6664" stop-color="#BABABA"/>
<stop offset="0.7111" stop-color="#B8B8B8"/>
<stop offset="0.7277" stop-color="#B1B2B3"/>
<stop offset="0.7396" stop-color="#A5A8A9"/>
<stop offset="0.7492" stop-color="#94999B"/>
<stop offset="0.7556" stop-color="#848A8E"/>
<stop offset="0.7877" stop-color="#898F92"/>
<stop offset="0.8267" stop-color="#989C9F"/>
<stop offset="0.8692" stop-color="#B1B2B3"/>
<stop offset="0.8997" stop-color="#C7C6C6"/>
<stop offset="0.9219" stop-color="#C2C1C2"/>
<stop offset="0.9493" stop-color="#B3B4B5"/>
<stop offset="0.9794" stop-color="#9A9DA0"/>
<stop offset="1" stop-color="#848A8E"/>
</linearGradient>
</defs>
</svg>
