<svg width="157" height="56" viewBox="0 0 157 56" fill="none" xmlns="http://www.w3.org/2000/svg">
<path d="M104.132 53.6082L103.624 53.7139L101.572 55.7658C108.13 54.3697 117.607 53.5024 128.12 53.5024C138.633 53.5024 148.11 54.3908 154.668 55.7658L156.868 53.5659C150.12 52.1486 140.558 51.3447 130.595 51.3447C120.568 51.3447 110.901 52.1697 104.132 53.6082Z" fill="#00524D"/>
<path d="M103.645 53.7138L103.751 53.2061C105.19 46.4369 106.015 36.7697 106.015 26.7006C106.015 16.7372 105.211 7.17575 103.815 0.427734L101.615 2.62771C103.011 9.2065 103.878 18.6622 103.878 29.1967C103.878 39.7101 103.011 49.1869 101.615 55.7657L103.645 53.7138Z" fill="#00524D"/>
<path d="M137.872 36.0929C135.82 37.4679 133.789 39.0756 132.076 40.5352C133.028 41.4236 134.001 42.3756 134.974 43.4121L135.058 43.3275H135.249L135.291 43.4544L135.439 43.2429C135.355 43.0102 135.418 42.7352 135.63 42.5659C135.883 42.3333 136.264 42.3333 136.476 42.5659C136.687 42.7986 136.624 43.1794 136.37 43.3909C136.201 43.539 135.989 43.6025 135.799 43.539C135.672 43.7505 135.757 43.9621 135.757 43.9621C136.01 44.5332 137.11 45.0409 137.999 45.0198C138.655 45.0198 139.12 44.8082 139.797 44.1313C140.558 43.3486 141.235 44.1525 141.235 44.1525C142.314 45.6967 140.114 47.114 138.57 47.1351C136.687 47.1774 134.974 46.014 134.53 45.4851C134.36 45.2948 134.255 45.2313 134.107 45.2948C134.022 45.3371 133.98 45.464 133.959 45.5909C133.98 45.8025 133.895 46.014 133.726 46.1409C133.472 46.3736 133.091 46.3736 132.88 46.1409C132.668 45.9082 132.71 45.5274 132.985 45.2948C133.112 45.1678 133.303 45.1255 133.451 45.1255L133.514 45.1044L133.451 45.0621V44.8717L133.662 44.6601C133.26 44.2794 132.139 43.1794 130.595 41.7833C129.051 43.1582 127.93 44.2582 127.528 44.6601L127.739 44.8717V45.0621L127.676 45.1044L127.718 45.1255C127.887 45.1255 128.057 45.1678 128.184 45.2948C128.459 45.5274 128.501 45.9082 128.289 46.1409C128.078 46.3736 127.697 46.3736 127.443 46.1409C127.274 45.9928 127.189 45.7813 127.21 45.5909C127.189 45.464 127.126 45.3371 127.062 45.2948C126.914 45.2101 126.809 45.2948 126.639 45.4851C126.195 46.014 124.482 47.1774 122.599 47.1351C121.055 47.114 118.855 45.6967 119.934 44.1525C119.934 44.1525 120.611 43.3698 121.393 44.1313C122.07 44.8082 122.536 45.0198 123.191 45.0198C124.059 45.0409 125.159 44.5332 125.412 43.9621C125.412 43.9621 125.497 43.7505 125.349 43.539C125.159 43.5813 124.947 43.539 124.778 43.3909C124.524 43.1582 124.482 42.7775 124.672 42.5659C124.884 42.3333 125.243 42.3333 125.518 42.5659C125.73 42.7563 125.793 43.0313 125.709 43.2429L125.857 43.4544L125.899 43.3275H126.089L126.174 43.4121C127.147 42.3756 128.12 41.4236 129.072 40.5352C127.359 39.0756 125.328 37.4679 123.276 36.0929C116.845 31.8199 112.001 32.2218 112.001 32.2218C115.639 30.868 120.209 32.1795 122.282 33.3641C123.762 34.1891 126.935 36.1564 130.532 39.2237C134.107 36.1564 137.28 34.1891 138.782 33.3641C140.855 32.1795 145.424 30.868 149.062 32.2218C149.147 32.243 144.303 31.8199 137.872 36.0929ZM120.314 15.6796C120.42 15.2354 121.034 14.8758 121.034 14.8758L121.097 14.8335V14.77C121.055 13.8816 121.753 13.797 121.774 13.797L121.88 13.7758V13.67C121.859 13.5431 121.88 13.4374 121.964 13.3527C122.091 13.1835 122.387 13.0989 122.789 13.0989C123.043 13.0989 123.276 13.1412 123.276 13.1412L123.445 13.1624L123.403 12.9931C123.382 12.8874 123.382 12.8027 123.424 12.7604C123.466 12.697 123.572 12.6547 123.72 12.6547C124.186 12.6547 124.905 12.9508 124.905 12.9508L125.074 13.0143L125.053 12.8239C125.032 12.7181 125.053 12.6335 125.095 12.5701C125.159 12.4854 125.286 12.4643 125.476 12.4643C125.899 12.4643 126.449 12.6758 126.449 12.6758L126.491 12.697C126.639 12.8027 126.872 12.8662 127.189 12.8662C127.232 13.0777 127.401 13.5008 128.162 13.8816H128.184C128.184 13.8816 128.585 13.9873 129.072 14.1143C129.368 14.1989 129.685 14.3047 129.96 14.4104L129.982 14.4316L129.685 14.4739C128.797 14.6643 127.782 15.0662 127.634 15.1085C127.485 15.1296 127.359 15.1296 127.232 15.1296C126.428 15.1296 126.28 14.7489 126.259 14.7489L126.216 14.622L126.11 14.7066C125.793 14.9393 125.518 15.045 125.286 15.045H125.264L125.159 15.0239L125.053 15.0027C124.926 14.9604 124.862 14.8758 124.862 14.8758L124.799 14.7912L124.714 14.8546C124.418 15.1085 124.101 15.2354 123.784 15.2354C123.487 15.2354 123.297 15.1296 123.297 15.1296L123.234 15.0873L123.17 15.1296C122.514 15.6796 121.795 15.87 121.795 15.87H121.774L121.753 15.8912C121.626 16.0392 121.33 16.1027 120.907 16.1027C120.674 16.1027 120.484 16.0816 120.399 16.0816C120.314 15.9335 120.293 15.8277 120.314 15.6796ZM122.641 10.6451C122.853 10.4124 123.297 10.3912 123.424 10.3912H123.466H123.53L123.551 10.3278C123.699 10.0316 123.889 9.88354 124.143 9.88354C124.291 9.88354 124.418 9.947 124.418 9.947L124.524 9.98931L124.566 9.88354C124.63 9.75661 124.714 9.672 124.841 9.672C125.222 9.672 125.751 10.1585 125.751 10.1585L125.878 10.2855L125.92 10.0951C125.962 9.92584 126.026 9.92585 126.047 9.92585C126.28 9.92585 126.745 10.4547 126.978 10.7931L127.084 10.9412L127.168 10.772C127.232 10.6239 127.295 10.6239 127.359 10.6239H127.38C127.485 10.772 127.655 10.8989 127.909 11.0047C127.909 11.1951 127.972 11.5547 128.522 11.8508C128.48 12.0412 128.48 12.422 128.945 13.0143L128.966 13.0354C128.966 13.0354 129.58 13.522 130.045 14.0085L130.299 14.2835L130.32 14.3047V14.3258C130.151 14.2412 129.96 14.1566 129.749 14.0931C129.072 13.8393 128.289 13.67 128.184 13.6489C127.38 13.247 127.359 12.8451 127.359 12.7816V12.7604L127.38 12.6547V12.6124H127.295H127.232C127.105 12.6124 126.978 12.6124 126.872 12.5912L126.766 12.5701L126.512 12.4643L126.407 12.4008C126.28 12.2739 126.259 12.147 126.259 12.147L126.237 12.0412L126.132 12.0624L125.899 12.0835C125.264 12.0835 124.989 11.6181 124.989 11.597L124.947 11.5335L124.884 11.5547C124.778 11.5547 124.651 11.5758 124.524 11.5758C123.995 11.5758 123.593 11.4489 123.593 11.4489H123.572H123.551L123.466 11.4701C123.17 11.4701 122.705 11.1316 122.514 10.9624C122.536 10.7931 122.578 10.7085 122.641 10.6451ZM126.047 8.33932C126.301 8.33932 126.597 8.50855 126.597 8.50855L126.66 8.55086L126.724 8.50855C126.851 8.40278 126.978 8.36048 127.084 8.36048C127.316 8.36048 127.485 8.57201 127.485 8.57201L127.549 8.67778L127.634 8.59316L127.782 8.5297C128.035 8.5297 128.332 9.0797 128.416 9.29124L128.501 9.46046L128.607 9.31239L128.712 9.22777C128.86 9.22777 129.072 9.75662 129.178 10.2643L129.22 10.4547L129.347 10.3278L129.474 10.2643C129.664 11.3643 130.151 13.0566 130.405 13.9873L130.447 14.1143L130.214 13.8604L129.96 13.6066C129.601 13.247 129.22 12.9297 129.157 12.8874C128.628 12.2316 128.818 11.8931 128.818 11.8931L128.882 11.7874V11.7662H128.86L128.755 11.7239C128.564 11.6393 128.437 11.5335 128.353 11.4489C128.205 11.3008 128.162 11.1528 128.162 11.0681V10.9624L128.184 10.8778V10.8355L128.12 10.8143L128.099 10.7931C127.824 10.7085 127.655 10.5393 127.549 10.3912C127.422 10.2008 127.401 10.0105 127.401 9.98931V9.90469L127.337 9.88354C126.766 9.672 126.385 9.29124 126.385 9.29124L126.364 9.27008H126.343C126.132 9.22777 125.878 8.8047 125.73 8.50855C125.772 8.38163 125.878 8.33932 126.047 8.33932ZM129.601 9.41816H129.685L129.664 9.29124C129.58 8.46624 129.643 7.78933 129.812 7.59894L129.897 7.55663L129.982 7.57779L130.109 7.64125L130.13 7.49318C130.257 6.83741 130.489 6.4778 130.616 6.28742C130.764 6.4778 130.997 6.83741 131.124 7.49318L131.145 7.64125L131.272 7.57779L131.357 7.55663L131.441 7.59894C131.589 7.78933 131.653 8.4874 131.568 9.29124V9.41816H131.653C131.674 9.50278 131.653 9.73547 131.589 10.0528L131.568 10.2432L131.505 10.5393C131.335 11.322 131.06 12.3797 130.743 13.4585L130.722 13.522L130.637 13.8393L130.616 13.8816V13.8393L130.532 13.522L130.51 13.4585C130.193 12.3797 129.939 11.3008 129.77 10.5393L129.707 10.2432L129.685 10.0528C129.601 9.71431 129.58 9.50278 129.601 9.41816ZM131.885 10.2855L132.034 10.4124L132.076 10.222C132.182 9.73546 132.393 9.18547 132.562 9.18547L132.647 9.27008L132.753 9.41816L132.816 9.24893C132.901 9.03739 133.197 8.48739 133.472 8.48739L133.62 8.55086L133.705 8.63547L133.768 8.5297C133.768 8.5297 133.916 8.31817 134.17 8.31817C134.297 8.31817 134.424 8.38163 134.551 8.46625L134.614 8.50855L134.657 8.46625C134.657 8.46625 134.953 8.29701 135.207 8.29701C135.355 8.29701 135.46 8.36047 135.524 8.48739C135.376 8.78355 135.122 9.22777 134.91 9.24893H134.889L134.868 9.27008C134.868 9.27008 134.466 9.65085 133.916 9.86238L133.853 9.88354V9.96815C133.853 9.96815 133.832 10.1585 133.705 10.3701C133.599 10.5182 133.43 10.6874 133.155 10.772L133.134 10.7931L133.07 10.8143L133.091 10.8566L133.112 10.9412V11.0047C133.112 11.0893 133.07 11.2374 132.922 11.3854C132.816 11.4701 132.71 11.5758 132.52 11.6604L132.435 11.7028H132.414V11.7239L132.478 11.8297C132.478 11.8297 132.647 12.1681 132.139 12.8239C132.076 12.8662 131.695 13.1835 131.314 13.5431L131.06 13.797L130.828 14.0508L130.87 13.9239C131.145 12.9931 131.632 11.3008 131.822 10.2008L131.885 10.2855ZM136.645 9.88354L136.687 9.98931L136.793 9.947C136.793 9.947 136.899 9.88354 137.068 9.88354C137.322 9.88354 137.512 10.0316 137.66 10.3278L137.703 10.3912H137.766H137.808C137.935 10.3912 138.38 10.4124 138.591 10.6451C138.655 10.7085 138.697 10.8143 138.697 10.9201C138.507 11.0893 138.02 11.4278 137.745 11.4278L137.682 11.4066H137.66H137.639C137.639 11.4066 137.237 11.5335 136.708 11.5335C136.582 11.5335 136.455 11.5335 136.349 11.5124L136.264 11.4912L136.243 11.5547C136.243 11.5758 135.968 12.0412 135.333 12.0412L135.101 12.0201L134.995 11.9989L134.974 12.1047C134.974 12.1047 134.953 12.2316 134.826 12.3585L134.72 12.422L134.466 12.5277L134.36 12.5489C134.255 12.5701 134.128 12.5701 133.98 12.5701H133.916H133.853V12.5912L133.874 12.697V12.7181C133.874 12.8027 133.853 13.2047 133.049 13.5854C132.943 13.6066 132.16 13.7758 131.484 14.0297C131.272 14.1143 131.082 14.1777 130.891 14.2623L130.912 14.2412L130.934 14.22L131.187 13.945C131.653 13.4585 132.245 12.972 132.266 12.972L132.287 12.9508C132.753 12.3797 132.753 11.9777 132.71 11.7874C133.26 11.4912 133.324 11.1316 133.324 10.9412C133.557 10.8355 133.726 10.7085 133.853 10.5605H133.874C133.937 10.5605 134.001 10.5816 134.064 10.7085L134.149 10.8778L134.255 10.7297C134.487 10.3912 134.953 9.86238 135.185 9.86238C135.207 9.86238 135.27 9.86239 135.312 10.0316L135.355 10.222L135.482 10.0951C135.63 9.96815 136.074 9.60854 136.391 9.60854C136.497 9.672 136.582 9.73546 136.645 9.88354ZM135.841 17.795L135.778 17.6892L135.672 17.7739C135.672 17.7739 135.608 17.8162 135.503 17.8162C135.397 17.8162 135.228 17.7739 135.016 17.5623L134.91 17.4566C134.805 17.3296 134.678 17.1815 134.572 16.97L134.487 16.8219L134.445 16.9066L134.403 16.97C134.382 16.97 134.297 17.1181 134.064 17.1181C133.81 17.1181 133.493 16.9912 133.134 16.7162C133.028 16.5893 132.16 15.6373 131.42 15.0027C131.314 14.897 131.209 14.8335 131.103 14.7489L130.891 14.622H130.912L131.082 14.6431C132.034 14.7489 133.514 15.3412 133.535 15.3412H133.557C133.705 15.3623 133.853 15.3623 134.001 15.3623C134.678 15.3623 134.974 15.1085 135.101 14.9393C135.418 15.1296 135.693 15.2354 135.989 15.2354H136.032L135.989 15.4046L135.947 15.5527H136.095C136.412 15.5527 137.258 15.6373 137.449 15.9758C137.512 16.0816 137.491 16.2085 137.428 16.3566L137.364 16.4835L137.491 16.5258C137.491 16.5258 138.337 16.7796 138.591 17.3085C138.676 17.4777 138.697 17.6469 138.633 17.8373L138.612 17.9219L138.676 17.9642C138.697 17.9854 139.332 18.4296 139.078 19.445V19.4873L139.099 19.5296C139.099 19.5508 139.86 20.6507 139.437 21.2219C139.12 21.1161 138.443 20.7777 138.274 20.3758V20.3546L138.253 20.3334C138.253 20.3334 137.66 19.7623 137.174 18.8104L137.132 18.7258L137.047 18.7469H136.983C136.793 18.7892 136.264 18.6835 135.841 17.795ZM127.168 31.9891H130.13L129.495 29.2603L129.982 28.7738L129.347 26.2988L129.834 26.0661L129.178 23.3796L129.77 22.9565L129.241 20.6507L129.834 20.3334L129.474 18.2815L129.96 17.9642L129.876 15.7643C129.897 15.6796 130.109 15.045 130.574 14.6643C131.082 15.0873 131.272 15.7643 131.272 15.7643L131.187 17.9642L131.674 18.2815L131.314 20.3334L131.907 20.6507L131.399 22.9565L131.991 23.3796L131.357 26.0661L131.843 26.2988L131.209 28.7738L131.695 29.2603L131.145 31.968H134.085C134.085 31.968 134.466 32.1372 134.339 32.4122C134.212 32.7083 132.689 34.2102 132.562 34.1468C132.435 34.0833 132.435 33.491 132.351 33.3853C132.287 33.3218 131.653 33.9987 131.357 34.1468C131.357 34.1468 131.039 33.7872 130.595 33.5122C130.151 33.8083 129.664 34.1468 129.664 34.1468C129.368 33.9775 128.924 33.3218 128.882 33.3853C128.797 33.491 128.797 34.0622 128.67 34.1468C128.543 34.2314 127.02 32.7083 126.914 32.4122C126.787 32.1372 127.168 31.9891 127.168 31.9891ZM122.155 19.4661C121.922 18.4508 122.536 18.0065 122.557 17.9854L122.62 17.9431L122.599 17.8585C122.536 17.6681 122.557 17.4989 122.62 17.3296C122.874 16.8008 123.72 16.5469 123.72 16.5469L123.847 16.5046L123.784 16.3777C123.72 16.2296 123.699 16.1027 123.762 15.9969C123.953 15.6585 124.799 15.5739 125.116 15.5739H125.264L125.222 15.4258L125.201 15.2566H125.264C125.518 15.2566 125.814 15.1508 126.132 14.9604C126.237 15.1085 126.534 15.3835 127.232 15.3835C127.359 15.3835 127.507 15.3835 127.676 15.3623H127.697C127.718 15.3623 129.199 14.77 130.151 14.6643L130.32 14.6431H130.341L130.13 14.77L129.812 15.0239C129.051 15.6585 128.184 16.6104 128.078 16.7373C127.718 16.9912 127.401 17.1392 127.147 17.1392C126.893 17.1392 126.809 16.9912 126.809 16.9912L126.766 16.9277L126.703 16.8431L126.618 16.9912C126.491 17.2027 126.385 17.3719 126.259 17.4777L126.174 17.5835C125.962 17.795 125.793 17.8373 125.687 17.8373L125.518 17.795L125.412 17.7104L125.349 17.8373C124.926 18.7469 124.397 18.8315 124.207 18.8315H124.143L124.059 18.8104L124.037 18.895C123.551 19.8469 122.959 20.3969 122.959 20.4181L122.937 20.4392L122.916 20.4604C122.768 20.8623 122.091 21.2007 121.774 21.3065C121.351 20.7565 122.112 19.6354 122.112 19.6142L122.134 19.5719L122.155 19.4661ZM125.539 21.4757C125.011 21.0315 125.328 20.5027 125.328 20.4815L125.391 20.3758L125.286 20.3123L125.137 20.0584C125.116 19.72 125.561 19.2123 125.73 19.0642L125.857 18.9373L125.709 18.8527L125.582 18.7046C125.582 18.4719 126.132 18.0277 126.512 17.795L126.682 17.6892L126.534 17.5835L126.491 17.5412C126.597 17.4354 126.682 17.3085 126.766 17.1604C126.851 17.2239 126.978 17.2873 127.189 17.2873C127.485 17.2873 127.845 17.1392 128.247 16.8431L128.268 16.8219C128.289 16.8008 129.326 15.6373 130.151 14.9816C129.749 15.7219 129.368 16.8219 129.305 16.97C128.776 17.8585 128.374 17.7104 128.374 17.7104L128.247 17.6681L128.226 17.8162C128.12 18.7681 127.655 18.7892 127.634 18.7892H127.528V18.895C127.507 19.7834 126.935 20.0373 126.914 20.0373L126.851 20.0584V20.1431C126.809 20.9046 126.534 21.518 126.534 21.518V21.5604V21.5815C126.555 21.8565 126.195 22.343 125.92 22.618L125.687 22.4488C125.476 22.1315 125.603 21.518 125.603 21.518V21.4334L125.539 21.4757ZM135.905 20.4815C135.926 20.5027 136.243 21.0315 135.693 21.4757L135.651 21.518L135.672 21.6027C135.693 21.7719 135.757 22.2796 135.587 22.5334L135.355 22.7027C135.08 22.4277 134.72 21.9411 134.741 21.6661V21.645L134.72 21.6027C134.72 21.6027 134.466 20.9892 134.424 20.2277L134.403 20.1431L134.339 20.1219C134.318 20.1008 133.747 19.8681 133.726 18.9796V18.8738H133.62C133.599 18.8738 133.134 18.8527 133.028 17.9008L133.007 17.7739L132.88 17.8162C132.88 17.8162 132.478 17.9431 131.949 17.0758C131.907 16.9277 131.526 15.8277 131.103 15.0873C131.907 15.7219 132.964 16.9066 132.985 16.9277L133.007 16.9489C133.409 17.245 133.768 17.3931 134.064 17.3931C134.255 17.3931 134.403 17.3296 134.487 17.2662C134.593 17.4142 134.678 17.5412 134.762 17.6469L134.72 17.6892L134.572 17.795L134.72 17.9008C135.122 18.1335 135.672 18.5777 135.651 18.8104L135.524 18.9585L135.376 19.0431L135.503 19.17C135.672 19.3392 136.116 19.8258 136.095 20.1642L135.947 20.4181L135.862 20.4815H135.905ZM139.374 13.67L139.353 13.7758L139.458 13.797C139.48 13.797 140.178 13.8816 140.135 14.77V14.8546L140.199 14.897C140.199 14.897 140.812 15.2566 140.897 15.7008C140.939 15.8277 140.918 15.9546 140.855 16.0816C140.77 16.0816 140.58 16.1027 140.347 16.1027C139.924 16.1027 139.628 16.0392 139.501 15.8912L139.48 15.87H139.458C139.458 15.87 138.739 15.6585 138.083 15.1296L138.02 15.0873L137.957 15.1296C137.957 15.1296 137.766 15.2354 137.449 15.2354C137.132 15.2354 136.814 15.1085 136.518 14.8546L136.433 14.7912L136.37 14.8758C136.37 14.8758 136.307 14.9604 136.18 15.0027L136.074 15.0239L135.968 15.045H135.947C135.714 15.045 135.418 14.9393 135.122 14.7066L135.016 14.6431L134.953 14.77C134.953 14.77 134.783 15.1508 134.001 15.1508C133.874 15.1508 133.747 15.1296 133.599 15.1296C133.472 15.0873 132.435 14.6854 131.568 14.495L131.272 14.4527L131.293 14.4316C131.568 14.3258 131.885 14.22 132.182 14.1354C132.668 14.0085 133.07 13.9027 133.07 13.9027H133.091C133.853 13.5431 134.022 13.12 134.064 12.8874C134.382 12.8874 134.614 12.8027 134.783 12.7181L134.826 12.697C134.847 12.697 135.376 12.4854 135.799 12.4854C135.989 12.4854 136.116 12.5277 136.18 12.5912C136.222 12.6547 136.243 12.7393 136.222 12.845L136.201 13.0354L136.37 12.972C136.37 12.972 137.089 12.6758 137.555 12.6758C137.703 12.6758 137.808 12.7181 137.851 12.7816C137.872 12.8239 137.893 12.9085 137.851 13.0143L137.808 13.1835L137.978 13.1624C137.978 13.1624 138.189 13.1201 138.464 13.1201C138.866 13.1201 139.162 13.2047 139.289 13.3739C139.353 13.4162 139.374 13.522 139.374 13.67ZM156.741 0.575928C149.951 1.95092 140.474 2.75476 130.616 2.75476C120.759 2.75476 111.282 1.97207 104.491 0.575928C105.866 7.36625 106.67 16.8431 106.67 26.7007C106.67 36.5795 105.888 46.0563 104.491 52.8466C111.282 51.4716 120.759 50.6678 130.616 50.6678C140.474 50.6678 149.951 51.4505 156.741 52.8466C155.366 46.0774 154.562 36.5795 154.562 26.7007C154.562 16.8431 155.366 7.36625 156.741 0.575928Z" fill="#00524D"/>
<path d="M4.92129 23.8447C4.90013 23.2947 4.32899 22.6813 3.20784 21.9832C2.84823 22.4063 2.44631 22.9351 2.00208 23.612C1.91747 23.7813 1.89632 23.9505 1.89632 24.0986C1.89632 24.6063 2.19246 24.8601 2.80592 24.8601C3.35592 24.8601 3.92707 24.7332 4.56168 24.4793C4.81552 24.3101 4.94244 24.0774 4.92129 23.8447ZM5.59821 17.4352L4.85783 18.6621L3.10207 17.6044L2.57323 18.5986L0.71171 17.5198L1.47324 16.2083L3.16554 17.2871L3.75784 16.314L5.59821 17.4352ZM6.12705 22.8928C6.12705 23.2736 5.91551 23.887 5.49244 24.7755C5.19629 25.1774 4.90013 25.4947 4.60398 25.7062C4.05399 26.1505 3.37707 26.4043 2.59438 26.5101C2.10785 26.5735 1.66363 26.5101 1.26171 26.3409C0.796326 26.1293 0.54248 25.7909 0.54248 25.3255C0.54248 24.6063 1.11363 23.5063 2.23477 22.0255L3.69438 20.1217C3.86361 20.3332 4.15975 20.5871 4.60398 20.9255C5.09052 21.264 5.38667 21.4967 5.51359 21.6236C5.93666 21.9409 6.12705 22.3851 6.12705 22.8928Z" fill="#00524D"/>
<path d="M13.2559 25.6853C13.2559 26.8065 12.8116 28.0122 11.902 29.2815C11.077 30.4661 10.2309 31.0372 9.3213 31.0372C8.87707 31.0372 8.13669 30.8468 7.07901 30.4449C5.95787 30.0218 5.38672 29.6622 5.38672 29.3661L5.51364 29.2391C5.55595 29.2391 5.8944 29.3661 6.50786 29.6199C7.12132 29.8738 7.60785 30.0007 7.98862 30.0007C8.81361 30.0007 9.78668 29.4507 10.929 28.3295C12.0713 27.2295 12.6424 26.2565 12.6424 25.4526C12.6424 24.8603 11.9444 24.0777 10.5482 23.0623C10.6328 22.7238 10.7597 22.0892 10.9713 21.1584C11.7117 21.7296 12.2405 22.2796 12.5367 22.7661C13.0232 23.5488 13.2559 24.5219 13.2559 25.6853Z" fill="#00524D"/>
<path d="M19.1789 26.489H16.1328C15.9212 22.7025 15.6674 19.0852 15.3501 15.6583C15.5828 15.3622 15.9212 14.8968 16.3866 14.2622L16.8943 20.2064C17.1482 22.8717 17.3174 24.3102 17.402 24.5006L17.5501 24.6487C17.6982 24.8179 17.9732 24.9025 18.3962 24.9025H19.2001V26.489H19.1789Z" fill="#00524D"/>
<path d="M21.6962 24.9026H18.6289V26.4891H21.6962V24.9026Z" fill="#00524D"/>
<path d="M24.3826 24.9026H21.2942V26.4891H24.3826V24.9026Z" fill="#00524D"/>
<path d="M31.998 29.5563L31.2365 30.8256L29.5231 29.7467L30.2846 28.5198L31.998 29.5563ZM36.9057 26.4891H32.6326C32.273 26.4891 31.998 26.1929 31.85 25.6218C31.8077 25.4314 31.723 25.0083 31.6384 24.3314C31.448 24.5218 31.1307 24.7545 30.6865 25.0506C30.2211 25.3468 29.9038 25.5794 29.7134 25.7487C29.2269 26.2141 28.6134 26.4679 27.8731 26.4679H24.002V24.8814H27.9154C29.0577 24.8814 30.348 24.3102 31.7653 23.1679C31.1519 23.041 30.2423 22.8506 29.0577 22.5968L28.1904 22.4064C27.7461 22.4064 27.1538 22.6814 26.4346 23.2314L26.4135 23.1679C26.4135 22.9776 26.4769 22.766 26.5827 22.4699C27.0904 21.2853 27.7885 20.7141 28.7192 20.7141C29.2481 20.7141 30.0942 20.8833 31.2365 21.2218C32.9711 21.7295 34.2403 21.9833 35.023 21.9833H35.5519C36.0595 21.9622 36.2499 21.9622 36.1018 21.9622C35.9749 22.3218 35.7422 22.8718 35.4249 23.591C35.2769 23.5699 35.1076 23.5699 34.8749 23.5699C33.7749 23.5699 32.9288 23.7179 32.3153 24.0141C32.3153 24.3314 32.4423 24.5852 32.7173 24.7756L32.8865 24.8814H36.9057V26.4891Z" fill="#00524D"/>
<path d="M41.9189 18.0488L41.1574 19.2968L39.4016 18.2392L38.8516 19.2122L37.0536 18.1545L37.8151 16.843L39.5286 17.9219L40.1209 16.9488L41.9189 18.0488ZM42.5324 26.4891H41.6439C41.4324 26.4891 41.2209 26.4256 41.0093 26.2776C40.9247 26.2141 40.8401 26.0872 40.7343 25.8756C40.6286 25.6641 40.5651 25.5583 40.5228 25.5372C40.4593 25.5372 40.3536 25.6853 40.1632 26.0237C39.9728 26.341 39.8459 26.4891 39.7401 26.4891H36.5459V24.9026H40.6709L40.7132 22.8295C41.0516 22.343 41.5382 21.7718 42.1516 21.0949L42.1728 21.2853C42.1728 21.9622 42.0458 22.9564 41.8132 24.2468C41.7709 24.5429 41.7497 24.691 41.7497 24.7122C41.7709 24.8391 41.8766 24.9026 42.067 24.9026H42.5535V26.4891H42.5324Z" fill="#00524D"/>
<path d="M47.5459 16.4621L46.6363 18.239L46.4036 18.1755L46.9324 23.464C46.9324 23.8659 46.8689 24.4582 46.7209 25.2197C46.5728 26.0447 46.4036 26.4678 46.2555 26.4678H42.1094V24.8812H46.0016C46.044 24.8812 46.0651 24.7543 46.0651 24.5005C46.0651 23.4428 45.7478 21.0736 45.1343 17.414L45.0286 17.3717C44.8382 17.2448 44.7324 17.0967 44.7324 16.9063C44.7324 16.7794 44.7747 16.6525 44.8382 16.5256L45.6632 15.0871C45.8113 14.8121 45.9382 14.7063 46.0016 14.7698L46.1497 14.9179L46.0651 15.1929L45.9805 15.4467C45.9805 15.5313 46.044 15.6159 46.1709 15.7006C46.6363 15.9967 47.1016 16.2294 47.5459 16.4621Z" fill="#00524D"/>
<path d="M51.5227 24.3948C51.5227 24.9448 51.2688 25.8544 50.7823 27.1025C50.5496 24.3102 50.2112 20.9468 49.7881 16.991C49.7458 16.5468 50.1265 15.6372 50.9727 14.2622C51.0361 14.368 51.1419 16.0603 51.3111 19.3602L51.5227 24.3948Z" fill="#00524D"/>
<path d="M62.7765 23.8447C62.7342 23.2947 62.1631 22.6813 61.0631 21.9832C60.7034 22.4063 60.3015 22.9351 59.8573 23.612C59.7727 23.7813 59.7515 23.9505 59.7515 24.0986C59.7515 24.6063 60.0477 24.8601 60.6611 24.8601C61.2111 24.8601 61.7823 24.7332 62.4169 24.4793C62.6496 24.3101 62.7765 24.0774 62.7765 23.8447ZM63.4323 17.4352L62.6919 18.6621L60.9361 17.6044L60.4073 18.5986L58.5458 17.5198L59.3073 16.2083L60.9996 17.2871L61.5919 16.314L63.4323 17.4352ZM63.9611 22.8928C63.9611 23.2736 63.7496 23.887 63.3477 24.7755C63.0515 25.1774 62.7554 25.4947 62.4592 25.7062C61.9092 26.1505 61.2323 26.4043 60.4496 26.5101C59.9631 26.5735 59.5188 26.5101 59.1169 26.3409C58.6515 26.1293 58.3977 25.7909 58.3977 25.3255C58.3977 24.6063 58.9689 23.5063 60.09 22.0255L61.5496 20.1217C61.7188 20.3332 62.0361 20.5871 62.4592 20.9255C62.9457 21.264 63.2419 21.4967 63.3688 21.6236C63.7707 21.9409 63.9611 22.3851 63.9611 22.8928Z" fill="#00524D"/>
<path d="M71.1111 25.6853C71.1111 26.8065 70.6669 28.0122 69.7573 29.2815C68.9323 30.4661 68.0861 31.0372 67.1765 31.0372C66.7323 31.0372 65.9919 30.8468 64.9342 30.4449C63.8131 30.0218 63.2419 29.6622 63.2419 29.3661L63.3689 29.2391C63.4112 29.2391 63.7496 29.3661 64.3631 29.6199C64.9765 29.8738 65.4631 30.0007 65.8438 30.0007C66.6688 30.0007 67.6419 29.4507 68.7842 28.3295C69.9265 27.2295 70.4976 26.2565 70.4976 25.4526C70.4976 24.8603 69.7996 24.0777 68.4034 23.0623C68.488 22.7238 68.615 22.0892 68.8265 21.1584C69.5669 21.7296 70.0957 22.2796 70.3919 22.7661C70.8784 23.5488 71.1111 24.5219 71.1111 25.6853Z" fill="#00524D"/>
<path d="M75.2148 24.3948C75.2148 24.9448 74.961 25.8544 74.4744 27.1025C74.2418 24.3102 73.9033 20.9468 73.4802 16.991C73.4379 16.5468 73.8187 15.6372 74.6648 14.2622C74.7283 14.368 74.8341 16.0603 75.0033 19.3602L75.2148 24.3948Z" fill="#00524D"/>
<path d="M81.3706 17.816L80.6091 19.1064L78.811 18.0275L79.5937 16.7583L81.3706 17.816ZM83.3379 25.6851C83.3379 26.8063 82.8937 28.012 81.9841 29.2813C81.1591 30.4659 80.3129 31.037 79.4033 31.037C78.9591 31.037 78.2187 30.8466 77.161 30.4447C76.0399 30.0216 75.4688 29.662 75.4688 29.3659L75.5957 29.239C75.638 29.239 75.9764 29.3659 76.5899 29.6197C77.2034 29.8736 77.6899 30.0005 78.0707 30.0005C78.8956 30.0005 79.8687 29.4505 81.011 28.3294C82.1533 27.2294 82.7245 26.2563 82.7245 25.4525C82.7245 24.8602 82.0264 24.0775 80.6302 23.0621C80.7149 22.7236 80.8418 22.089 81.0533 21.1583C81.7937 21.7294 82.3225 22.2794 82.6187 22.7659C83.1052 23.5486 83.3379 24.5217 83.3379 25.6851Z" fill="#00524D"/>
<path d="M89.7264 24.0775C89.7264 23.739 89.6206 23.3794 89.4091 22.9986C89.1553 22.5756 88.8803 22.364 88.563 22.3429C88.3303 22.3217 88.0553 22.491 87.7591 22.8083C87.4418 23.1256 87.2937 23.4006 87.3149 23.6333C87.3361 23.8871 87.5264 24.0775 87.886 24.2256C88.1822 24.3313 88.4572 24.3948 88.7533 24.3948C89.261 24.3736 89.5783 24.289 89.7264 24.0775ZM90.8899 24.2679C90.8899 25.7486 90.5726 27.1236 89.9591 28.414C89.6418 29.0697 89.2187 29.662 88.711 30.1909C88.0553 30.8255 87.4418 31.1216 86.8284 31.0793C86.2995 31.037 85.5591 30.9101 84.6284 30.7197C83.4438 30.4659 82.8303 30.2332 82.8303 30.0217C82.8303 29.9159 82.9149 29.8524 83.063 29.8524C83.2745 29.8524 83.6342 29.9159 84.0995 30.0217C84.5649 30.1486 84.9245 30.1909 85.1572 30.1909C85.4111 30.1909 85.6438 30.1486 85.8553 30.0851C86.8495 29.7044 87.8226 29.0697 88.7745 28.1601C89.7899 27.1871 90.2764 26.2775 90.2553 25.4525C90.2553 25.0506 90.2129 24.7332 90.1283 24.4794C89.7899 25.2409 89.4514 25.7063 89.0707 25.9179C88.838 26.0448 88.4572 26.0871 87.9707 26.0448C87.5476 26.0025 87.2303 25.7486 86.9976 25.3044C86.8284 24.9448 86.7226 24.5217 86.7226 24.0563C86.7226 23.5486 86.9976 22.8294 87.5476 21.9198C88.161 20.9467 88.6899 20.4602 89.1341 20.4602C89.4514 20.4602 89.811 20.8621 90.2341 21.6871C90.6572 22.5121 90.8899 23.3794 90.8899 24.2679Z" fill="#00524D"/>
<path d="M1.93857 34.2524L3.86355 39.3293L5.80969 34.2524H7.10006V41.0005H5.97891V36.3467L4.20201 41.0005H3.46163L1.76934 36.3467V41.0005H0.648193V34.2524H1.93857Z" fill="#00524D"/>
<path d="M7.98853 41.0005H9.08852V36.1351H7.98853V41.0005ZM7.98853 35.2255H9.08852V34.2524H7.98853V35.2255Z" fill="#00524D"/>
<path d="M9.87134 36.1352H10.9925V36.5371C11.204 36.3679 11.4367 36.2621 11.6906 36.1775C11.9444 36.0929 12.1771 36.0505 12.4521 36.0505C12.7059 36.0505 12.9386 36.0928 13.1502 36.1563C13.3405 36.2198 13.5098 36.3255 13.6578 36.4525C13.8059 36.5794 13.9117 36.7275 13.9751 36.9178C14.0598 37.1082 14.0809 37.2986 14.0809 37.5313V41.0005H12.9809V37.6159C12.9809 37.3198 12.9175 37.1082 12.8117 37.0025C12.7059 36.8755 12.5367 36.8121 12.3252 36.8121C12.1348 36.8121 11.9655 36.8544 11.8175 36.9178C11.6694 37.0025 11.5213 37.0871 11.3944 37.214C11.2675 37.3198 11.1829 37.4678 11.1194 37.6159C11.0559 37.764 11.0136 37.9332 11.0136 38.0813V41.0005H9.89249V36.1352H9.87134Z" fill="#00524D"/>
<path d="M14.927 41.0005H16.027V36.1351H14.927V41.0005ZM14.927 35.2255H16.027V34.2524H14.927V35.2255Z" fill="#00524D"/>
<path d="M17.952 39.3929C17.952 39.5621 17.9732 39.7102 18.0366 39.816C18.0789 39.9429 18.1424 40.0275 18.227 40.1121L18.502 40.2813C18.6078 40.3237 18.7136 40.3237 18.8405 40.3237C18.9462 40.3237 19.052 40.3025 19.1578 40.3025C19.2636 40.2814 19.3693 40.239 19.4751 40.1967L19.7078 40.0064C19.7712 39.9217 19.7924 39.816 19.7924 39.689C19.7924 39.5833 19.7712 39.4775 19.7078 39.3929L19.4751 39.1814C19.3905 39.1179 19.2636 39.0756 19.1366 39.0121C19.0097 38.9698 18.8828 38.9064 18.7347 38.8641C18.5232 38.7794 18.3116 38.716 18.1001 38.6314C17.8886 38.5468 17.7193 38.4621 17.5501 38.3352C17.3809 38.2295 17.254 38.0814 17.1482 37.9333C17.0424 37.7641 17.0001 37.5948 17.0001 37.3621C17.0001 37.1506 17.0424 36.9602 17.1482 36.791C17.254 36.6218 17.3809 36.4949 17.5501 36.3891C17.7193 36.2833 17.9097 36.1987 18.1424 36.1564C18.3539 36.0929 18.5866 36.0718 18.8405 36.0718C19.1155 36.0718 19.3693 36.0929 19.602 36.1564C19.8347 36.2198 20.0462 36.3045 20.2155 36.4102C20.3847 36.516 20.5328 36.6852 20.6385 36.8545C20.7443 37.0448 20.7866 37.2564 20.8078 37.5102H20.702H20.5751H20.4482H20.3635H19.6655C19.6443 37.3833 19.6232 37.2775 19.5597 37.1929L19.3693 36.9814L19.1155 36.8756L18.8193 36.8545C18.5866 36.8545 18.4174 36.8968 18.2905 37.0025C18.1636 37.1083 18.1001 37.2352 18.1001 37.3833L18.1847 37.6583L18.4174 37.8698C18.5232 37.9333 18.6289 37.9968 18.7559 38.0391C18.8828 38.0814 19.0097 38.1448 19.1578 38.1871C19.3693 38.2718 19.5597 38.3352 19.7712 38.4198C19.9828 38.5044 20.1732 38.6102 20.3424 38.716C20.5116 38.8218 20.6385 38.9487 20.7443 39.0967C20.8501 39.2448 20.8924 39.4141 20.8924 39.6044C20.8924 39.8794 20.8289 40.1121 20.7232 40.3025C20.6174 40.4929 20.4482 40.641 20.2578 40.7679C20.0674 40.8948 19.8559 40.9794 19.602 41.0429C19.3482 41.1063 19.0943 41.1275 18.8193 41.1275C18.5443 41.1275 18.2905 41.0852 18.0578 41.0217C17.8251 40.9583 17.6136 40.8313 17.4232 40.7044C17.2328 40.5563 17.1059 40.3871 16.979 40.1756C16.8732 39.964 16.8097 39.7102 16.7886 39.4352H17.952V39.3929Z" fill="#00524D"/>
<path d="M23.1345 34.739V36.1351H23.8537V36.8967H23.1345V39.8582C23.1345 40.0486 23.1556 40.1543 23.2191 40.2178L23.4518 40.3236L23.621 40.3024C23.7056 40.3024 23.8114 40.2813 23.9806 40.239V40.9793C23.8537 41.0216 23.7056 41.0428 23.5575 41.0639C23.4095 41.0851 23.2825 41.0851 23.1768 41.0851C23.0287 41.0851 22.8806 41.0639 22.7326 41.0216C22.5845 40.9793 22.4576 40.937 22.3518 40.8524C22.246 40.7678 22.1614 40.662 22.0979 40.5563C22.0345 40.4293 22.0133 40.2813 22.0133 40.0909V36.8755H21.2729V36.1351H22.0133V34.739H23.1345Z" fill="#00524D"/>
<path d="M24.6152 36.1352H25.6095L25.6729 36.5795C25.7998 36.4102 25.9691 36.2833 26.1383 36.1987C26.3287 36.1141 26.5191 36.0718 26.7094 36.0718L26.9421 36.0929L27.2383 36.1775V37.0872C26.9421 36.9814 26.7518 36.9179 26.6883 36.9179C26.5402 36.9179 26.4133 36.9391 26.2864 37.0237C26.1595 37.0872 26.0748 37.1718 25.9902 37.2775C25.9056 37.3833 25.8421 37.5102 25.7998 37.6583C25.7575 37.8064 25.7364 37.9544 25.7364 38.1025V41.0006H24.6364V36.1352H24.6152Z" fill="#00524D"/>
<path d="M29.6711 39.4561L30.8134 36.135H31.9557L29.9037 41.9946C29.8403 42.185 29.7557 42.3542 29.6499 42.4811C29.5653 42.608 29.4384 42.7138 29.3326 42.7984C29.2268 42.883 29.0999 42.9465 28.973 42.9888C28.8461 43.0311 28.7403 43.0523 28.6134 43.0523C28.5076 43.0523 28.4018 43.0523 28.2961 43.0311C28.1903 43.0099 28.0634 42.9676 27.8941 42.9253V42.1003L28.0634 42.1638L28.2326 42.2273L28.4018 42.2696L28.5076 42.2907L28.6345 42.2273L28.7403 42.058L28.8249 41.8465L28.8884 41.6561L29.0999 41.0004L27.323 36.1562H28.5076L29.6711 39.4561Z" fill="#00524D"/>
<path d="M35.4459 38.5678C35.4459 38.8217 35.4671 39.0332 35.5306 39.2447C35.594 39.4563 35.6575 39.6467 35.7844 39.7947C35.8902 39.964 36.0171 40.0697 36.1652 40.1755C36.3132 40.2601 36.4825 40.3024 36.6728 40.3024C36.8632 40.3024 37.0325 40.2601 37.1805 40.1755C37.3286 40.0909 37.4767 39.964 37.5613 39.7947C37.6671 39.6467 37.7517 39.4563 37.8151 39.2447C37.8786 39.0332 37.8998 38.8217 37.8998 38.5678C37.8998 38.3351 37.8786 38.1024 37.8151 37.8909C37.7517 37.6794 37.6671 37.489 37.5613 37.3409C37.4555 37.1717 37.3286 37.0448 37.1805 36.9602C37.0325 36.8755 36.8632 36.8121 36.6728 36.8121C36.4825 36.8121 36.3132 36.8544 36.1652 36.9602C36.0171 37.0448 35.8902 37.1717 35.7844 37.3409C35.6786 37.489 35.594 37.6794 35.5306 37.8909C35.4882 38.1024 35.4459 38.3351 35.4459 38.5678ZM34.3459 38.5678C34.3459 38.2294 34.3883 37.8909 34.494 37.5948C34.5998 37.2986 34.7479 37.0236 34.9382 36.7909C35.1286 36.5582 35.3825 36.389 35.6575 36.2621C35.9536 36.1352 36.2921 36.0505 36.6517 36.0505C37.0325 36.0505 37.3709 36.114 37.6459 36.2621C37.9421 36.389 38.1959 36.5794 38.3863 36.7909C38.5767 37.0236 38.7459 37.2986 38.8517 37.5948C38.9574 37.8909 38.9998 38.2294 38.9998 38.5678C38.9998 38.9063 38.9574 39.2447 38.8517 39.5409C38.7459 39.837 38.5978 40.112 38.3863 40.3447C38.1748 40.5774 37.9421 40.7467 37.6459 40.8736C37.3498 41.0005 37.0113 41.0851 36.6517 41.0851C36.2709 41.0851 35.9325 41.0217 35.6575 40.8736C35.3613 40.7467 35.1286 40.5563 34.9382 40.3447C34.7267 40.112 34.5786 39.8582 34.494 39.5409C34.4094 39.2447 34.3459 38.9274 34.3459 38.5678Z" fill="#00524D"/>
<path d="M40.3324 36.1351V35.0562C40.3324 34.9082 40.3536 34.7812 40.417 34.6755C40.4805 34.5485 40.5439 34.4428 40.6497 34.3582C40.7555 34.2735 40.8824 34.1889 41.0305 34.1466C41.1786 34.0832 41.3478 34.062 41.5382 34.062C41.6439 34.062 41.7708 34.0832 41.9189 34.1255C42.067 34.1678 42.1939 34.2312 42.342 34.3159V35.0562C42.1728 34.9928 42.0458 34.9505 41.9401 34.9082L41.7709 34.8447L41.5382 34.9293C41.4747 34.9716 41.4324 35.0774 41.4324 35.2043V36.1562H42.2574V36.9389H41.4324V41.0004H40.3113V36.9178H39.5286V36.1351H40.3324Z" fill="#00524D"/>
<path d="M46.0864 37.5314C46.0864 38.0179 46.1499 38.441 46.2556 38.8006C46.3826 39.1602 46.5306 39.4564 46.721 39.689C46.9114 39.9217 47.1229 40.091 47.3768 40.2179C47.6095 40.3237 47.8633 40.3871 48.1172 40.3871C48.371 40.3871 48.6037 40.3448 48.8152 40.239C49.0268 40.1333 49.196 40.0064 49.3652 39.8371C49.5345 39.6679 49.6614 39.4775 49.7671 39.2448C49.8729 39.0333 49.9364 38.8006 49.9998 38.5679H51.121C51.0575 38.9275 50.9306 39.266 50.7825 39.5833C50.6133 39.9006 50.4229 40.1756 50.1691 40.4083C49.9152 40.641 49.6191 40.8313 49.2806 40.9583C48.9422 41.0852 48.5614 41.1698 48.1383 41.1698C47.6518 41.1698 47.2287 41.0852 46.8479 40.916C46.4672 40.7467 46.1287 40.514 45.8537 40.1967C45.5787 39.8794 45.3672 39.4987 45.2191 39.0544C45.071 38.6102 45.0076 38.0814 45.0076 37.5102C45.0076 37.2141 45.0287 36.9179 45.0922 36.6429C45.1556 36.3468 45.2614 36.0929 45.3672 35.8179C45.4941 35.5641 45.6422 35.3314 45.8114 35.1199C46.0018 34.9083 46.1922 34.7179 46.4249 34.5487C46.6576 34.4006 46.9114 34.2737 47.2075 34.1679C47.5037 34.0833 47.7999 34.041 48.1383 34.041C48.5614 34.041 48.9422 34.1045 49.2806 34.2103C49.6191 34.316 49.8941 34.4852 50.1479 34.6756C50.4018 34.866 50.6133 35.1199 50.7614 35.3737C50.9306 35.6487 51.0575 35.9448 51.1421 36.2621H49.9998C49.8306 35.7756 49.5979 35.3949 49.2806 35.1622C48.9845 34.9295 48.6037 34.8026 48.1383 34.8026C47.8422 34.8026 47.5672 34.866 47.3133 35.0141C47.0595 35.1622 46.8479 35.3525 46.6787 35.6064C46.4883 35.8602 46.3614 36.1352 46.2556 36.4737C46.1499 36.8333 46.0864 37.1718 46.0864 37.5314Z" fill="#00524D"/>
<path d="M52.9401 38.5678C52.9401 38.8217 52.9612 39.0332 53.0247 39.2447C53.0881 39.4563 53.1728 39.6467 53.2785 39.7947C53.3843 39.964 53.5112 40.0697 53.6593 40.1755C53.8074 40.2601 53.9766 40.3024 54.167 40.3024C54.3574 40.3024 54.5266 40.2601 54.6747 40.1755C54.8228 40.0909 54.9708 39.964 55.0554 39.7947C55.1612 39.6467 55.2458 39.4563 55.3093 39.2447C55.3727 39.0332 55.3939 38.8217 55.3939 38.5678C55.3939 38.3351 55.3727 38.1024 55.3093 37.8909C55.2458 37.6794 55.1612 37.489 55.0554 37.3409C54.9497 37.1717 54.8228 37.0448 54.6747 36.9602C54.5266 36.8755 54.3574 36.8121 54.167 36.8121C53.9766 36.8121 53.8074 36.8544 53.6593 36.9602C53.5112 37.0448 53.3843 37.1717 53.2785 37.3409C53.1728 37.489 53.0881 37.6794 53.0247 37.8909C52.9612 38.1024 52.9401 38.3351 52.9401 38.5678ZM51.8401 38.5678C51.8401 38.2294 51.8824 37.8909 51.9882 37.5948C52.0939 37.2986 52.242 37.0236 52.4324 36.7909C52.6228 36.5582 52.8766 36.389 53.1516 36.2621C53.4478 36.1352 53.7862 36.0505 54.1458 36.0505C54.5266 36.0505 54.8651 36.114 55.1612 36.2621C55.4574 36.389 55.69 36.5794 55.9016 36.7909C56.092 37.0236 56.2612 37.2986 56.367 37.5948C56.4727 37.8909 56.515 38.2294 56.515 38.5678C56.515 38.9063 56.4727 39.2447 56.367 39.5409C56.2612 39.837 56.1131 40.112 55.9016 40.3447C55.7112 40.5774 55.4574 40.7467 55.1612 40.8736C54.8651 41.0005 54.5266 41.0851 54.1458 41.0851C53.7651 41.0851 53.4266 41.0217 53.1516 40.8736C52.8555 40.7467 52.6228 40.5563 52.4324 40.3447C52.242 40.112 52.0728 39.8582 51.9882 39.5409C51.8824 39.2447 51.8401 38.9274 51.8401 38.5678Z" fill="#00524D"/>
<path d="M57.2766 36.1351H58.3766V36.4947C58.567 36.3255 58.7785 36.2197 59.0112 36.1562C59.2439 36.0928 59.4554 36.0504 59.6458 36.0504C59.8785 36.0504 60.1112 36.0928 60.3227 36.1985C60.5343 36.2831 60.7247 36.4524 60.8939 36.6851C60.9997 36.5793 61.1054 36.4735 61.2112 36.3889C61.3381 36.3043 61.465 36.2408 61.592 36.1774C61.7189 36.1351 61.867 36.0928 61.9939 36.0716C62.1208 36.0505 62.2689 36.0293 62.3958 36.0293C62.6496 36.0293 62.8612 36.0716 63.0727 36.1351C63.2842 36.2197 63.4535 36.3254 63.6016 36.4524C63.7496 36.5793 63.8554 36.7485 63.94 36.9389C64.0246 37.1293 64.0669 37.3197 64.0669 37.5312V41.0004H63.0093V37.7427C63.0093 37.5524 62.9881 37.4043 62.9458 37.2985C62.9035 37.1716 62.84 37.087 62.7766 37.0024L62.5439 36.8543L62.29 36.812C62.1631 36.812 62.0362 36.8331 61.9304 36.8966C61.8035 36.9601 61.6977 37.0447 61.6131 37.1504C61.5073 37.2562 61.4439 37.3831 61.3804 37.5312C61.317 37.6793 61.2958 37.8274 61.2958 37.9966V41.0004H60.1958V37.7427C60.1958 37.5524 60.1747 37.4043 60.1324 37.2985C60.09 37.1716 60.0477 37.087 59.9631 37.0024L59.7516 36.8543L59.5189 36.812C59.3708 36.812 59.2227 36.8543 59.0958 36.9389C58.9689 37.0235 58.842 37.1293 58.7574 37.2351C58.6516 37.362 58.567 37.4889 58.5247 37.637C58.4612 37.785 58.4401 37.9331 58.4401 38.06V41.0004H57.3401V36.1351H57.2766Z" fill="#00524D"/>
<path d="M64.9553 36.1351H66.0553V36.4947C66.2457 36.3255 66.4572 36.2197 66.6899 36.1562C66.9226 36.0928 67.1341 36.0504 67.3245 36.0504C67.5572 36.0504 67.7899 36.0928 68.0014 36.1985C68.213 36.2831 68.4034 36.4524 68.5726 36.6851C68.6572 36.5793 68.7841 36.4735 68.8899 36.3889C69.0168 36.3043 69.1437 36.2408 69.2707 36.1774C69.3976 36.1351 69.5457 36.0928 69.6726 36.0716C69.7995 36.0505 69.9476 36.0293 70.0745 36.0293C70.3283 36.0293 70.5399 36.0716 70.7514 36.1351C70.963 36.2197 71.1322 36.3254 71.2803 36.4524C71.4283 36.5793 71.5341 36.7485 71.6187 36.9389C71.7033 37.1293 71.7456 37.3197 71.7456 37.5312V41.0004H70.6457V37.7427C70.6457 37.5524 70.6245 37.4043 70.5822 37.2985C70.5399 37.1716 70.4764 37.087 70.413 37.0024L70.1803 36.8543L69.9264 36.812C69.7995 36.812 69.6726 36.8331 69.5668 36.8966C69.4399 36.9601 69.3341 37.0447 69.2495 37.1504C69.1437 37.2562 69.0803 37.3831 69.0168 37.5312C68.9534 37.6793 68.9322 37.8274 68.9322 37.9966V41.0004H67.8322V37.7427C67.8322 37.5524 67.8111 37.4043 67.7688 37.2985C67.7264 37.1716 67.663 37.087 67.5995 37.0024L67.388 36.8543L67.1553 36.812C67.0072 36.812 66.8592 36.8543 66.7322 36.9389C66.6053 37.0235 66.4784 37.1293 66.3938 37.2351C66.288 37.362 66.2034 37.4889 66.1611 37.637C66.0976 37.785 66.0765 37.9331 66.0765 38.06V41.0004H64.9765V36.1351H64.9553Z" fill="#00524D"/>
<path d="M76.1033 38.0813C76.0822 37.8909 76.061 37.7217 75.9975 37.5736C75.9341 37.4255 75.8495 37.2775 75.7437 37.1717C75.6379 37.0659 75.511 36.9601 75.3841 36.8967C75.236 36.8332 75.0879 36.7909 74.8976 36.7909C74.7283 36.7909 74.5802 36.8332 74.4533 36.8967C74.3264 36.9601 74.1995 37.0659 74.0937 37.1717C73.9879 37.2775 73.9033 37.4255 73.8399 37.5736C73.7764 37.7217 73.7341 37.8909 73.7341 38.0601H76.1033V38.0813ZM73.7341 38.7794C73.7341 38.9909 73.7764 39.1813 73.8399 39.3717C73.9033 39.562 73.9879 39.7313 74.0937 39.8582C74.1995 40.0063 74.3264 40.112 74.4745 40.1967C74.6226 40.2813 74.7706 40.3236 74.9399 40.3236C75.4898 40.3236 75.8918 40.0063 76.1033 39.3928H77.1398C77.0764 39.6678 76.9918 39.9005 76.8437 40.112C76.6956 40.3236 76.5475 40.4928 76.336 40.6409C76.1456 40.789 75.9129 40.8947 75.6802 40.9793C75.4475 41.064 75.1937 41.0851 74.9399 41.0851C74.5802 41.0851 74.2418 41.0217 73.9668 40.8736C73.6706 40.7255 73.4168 40.5563 73.2264 40.3024C73.036 40.0697 72.8668 39.7947 72.761 39.4774C72.6553 39.1601 72.5918 38.8428 72.5918 38.4832C72.5918 38.1659 72.6553 37.8486 72.761 37.5525C72.8668 37.2563 73.036 37.0025 73.2264 36.7698C73.4168 36.5371 73.6706 36.3678 73.9668 36.2409C74.2629 36.114 74.5802 36.0505 74.9399 36.0505C75.2995 36.0505 75.6168 36.114 75.8918 36.2409C76.1668 36.3467 76.4206 36.5159 76.611 36.7275C76.8014 36.939 76.9706 37.1928 77.0764 37.489C77.1821 37.7851 77.2456 38.0813 77.2456 38.4409V38.8005H73.7341V38.7794Z" fill="#00524D"/>
<path d="M77.9436 36.1352H78.9378L79.0013 36.5795C79.1282 36.4102 79.2974 36.2833 79.4667 36.1987C79.657 36.1141 79.8474 36.0718 80.0378 36.0718L80.2705 36.0929L80.5667 36.1775V37.0872C80.2705 36.9814 80.0801 36.9179 80.0167 36.9179C79.8686 36.9179 79.7417 36.9391 79.6147 37.0237C79.4878 37.0872 79.4032 37.1718 79.3186 37.2775C79.234 37.3833 79.1705 37.5102 79.1282 37.6583C79.0859 37.8064 79.0647 37.9544 79.0647 38.1025V41.0006H77.9648V36.1352H77.9436Z" fill="#00524D"/>
<path d="M84.3321 37.7427C84.2474 37.4043 84.1205 37.1716 83.9513 37.0447C83.7821 36.8966 83.5917 36.8331 83.3378 36.8331C83.1475 36.8331 82.9994 36.8754 82.8513 36.9601C82.7032 37.0447 82.5763 37.1716 82.4917 37.3197C82.3859 37.4677 82.3225 37.6581 82.259 37.8485C82.2167 38.06 82.1744 38.2504 82.1744 38.4831C82.1744 38.7158 82.1955 38.9485 82.259 39.16C82.3225 39.3716 82.3859 39.5831 82.4917 39.7523C82.5975 39.9216 82.7032 40.0485 82.8513 40.1543C82.9994 40.26 83.1475 40.3023 83.3378 40.3023C83.4648 40.3023 83.5917 40.2812 83.6974 40.2177L83.9936 39.9639C84.0782 39.8581 84.1417 39.7312 84.2051 39.6043C84.2686 39.4562 84.3109 39.3081 84.3321 39.16H85.4955C85.4532 39.4562 85.3897 39.7312 85.284 39.9639C85.1782 40.1966 85.009 40.4081 84.8398 40.5562C84.6494 40.7254 84.4378 40.8523 84.184 40.9369C83.9301 41.0216 83.6551 41.0639 83.3378 41.0639C82.9571 41.0639 82.6186 40.9793 82.3436 40.8312C82.0686 40.6831 81.8359 40.4716 81.6455 40.2389C81.4552 39.985 81.3282 39.71 81.2436 39.3927C81.159 39.0754 81.1167 38.7793 81.1167 38.462C81.1167 38.1235 81.1802 37.8062 81.2859 37.5101C81.3917 37.2139 81.5398 36.9601 81.7513 36.7274C81.9417 36.5158 82.1955 36.3466 82.4705 36.2197C82.7455 36.0928 83.0628 36.0293 83.4013 36.0293C83.6975 36.0293 83.9724 36.0716 84.2263 36.1562C84.459 36.2408 84.6705 36.3466 84.8398 36.5158C85.009 36.6639 85.1571 36.8331 85.2628 37.0447C85.3686 37.2562 85.4532 37.4677 85.4955 37.7216H84.3321V37.7427Z" fill="#00524D"/>
<path d="M89.705 38.0813C89.6839 37.8909 89.6627 37.7217 89.5993 37.5736C89.5358 37.4255 89.4512 37.2775 89.3666 37.1717C89.2608 37.0659 89.1339 36.9601 88.9858 36.8967C88.8377 36.8332 88.6896 36.7909 88.4993 36.7909C88.33 36.7909 88.182 36.8332 88.055 36.8967C87.9281 36.9601 87.8012 37.0659 87.6954 37.1717C87.5897 37.2775 87.505 37.4255 87.4416 37.5736C87.3781 37.7217 87.3358 37.8909 87.3358 38.0601H89.705V38.0813ZM87.3358 38.7794C87.3358 38.9909 87.3781 39.1813 87.4416 39.3717C87.505 39.562 87.5897 39.7313 87.6954 39.8582C87.8012 40.0063 87.9281 40.112 88.0762 40.1967C88.2243 40.2813 88.3723 40.3236 88.5416 40.3236C89.1127 40.3236 89.4935 40.0063 89.705 39.3928H90.7415C90.6781 39.6678 90.5935 39.9005 90.4454 40.112C90.2973 40.3236 90.1492 40.4928 89.9377 40.6409C89.7473 40.789 89.5146 40.8947 89.282 40.9793C89.0493 41.064 88.7954 41.0851 88.5416 41.0851C88.182 41.0851 87.8435 41.0217 87.5685 40.8736C87.2723 40.7255 87.0185 40.5563 86.8281 40.3024C86.6166 40.0697 86.4685 39.7947 86.3416 39.4774C86.2358 39.1601 86.1724 38.8428 86.1724 38.4832C86.1724 38.1659 86.2358 37.8486 86.3416 37.5525C86.4474 37.2563 86.6166 37.0025 86.807 36.7698C86.9974 36.5371 87.2512 36.3678 87.5474 36.2409C87.8435 36.114 88.1608 36.0505 88.5204 36.0505C88.88 36.0505 89.1973 36.114 89.4723 36.2409C89.7473 36.3467 90.0012 36.5159 90.1916 36.7275C90.4031 36.939 90.5512 37.1928 90.6569 37.489C90.7627 37.7851 90.8262 38.0813 90.8262 38.4409V38.8005H87.3358V38.7794Z" fill="#00524D"/>
<path d="M139.374 13.6699L139.353 13.7757L139.459 13.7968C139.48 13.7968 140.178 13.8814 140.135 14.7699V14.8545L140.199 14.8968C140.199 14.8968 140.812 15.2564 140.918 15.7006C140.939 15.8276 140.918 15.9545 140.855 16.0814C140.77 16.0814 140.58 16.1026 140.368 16.1026C139.945 16.1026 139.649 16.0391 139.522 15.891L139.501 15.8699H139.48C139.48 15.8699 138.76 15.6583 138.105 15.1083L138.041 15.066L137.978 15.1083C137.978 15.1083 137.787 15.2353 137.47 15.2353C137.153 15.2353 136.835 15.1083 136.539 14.8545L136.455 14.791L136.37 14.8756C136.37 14.8756 136.307 14.9603 136.18 15.0026L136.074 15.0237L135.968 15.0449H135.947C135.714 15.0449 135.418 14.9391 135.122 14.7276L135.016 14.6641L134.974 14.791C134.974 14.791 134.805 15.1718 134.022 15.1718C133.895 15.1718 133.768 15.1718 133.62 15.1506C133.493 15.1083 132.457 14.7064 131.589 14.516L131.293 14.4737H131.314C131.589 14.368 131.907 14.2622 132.203 14.1776C132.689 14.0507 133.091 13.9449 133.091 13.9449H133.112C133.874 13.5641 134.043 13.1622 134.085 12.9295C134.403 12.9295 134.635 12.8449 134.805 12.7603L134.847 12.7391C134.868 12.7391 135.397 12.5276 135.82 12.5276C136.01 12.5276 136.137 12.5699 136.201 12.6545C136.243 12.718 136.264 12.8026 136.264 12.9084L136.243 13.0987L136.412 13.0353C136.412 13.0353 137.132 12.7391 137.597 12.7391C137.745 12.7391 137.851 12.7814 137.914 12.8449C137.935 12.8872 137.957 12.9718 137.914 13.0776L137.872 13.2468L138.041 13.2257C138.041 13.2257 138.253 13.1834 138.528 13.1834C138.93 13.1834 139.226 13.268 139.353 13.4372C139.353 13.416 139.395 13.5218 139.374 13.6699Z" fill="white"/>
<path d="M135.905 20.4813C135.926 20.5025 136.243 21.0313 135.693 21.4755L135.651 21.5178L135.672 21.6025C135.714 21.7717 135.757 22.2794 135.587 22.5332L135.355 22.7025C135.08 22.4275 134.72 21.9409 134.741 21.6659V21.6236L134.72 21.6025C134.72 21.6025 134.445 20.989 134.424 20.2063V20.1217L134.361 20.1006C134.339 20.1006 133.768 19.8256 133.747 18.9583V18.8525H133.641C133.62 18.8525 133.155 18.8313 133.049 17.8794L133.028 17.7313L132.901 17.7737C132.901 17.7737 132.499 17.9006 131.97 17.0121C131.928 16.864 131.547 15.7852 131.124 15.0237C131.928 15.6583 132.986 16.8429 133.007 16.8429L133.028 16.864C133.43 17.1602 133.789 17.3083 134.086 17.3083C134.297 17.3083 134.424 17.2448 134.509 17.1814C134.614 17.3294 134.699 17.4564 134.784 17.5621L134.741 17.6044L134.593 17.7102L134.741 17.816C135.143 18.0487 135.693 18.4929 135.672 18.7256L135.545 18.8736L135.397 18.9583L135.524 19.0852C135.693 19.2544 136.137 19.7409 136.116 20.0794L135.968 20.3121L135.884 20.3756L135.905 20.4813Z" fill="white"/>
<path d="M125.539 21.4755C125.011 21.0313 125.328 20.5025 125.328 20.4813L125.391 20.3756L125.307 20.3121L125.159 20.0794C125.138 19.7409 125.582 19.2333 125.751 19.0852L125.878 18.9583L125.73 18.8736L125.603 18.7256C125.603 18.4929 126.153 18.0487 126.534 17.816L126.703 17.7102L126.555 17.6044L126.513 17.5621C126.597 17.4564 126.703 17.3294 126.788 17.1814C126.872 17.2448 126.999 17.3083 127.211 17.3083C127.507 17.3083 127.866 17.1602 128.268 16.864L128.289 16.8429C128.311 16.8217 129.347 15.6583 130.172 15.0237C129.77 15.7641 129.389 16.864 129.326 17.0121C128.797 17.9006 128.395 17.7737 128.395 17.7737L128.268 17.7313L128.247 17.8794C128.141 18.8313 127.676 18.8525 127.655 18.8525H127.549V18.9583C127.528 19.8467 126.957 20.1006 126.936 20.1006L126.872 20.1217V20.2063C126.83 20.989 126.555 21.5813 126.555 21.6025V21.6236V21.6659C126.576 21.9409 126.216 22.4275 125.941 22.7025L125.709 22.5332C125.497 22.2159 125.624 21.6025 125.624 21.6025V21.5178L125.539 21.4755Z" fill="white"/>
<path d="M122.155 19.4661C121.922 18.4507 122.536 18.0065 122.578 17.9853L122.641 17.943L122.62 17.8584C122.557 17.668 122.578 17.4988 122.641 17.3296C122.895 16.8007 123.741 16.5469 123.741 16.5469L123.868 16.5046L123.805 16.3777C123.741 16.2296 123.741 16.1027 123.784 15.9969C123.974 15.6584 124.82 15.5738 125.138 15.5738H125.286L125.243 15.4046L125.222 15.2354L125.286 15.2565C125.539 15.2565 125.836 15.1508 126.132 14.9604C126.259 15.1084 126.534 15.3834 127.232 15.3834C127.359 15.3834 127.507 15.3834 127.655 15.3623H127.676C127.697 15.3623 129.178 14.77 130.13 14.6642L130.299 14.6431L130.32 14.6642L130.109 14.7911L129.791 15.045C129.03 15.6796 128.163 16.6315 128.078 16.7584C127.718 17.0123 127.401 17.1392 127.147 17.1392C126.893 17.1392 126.809 17.0123 126.809 16.9911L126.766 16.9277L126.724 16.843L126.639 16.9911C126.513 17.2027 126.407 17.3719 126.301 17.4777L126.195 17.5834C125.984 17.795 125.814 17.8161 125.73 17.8161L125.561 17.7738L125.455 17.6892L125.391 17.8161C124.968 18.7257 124.439 18.8103 124.249 18.8103H124.186H124.101L124.08 18.8738C123.593 19.8257 123.001 20.3757 123.001 20.3969L122.98 20.418L122.959 20.4392C122.811 20.8411 122.134 21.1795 121.816 21.2853C121.393 20.7353 122.155 19.6142 122.155 19.593L122.197 19.5507L122.155 19.4661Z" fill="white"/>
<path d="M127.168 31.9889H130.13L129.495 29.2601L129.982 28.7736L129.347 26.3197L129.834 26.0659L129.178 23.3794L129.77 22.9563L129.241 20.6505L129.834 20.3332L129.474 18.2813L129.961 17.964L129.876 15.7641C129.897 15.6794 130.109 15.0448 130.574 14.6641C131.082 15.0871 131.272 15.7641 131.272 15.7641L131.188 17.964L131.674 18.2813L131.314 20.3332L131.907 20.6505L131.399 22.9563L131.991 23.3794L131.357 26.0659L131.843 26.3197L131.209 28.7736L131.695 29.2601L131.145 31.9678H134.086C134.086 31.9678 134.466 32.137 134.339 32.412C134.212 32.7081 132.689 34.21 132.562 34.1466C132.436 34.062 132.436 33.4908 132.351 33.385C132.287 33.3216 131.653 33.9985 131.357 34.1466C131.357 34.1466 131.039 33.787 130.595 33.512C130.151 33.8081 129.664 34.1466 129.664 34.1466C129.368 33.9773 128.924 33.3216 128.882 33.385C128.797 33.4908 128.797 34.062 128.67 34.1466C128.543 34.2312 127.02 32.7081 126.893 32.412C126.788 32.137 127.168 31.9889 127.168 31.9889Z" fill="white"/>
<path d="M135.841 17.7948L135.778 17.689L135.672 17.7736C135.672 17.7736 135.609 17.8159 135.503 17.8159C135.397 17.8159 135.228 17.7736 135.016 17.5621L134.911 17.4563C134.805 17.3294 134.678 17.1813 134.572 16.9698L134.487 16.8217L134.445 16.9063L134.403 16.9698C134.403 16.9698 134.297 17.1179 134.064 17.1179C133.811 17.1179 133.514 16.9909 133.134 16.716C133.028 16.589 132.182 15.6371 131.42 15.0025C131.314 14.8967 131.188 14.8333 131.103 14.7487L130.891 14.6217L130.913 14.6006L131.082 14.6217C132.034 14.7487 133.514 15.3198 133.536 15.3198H133.557C133.705 15.341 133.853 15.341 134.001 15.341C134.678 15.341 134.974 15.0871 135.101 14.9179C135.397 15.1083 135.693 15.214 135.989 15.214H136.032L135.989 15.4044L135.947 15.5525H136.095C136.412 15.5525 137.259 15.6371 137.449 15.9756C137.512 16.0813 137.512 16.2083 137.428 16.3563L137.364 16.4833L137.491 16.5256C137.491 16.5256 138.337 16.7794 138.591 17.3083C138.676 17.4775 138.697 17.6467 138.634 17.8371L138.612 17.9217L138.676 17.964C138.718 17.9852 139.332 18.4294 139.099 19.4448L139.078 19.4871L139.12 19.5294C139.12 19.5294 139.882 20.6505 139.459 21.2217C139.141 21.1159 138.443 20.7775 138.295 20.3755V20.3544L138.274 20.3332C138.274 20.3332 137.682 19.7621 137.195 18.8102L137.153 18.7255L137.068 18.7467H137.005C136.793 18.789 136.286 18.6832 135.841 17.7948Z" fill="white"/>
<path d="M136.645 9.88341L136.687 9.98918L136.793 9.94688C136.793 9.94688 136.899 9.88341 137.068 9.88341C137.322 9.88341 137.512 10.0315 137.66 10.3276L137.682 10.3911H137.766H137.809C137.935 10.3911 138.38 10.4123 138.591 10.6449C138.655 10.7084 138.697 10.8142 138.697 10.9199C138.485 11.0892 138.02 11.4276 137.745 11.4276H137.66L137.639 11.4065L137.618 11.4276C137.618 11.4276 137.216 11.5545 136.687 11.5545C136.56 11.5545 136.434 11.5546 136.328 11.5334L136.264 11.5122L136.222 11.5757C136.222 11.5757 135.947 12.0622 135.312 12.0622L135.08 12.0411H134.974L134.953 12.1469C134.953 12.1469 134.932 12.2738 134.805 12.4007L134.699 12.4853L134.445 12.5911L134.339 12.6122C134.234 12.6334 134.107 12.6334 133.959 12.6334H133.895H133.832V12.6545L133.853 12.7603V12.7815C133.853 12.8449 133.832 13.268 133.028 13.6699C132.922 13.6911 132.139 13.8603 131.462 14.1141C131.251 14.1988 131.061 14.2622 130.87 14.3468L130.891 14.3257L130.912 14.3045L131.166 14.0295C131.632 13.543 132.224 13.0565 132.245 13.0565L132.266 13.0353C132.732 12.4642 132.732 12.0622 132.689 11.8719C133.239 11.5757 133.303 11.1949 133.303 11.0046C133.535 10.8988 133.705 10.7719 133.832 10.6238H133.853C133.916 10.6238 133.98 10.6449 134.043 10.7719L134.128 10.9411L134.234 10.793C134.466 10.4546 134.932 9.92572 135.185 9.92572C135.207 9.92572 135.27 9.92572 135.312 10.0949L135.355 10.2642L135.482 10.1584C135.63 10.0315 136.074 9.67188 136.391 9.67188C136.497 9.67188 136.582 9.73534 136.645 9.88341Z" fill="white"/>
<path d="M131.885 10.2853L132.012 10.4122L132.055 10.2219C132.16 9.73533 132.372 9.18533 132.541 9.18533L132.605 9.26994L132.71 9.41802L132.774 9.24879C132.859 9.05841 133.155 8.48726 133.43 8.48726L133.578 8.55072L133.662 8.63533L133.726 8.52957C133.726 8.52957 133.874 8.31803 134.128 8.31803C134.255 8.31803 134.382 8.38149 134.509 8.46611L134.551 8.50841L134.614 8.46611C134.614 8.46611 134.91 8.29688 135.164 8.29688C135.334 8.29688 135.439 8.36033 135.482 8.48726C135.334 8.78341 135.059 9.22764 134.868 9.24879H134.847L134.826 9.26994C134.826 9.26994 134.424 9.65071 133.874 9.86224L133.81 9.8834V9.96801C133.81 9.96801 133.789 10.1584 133.662 10.3699C133.557 10.518 133.387 10.6872 133.112 10.7719H133.07L133.007 10.793L133.028 10.8353L133.049 10.8988V10.9622C133.049 11.0469 133.007 11.1949 132.859 11.343C132.753 11.4488 132.647 11.5334 132.457 11.618L132.351 11.6603H132.33L132.393 11.7661C132.393 11.7661 132.562 12.1045 132.055 12.7603C131.991 12.8238 131.61 13.1199 131.23 13.4795L130.976 13.7334L130.743 13.9661L130.785 13.8391C131.06 12.9084 131.547 11.1949 131.737 10.1161L131.885 10.2853Z" fill="white"/>
<path d="M129.601 9.41794H129.686L129.664 9.29102C129.58 8.46602 129.643 7.78911 129.812 7.59872L129.897 7.55641L129.982 7.57757L130.109 7.64103L130.13 7.49296C130.257 6.85835 130.489 6.47758 130.616 6.30835C130.764 6.49873 130.997 6.85835 131.124 7.49296L131.145 7.64103L131.272 7.57757L131.357 7.55641L131.441 7.59872C131.589 7.78911 131.653 8.48718 131.568 9.29102L131.547 9.41794H131.632C131.653 9.50255 131.632 9.73524 131.568 10.0525L131.547 10.2429L131.484 10.5391C131.314 11.3218 131.039 12.3794 130.722 13.4583L130.701 13.5217L130.616 13.8391L130.595 13.8814V13.8391L130.511 13.5217L130.489 13.4583C130.172 12.3794 129.918 11.3006 129.749 10.5391L129.686 10.2429L129.664 10.0525C129.601 9.73524 129.58 9.50255 129.601 9.41794Z" fill="white"/>
<path d="M126.047 8.33911C126.301 8.33911 126.597 8.50834 126.597 8.50834L126.661 8.55065L126.724 8.50834C126.851 8.40257 126.978 8.36027 127.105 8.36027C127.338 8.36027 127.507 8.5718 127.507 8.5718L127.57 8.67757L127.655 8.59295L127.803 8.52949C128.057 8.52949 128.353 9.07949 128.438 9.29103L128.522 9.46025L128.628 9.31218L128.734 9.22756C128.882 9.22756 129.093 9.75641 129.199 10.2641L129.241 10.4545L129.368 10.3276L129.495 10.2641C129.686 11.3641 130.151 13.0564 130.426 13.9871L130.468 14.1352L130.236 13.8814L129.982 13.6275C129.601 13.2679 129.241 12.9506 129.178 12.9083C128.649 12.2525 128.839 11.9141 128.839 11.9141L128.903 11.8083V11.7872H128.882L128.776 11.7449C128.586 11.6602 128.459 11.5545 128.374 11.4699C128.226 11.3218 128.184 11.1737 128.184 11.0891V10.9622L128.205 10.8776L128.226 10.8352L128.163 10.8141L128.141 10.7929C127.866 10.6872 127.697 10.5391 127.591 10.391C127.465 10.2006 127.443 10.0102 127.443 9.98909V9.90448L127.38 9.88333C126.809 9.67179 126.428 9.29103 126.428 9.29103L126.407 9.26987H126.386C126.174 9.22756 125.92 8.80449 125.772 8.48718C125.772 8.40257 125.878 8.33911 126.047 8.33911Z" fill="white"/>
<path d="M122.641 10.6449C122.853 10.4123 123.297 10.3911 123.424 10.3911H123.466H123.551L123.572 10.3276C123.72 10.0315 123.932 9.88341 124.164 9.88341C124.313 9.88341 124.439 9.94688 124.439 9.94688L124.545 9.98918L124.588 9.88341C124.651 9.75649 124.736 9.67188 124.863 9.67188C125.243 9.67188 125.772 10.1584 125.772 10.1584L125.899 10.2853L125.941 10.0949C125.984 9.92572 126.047 9.92572 126.068 9.92572C126.301 9.92572 126.766 10.4546 126.999 10.793L127.105 10.9411L127.189 10.7507C127.253 10.6026 127.316 10.6026 127.38 10.6026H127.401C127.507 10.7507 127.676 10.8776 127.93 10.9834C127.93 11.1738 127.993 11.5334 128.543 11.8296C128.501 12.0199 128.501 12.4007 128.966 12.993L128.988 13.0142C128.988 13.0142 129.601 13.5007 130.066 13.9872L130.32 14.2622L130.341 14.2834V14.3045C130.172 14.2199 129.982 14.1353 129.77 14.0718C129.093 13.818 128.311 13.6488 128.205 13.6276C127.401 13.2257 127.38 12.8238 127.38 12.7392L127.401 12.6334V12.5911H127.316H127.253C127.126 12.5911 126.999 12.5911 126.893 12.5699L126.788 12.5488L126.534 12.443L126.428 12.3795C126.301 12.2526 126.28 12.1257 126.28 12.1257L126.259 12.0199L126.153 12.0411L125.92 12.0622C125.286 12.0622 125.011 11.5969 125.011 11.5757L124.968 11.5122L124.905 11.5334C124.778 11.5334 124.651 11.5545 124.545 11.5545C124.016 11.5545 123.614 11.4276 123.614 11.4276H123.593H123.572H123.488C123.191 11.4276 122.726 11.0892 122.536 10.9199C122.536 10.793 122.578 10.7084 122.641 10.6449Z" fill="white"/>
<path d="M120.314 15.6796C120.42 15.2354 121.034 14.8758 121.034 14.8758L121.097 14.8335V14.77C121.055 13.8816 121.753 13.7969 121.774 13.7969L121.88 13.7758V13.67C121.859 13.5431 121.88 13.4373 121.964 13.3527C122.091 13.2046 122.388 13.0989 122.789 13.0989C123.043 13.0989 123.276 13.1412 123.276 13.1412L123.445 13.1623L123.403 12.9931C123.382 12.8873 123.382 12.8027 123.403 12.7604C123.445 12.697 123.551 12.6547 123.699 12.6547C124.164 12.6547 124.884 12.9508 124.884 12.9508L125.053 13.0143L125.032 12.8239C125.011 12.7181 125.032 12.6335 125.074 12.57C125.137 12.4854 125.286 12.4431 125.455 12.4431C125.878 12.4431 126.428 12.6547 126.428 12.6547L126.47 12.6758C126.618 12.7816 126.851 12.845 127.168 12.845C127.211 13.0566 127.38 13.4796 128.141 13.8604H128.162C128.162 13.8604 128.564 13.9662 129.051 14.0931C129.347 14.1777 129.664 14.2835 129.939 14.3893L129.961 14.4104L129.664 14.4739C128.776 14.6643 127.761 15.0662 127.612 15.1085C127.464 15.1296 127.337 15.1296 127.211 15.1296C126.407 15.1296 126.259 14.7489 126.237 14.7489L126.195 14.6219L126.089 14.7066C125.772 14.9181 125.497 15.0239 125.264 15.0239H125.243L125.137 15.0027L125.032 14.9816C124.905 14.9392 124.841 14.8546 124.841 14.8546L124.778 14.77L124.693 14.8335C124.397 15.0873 124.08 15.2354 123.762 15.2354C123.466 15.2354 123.255 15.1085 123.255 15.1085L123.191 15.0662L123.128 15.1085C122.472 15.6585 121.753 15.8489 121.753 15.8489H121.732L121.711 15.87C121.605 16.0181 121.288 16.0815 120.864 16.0815C120.632 16.0815 120.441 16.0604 120.357 16.0604C120.314 15.9335 120.293 15.8277 120.314 15.6796Z" fill="white"/>
<path d="M137.872 36.0928C135.82 37.4678 133.789 39.0755 132.076 40.5351C133.028 41.4235 134.001 42.3754 134.974 43.412L135.08 43.3273H135.27L135.312 43.4543L135.46 43.2427C135.376 43.01 135.439 42.735 135.651 42.5658C135.926 42.3331 136.285 42.3331 136.497 42.5658C136.709 42.7985 136.645 43.1793 136.391 43.412C136.222 43.56 136.01 43.6235 135.82 43.56C135.693 43.7716 135.757 43.9831 135.757 43.9831C136.01 44.5542 137.11 45.0619 137.999 45.0408C138.655 45.0408 139.12 44.8081 139.797 44.1523C140.559 43.3697 141.257 44.1523 141.257 44.1523C142.335 45.6966 140.135 47.1138 138.591 47.135C136.709 47.1773 134.995 46.0139 134.551 45.485C134.382 45.2946 134.276 45.2312 134.128 45.2946C134.043 45.3369 134.001 45.4639 133.98 45.5908C134.001 45.8023 133.916 45.9927 133.747 46.1408C133.493 46.3735 133.112 46.3735 132.901 46.1408C132.689 45.9081 132.732 45.5273 133.007 45.2946C133.134 45.1677 133.324 45.1042 133.472 45.1254L133.535 45.1043L133.472 45.0619V44.8716L133.684 44.66C133.303 44.2793 132.16 43.1793 130.616 41.7831C129.072 43.1581 127.951 44.2581 127.549 44.66L127.761 44.8716V45.0619L127.697 45.1043L127.739 45.1254C127.909 45.1254 128.078 45.1677 128.205 45.2946C128.459 45.5273 128.522 45.9081 128.311 46.1408C128.099 46.3735 127.718 46.3735 127.464 46.1408C127.295 45.9927 127.211 45.7812 127.232 45.5908C127.211 45.4639 127.147 45.3369 127.062 45.2946C126.914 45.21 126.809 45.2946 126.639 45.485C126.195 46.0139 124.482 47.1773 122.599 47.135C121.055 47.1138 118.855 45.6966 119.934 44.1523C119.934 44.1523 120.611 43.3697 121.393 44.1523C122.07 44.8081 122.536 45.0408 123.191 45.0408C124.059 45.0619 125.159 44.5542 125.412 43.9831C125.412 43.9831 125.497 43.7716 125.37 43.56C125.18 43.6023 124.968 43.56 124.799 43.412C124.545 43.1793 124.503 42.7985 124.693 42.5658C124.905 42.3331 125.264 42.3331 125.539 42.5658C125.751 42.7562 125.814 43.0312 125.73 43.2427L125.878 43.4543L125.92 43.3273H126.111L126.195 43.412C127.168 42.3754 128.141 41.4235 129.093 40.5351C127.38 39.0755 125.349 37.4678 123.297 36.0928C116.866 31.8197 112.022 32.2217 112.022 32.2217C115.661 30.8678 120.23 32.1794 122.303 33.364C123.784 34.2101 126.957 36.1562 130.553 39.2235C134.128 36.1562 137.322 34.189 138.803 33.364C140.876 32.2005 145.445 30.8678 149.083 32.2217C149.147 32.2428 144.303 31.8197 137.872 36.0928Z" fill="white"/>
</svg>
