<svg width="212" height="113" viewBox="0 0 212 113" fill="none" xmlns="http://www.w3.org/2000/svg">
<path d="M39.2259 87.4575C39.312 87.5608 39.3636 87.5608 39.4152 87.4575L42.0487 82.4487C42.0831 82.3799 42.1348 82.3455 42.2036 82.3455H42.6856C42.7716 82.3455 42.8577 82.4315 42.8577 82.5176V88.2665C42.8577 88.3698 42.7716 88.4386 42.6856 88.4386H42.2036C42.1004 88.4386 42.0315 88.3526 42.0315 88.2665V83.7913L39.7251 88.0944C39.4669 88.5591 38.8989 88.5591 38.6579 88.0944L36.7645 84.3593V88.2837C36.7645 88.387 36.6957 88.4558 36.5924 88.4558H36.1277C36.0416 88.4558 35.9556 88.3698 35.9556 88.2837V82.5348C35.9556 82.4315 36.0416 82.3627 36.1277 82.3627H36.6096C36.6785 82.3627 36.7301 82.3971 36.7645 82.4659L39.2259 87.4575Z" fill="#929497"/>
<path d="M44.9744 83.9119H45.4563C45.5596 83.9119 45.6284 83.9979 45.6284 84.084V88.2666C45.6284 88.3699 45.5596 88.4387 45.4563 88.4387H44.9744C44.8711 88.4387 44.8022 88.3526 44.8022 88.2666V84.084C44.8022 83.9807 44.8883 83.9119 44.9744 83.9119Z" fill="#929497"/>
<path d="M45.2156 82.3455C45.4566 82.3455 45.6631 82.552 45.6631 82.793C45.6631 83.0339 45.4566 83.2405 45.2156 83.2405C44.9746 83.2405 44.7681 83.0339 44.7681 82.793C44.7681 82.552 44.9746 82.3455 45.2156 82.3455Z" fill="#929497"/>
<path d="M53.718 83.9119H54.2C54.3032 83.9119 54.3721 83.9979 54.3721 84.084V88.2666C54.3721 88.3699 54.286 88.4387 54.2 88.4387H53.718C53.632 88.4387 53.5459 88.3526 53.5459 88.2666V84.084C53.5459 83.9807 53.632 83.9119 53.718 83.9119Z" fill="#929497"/>
<path d="M53.9592 82.3455C54.2002 82.3455 54.4068 82.552 54.4068 82.793C54.4068 83.0339 54.2002 83.2405 53.9592 83.2405C53.7183 83.2405 53.5117 83.0339 53.5117 82.793C53.5117 82.552 53.7183 82.3455 53.9592 82.3455Z" fill="#929497"/>
<path d="M116.147 83.9119H116.629C116.715 83.9119 116.801 83.9979 116.801 84.084V88.2666C116.801 88.3699 116.715 88.4387 116.629 88.4387H116.147C116.044 88.4387 115.975 88.3526 115.975 88.2666V84.084C115.975 83.9807 116.061 83.9119 116.147 83.9119Z" fill="#929497"/>
<path d="M116.388 82.3455C116.629 82.3455 116.836 82.552 116.836 82.793C116.836 83.0339 116.629 83.2405 116.388 83.2405C116.147 83.2405 115.941 83.0339 115.941 82.793C115.941 82.552 116.147 82.3455 116.388 82.3455Z" fill="#929497"/>
<path d="M50.9126 85.7191C50.9126 84.6519 50.0175 84.2905 48.1758 84.3077V88.2493C48.1758 88.3354 48.0897 88.4214 48.0037 88.4214H47.5217C47.4357 88.4214 47.3496 88.3354 47.3496 88.2493V84.0667C47.3496 83.9635 47.4357 83.8946 47.5217 83.8946C48.2446 83.8946 48.9676 83.8774 49.6905 83.8946C50.9814 83.9462 51.7387 84.7552 51.7387 86.0117V88.2665C51.7387 88.3526 51.6527 88.4387 51.5666 88.4387H51.0847C50.9986 88.4387 50.9126 88.3526 50.9126 88.2665V85.7191Z" fill="#929497"/>
<path d="M127.318 85.7191C127.318 84.6519 126.423 84.2905 124.582 84.3077V88.2493C124.582 88.3354 124.496 88.4214 124.409 88.4214H123.927C123.841 88.4214 123.755 88.3354 123.755 88.2493V84.0667C123.755 83.9635 123.841 83.8946 123.927 83.8946C124.65 83.8946 125.373 83.8774 126.096 83.8946C127.387 83.9462 128.145 84.7552 128.145 86.0117V88.2665C128.145 88.3526 128.058 88.4387 127.972 88.4387H127.49C127.404 88.4387 127.318 88.3526 127.318 88.2665V85.7191Z" fill="#929497"/>
<path d="M96.9038 86.597C96.9038 87.6641 97.7989 88.0256 99.6406 88.0084V84.0668C99.6406 83.9807 99.7266 83.8946 99.8127 83.8946H100.295C100.381 83.8946 100.467 83.9807 100.467 84.0668V88.2494C100.467 88.3526 100.381 88.4215 100.295 88.4215C99.5717 88.4215 98.8488 88.4387 98.1259 88.4215C96.835 88.3698 96.0776 87.5609 96.0776 86.3044V84.0496C96.0776 83.9635 96.1637 83.8774 96.2498 83.8774H96.7317C96.8178 83.8774 96.9038 83.9635 96.9038 84.0496V86.597Z" fill="#929497"/>
<path d="M60.2246 86.3215V82.5176C60.2246 82.4143 60.3107 82.3455 60.3967 82.3455H60.8787C60.982 82.3455 61.0508 82.4315 61.0508 82.5176V83.8257C61.0508 83.8773 61.0852 83.9118 61.1369 83.9118H62.3417C62.3934 83.9118 62.4278 83.9462 62.4278 83.9978V84.2388C62.4278 84.2904 62.3934 84.3249 62.3417 84.3249H61.1369C61.0852 84.3249 61.0508 84.3593 61.0508 84.4109V86.7346C61.0508 87.4231 61.4467 87.819 62.2384 87.9911C62.7204 88.0944 62.8581 88.4558 62.2729 88.4386C60.9992 88.4042 60.2246 87.578 60.2246 86.3215Z" fill="#929497"/>
<path d="M112.396 86.3215V82.5176C112.396 82.4143 112.482 82.3455 112.568 82.3455H113.05C113.136 82.3455 113.222 82.4315 113.222 82.5176V83.8257C113.222 83.8773 113.256 83.9118 113.308 83.9118H114.513C114.564 83.9118 114.599 83.9462 114.599 83.9978V84.2388C114.599 84.2904 114.564 84.3249 114.513 84.3249H113.308C113.256 84.3249 113.222 84.3593 113.222 84.4109V86.7346C113.222 87.4231 113.618 87.819 114.409 87.9911C114.891 88.0944 115.029 88.4558 114.444 88.4386C113.153 88.4042 112.396 87.578 112.396 86.3215Z" fill="#929497"/>
<path d="M79.7432 84.4628V88.2667C79.7432 88.3528 79.8292 88.4388 79.9153 88.4388H80.3972C80.4833 88.4388 80.5694 88.3528 80.5694 88.2667V85.6505C80.5694 85.5988 80.6038 85.5644 80.6554 85.5644H81.8603C81.9119 85.5644 81.9463 85.53 81.9463 85.4783V85.2374C81.9463 85.1857 81.9119 85.1513 81.8603 85.1513H80.6554C80.6038 85.1513 80.5694 85.1169 80.5694 85.0652V84.0669C80.5694 83.3784 80.9652 82.9825 81.757 82.8104C82.2389 82.7072 82.3766 82.3457 81.7914 82.3629C80.5005 82.3801 79.7432 83.2063 79.7432 84.4628Z" fill="#929497"/>
<path d="M63.7354 86.0119V88.2667C63.7354 88.3528 63.8214 88.4388 63.9075 88.4388H64.3894C64.4755 88.4388 64.5615 88.3528 64.5615 88.2667C64.5615 85.3578 64.5615 89.5404 64.5615 85.616C64.5615 84.9275 64.9574 84.5316 65.7492 84.3595C66.2311 84.2562 66.3688 83.8948 65.7836 83.912C64.4927 83.9464 63.7354 84.7554 63.7354 86.0119Z" fill="#929497"/>
<path d="M70.3972 88.5248C70.3972 88.4731 70.3627 88.4387 70.3111 88.4387C69.9841 88.4387 69.7775 88.4387 69.33 88.4215C68.0391 88.3698 67.2817 87.5609 67.2817 86.3044V84.0496C67.2817 83.9635 67.3678 83.8774 67.4539 83.8774H67.9358C68.0219 83.8774 68.1079 83.9635 68.1079 84.0496V86.5798C68.1079 87.3543 68.6071 88.0428 69.2784 88.0428C69.6915 88.0428 70.4144 87.7158 70.4144 86.8552C70.4144 85.9257 70.4144 84.979 70.4144 84.0496C70.4144 83.9635 70.5004 83.8774 70.5865 83.8774H71.0684C71.1545 83.8774 71.2406 83.9635 71.2406 84.0496V89.0755C71.2406 90.332 70.4832 91.1582 69.1923 91.1927C68.6071 91.2099 68.7448 90.8484 69.2267 90.7451C70.0185 90.573 70.4144 90.1255 70.4316 89.437L70.3972 88.5248Z" fill="#929497"/>
<path d="M85.2688 82.3455C86.5769 82.3455 87.9023 82.3455 89.2104 82.3455C89.2793 82.3455 89.3309 82.3971 89.3309 82.4659V82.8102C89.3309 82.879 89.2793 82.9307 89.2104 82.9307H85.9229V84.9617H88.2637C88.3326 84.9617 88.3842 85.0134 88.3842 85.0822V85.4265C88.3842 85.4953 88.3326 85.5469 88.2637 85.5469H85.9229V87.8534H89.2104C89.2793 87.8534 89.3309 87.905 89.3309 87.9739V88.3181C89.3309 88.387 89.2793 88.4386 89.2104 88.4386C87.9023 88.4386 86.5769 88.4386 85.2688 88.4386C85.1655 88.4386 85.0967 88.3526 85.0967 88.2665V82.5176C85.0967 82.4315 85.1827 82.3455 85.2688 82.3455Z" fill="#929497"/>
<path d="M77.0069 83.9119H75.9742C75.0275 83.9119 74.2529 84.6864 74.2529 85.6331V86.7175C74.2529 87.6642 75.0275 88.4387 75.9742 88.4387H77.0069C77.9536 88.4387 78.7281 87.6642 78.7281 86.7175V85.6331C78.7281 84.6864 77.9536 83.9119 77.0069 83.9119ZM77.8331 86.9412C77.8331 87.5092 77.3684 87.9912 76.7831 87.9912H76.1635C75.5955 87.9912 75.1135 87.5265 75.1135 86.9412V85.4093C75.1308 84.8241 75.5955 84.3594 76.1635 84.3594H76.7831C77.3511 84.3594 77.8331 84.8241 77.8331 85.4093V86.9412Z" fill="#929497"/>
<path d="M120.932 83.9119H119.899C118.953 83.9119 118.178 84.6864 118.178 85.6331V86.7175C118.178 87.6642 118.953 88.4387 119.899 88.4387H120.932C121.879 88.4387 122.653 87.6642 122.653 86.7175V85.6331C122.653 84.6864 121.879 83.9119 120.932 83.9119ZM121.776 86.9412C121.776 87.5092 121.311 87.9912 120.726 87.9912H120.106C119.538 87.9912 119.056 87.5265 119.056 86.9412V85.4093C119.073 84.8241 119.538 84.3594 120.106 84.3594H120.726C121.294 84.3594 121.776 84.8241 121.776 85.4093V86.9412Z" fill="#929497"/>
<path d="M94.3564 82.3455H93.8745C93.7884 82.3455 93.7024 82.4315 93.7024 82.5176V83.8257C93.7024 83.8773 93.6679 83.9118 93.6163 83.9118H91.6885C90.7418 83.9118 89.9673 84.6863 89.9673 85.633V86.7174C89.9673 87.6641 90.7418 88.4386 91.6885 88.4386H93.8745H94.1843H94.3564C94.4597 88.4386 94.5285 88.3526 94.5285 88.2665V82.5176C94.5285 82.4143 94.4425 82.3455 94.3564 82.3455ZM93.7024 87.9567C93.7024 88.0083 93.6679 88.0427 93.6163 88.0427H92.0672C91.3787 88.0427 90.8107 87.4747 90.8107 86.7862V85.5814C90.8107 84.8929 91.3787 84.3249 92.0672 84.3249H93.6163C93.6679 84.3249 93.7024 84.3593 93.7024 84.4109V87.9567Z" fill="#929497"/>
<path d="M110.777 83.9119C109.968 83.9119 109.297 83.9119 108.127 83.9119C107.18 83.9119 106.405 84.6864 106.405 85.6331V86.7175C106.405 87.6642 107.18 88.4387 108.127 88.4387C108.97 88.4387 110.003 88.3182 110.123 88.3354C110.209 88.3526 110.244 88.4387 110.381 88.4387H110.777C110.88 88.4387 110.949 88.3526 110.949 88.2666V84.084C110.949 83.9807 110.863 83.9119 110.777 83.9119ZM110.14 86.9757C110.14 87.3888 109.865 88.1289 108.505 88.0256C107.817 87.974 107.249 87.4576 107.249 86.7691V85.5643C107.249 84.8758 107.817 84.3078 108.505 84.3078H110.054C110.106 84.3078 110.14 84.3422 110.14 84.3938V86.9757Z" fill="#929497"/>
<path d="M103.272 88.4387C102.326 88.4387 101.551 87.6642 101.551 86.7175V85.6331C101.551 84.6864 102.326 83.9119 103.272 83.9119H105.527C105.545 83.9119 105.562 83.9291 105.562 83.9463V84.2733C105.562 84.2905 105.545 84.3078 105.527 84.3078C104.89 84.3078 104.271 84.3078 103.634 84.3078C102.945 84.3078 102.377 84.8758 102.377 85.5643V86.7691C102.377 87.4576 102.945 88.0256 103.634 88.0256C104.271 88.0256 104.89 88.0256 105.527 88.0256C105.545 88.0256 105.562 88.0428 105.562 88.06V88.3871C105.562 88.4043 105.545 88.4215 105.527 88.4215L103.272 88.4387Z" fill="#929497"/>
<path d="M58.3145 84.2561C58.7276 84.2561 58.7276 83.6881 58.3318 83.6537C57.1785 83.5332 56.1114 83.7914 55.836 84.7037C55.6294 85.3922 56.0425 86.0118 57.0408 86.2011C58.349 86.4421 58.8481 87.079 58.2973 87.6642C58.0047 87.9568 57.1269 87.8535 56.49 87.8879C55.8016 87.9224 55.8876 88.4387 56.49 88.4387C57.5228 88.4559 58.676 88.5936 59.0891 87.9051C59.5194 87.1822 59.158 86.1839 58.349 86.0118C57.2646 85.788 56.5933 85.5471 56.731 84.9274C56.8515 84.3078 57.3851 84.2733 58.3145 84.2561Z" fill="#929497"/>
<path d="M128.282 48.9709C128.971 48.9709 129.522 49.5217 129.522 50.2102C129.522 50.8987 128.971 51.4495 128.282 51.4495C127.594 51.4495 127.043 50.8987 127.043 50.2102C127.06 49.5217 127.611 48.9709 128.282 48.9709Z" fill="#008A79"/>
<path d="M128.282 38.3164C129.022 38.3164 129.625 38.9188 129.625 39.659C129.625 40.3991 129.022 41.0015 128.282 41.0015C127.542 41.0015 126.939 40.3991 126.939 39.659C126.939 38.9188 127.542 38.3164 128.282 38.3164Z" fill="#008A79"/>
<path d="M134.444 43.377C135.184 43.377 135.787 43.9794 135.787 44.7195C135.787 45.4596 135.184 46.0621 134.444 46.0621C133.704 46.0621 133.102 45.4596 133.102 44.7195C133.102 43.9794 133.704 43.377 134.444 43.377Z" fill="#00897D"/>
<path d="M122.395 43.6008C123.135 43.6008 123.738 44.2033 123.738 44.9434C123.738 45.6835 123.135 46.2859 122.395 46.2859C121.655 46.2859 121.053 45.6835 121.053 44.9434C121.035 44.2033 121.638 43.6008 122.395 43.6008Z" fill="#00897D"/>
<path d="M109.968 45.4768C110.657 45.4768 111.208 46.0276 111.208 46.7161C111.208 47.4046 110.657 47.9554 109.968 47.9554C109.28 47.9554 108.729 47.4046 108.729 46.7161C108.729 46.0276 109.28 45.4768 109.968 45.4768Z" fill="#008880"/>
<path d="M146.682 45.322C147.37 45.322 147.921 45.8728 147.921 46.5613C147.921 47.2498 147.37 47.8006 146.682 47.8006C145.993 47.8006 145.442 47.2498 145.442 46.5613C145.442 45.8728 146.01 45.322 146.682 45.322Z" fill="#008880"/>
<path d="M134.754 33.4971C135.563 33.4971 136.2 34.1511 136.2 34.9429C136.2 35.7519 135.546 36.3887 134.754 36.3887C133.945 36.3887 133.308 35.7347 133.308 34.9429C133.308 34.1339 133.945 33.4971 134.754 33.4971Z" fill="#008880"/>
<path d="M122.052 33.6521C122.861 33.6521 123.498 34.3062 123.498 35.0979C123.498 35.9069 122.844 36.5438 122.052 36.5438C121.243 36.5438 120.606 35.8897 120.606 35.0979C120.606 34.3062 121.26 33.6521 122.052 33.6521Z" fill="#008880"/>
<path d="M115.734 39.0566C116.543 39.0566 117.18 39.7107 117.18 40.5025C117.18 41.3115 116.526 41.9483 115.734 41.9483C114.925 41.9483 114.288 41.2942 114.288 40.5025C114.288 39.7107 114.942 39.0566 115.734 39.0566Z" fill="#008880"/>
<path d="M141.071 38.8157C141.931 38.8157 142.62 39.5042 142.62 40.3648C142.62 41.2254 141.931 41.9139 141.071 41.9139C140.21 41.9139 139.521 41.2254 139.521 40.3648C139.521 39.5042 140.227 38.8157 141.071 38.8157Z" fill="#008880"/>
<path d="M141.536 29.2456C142.482 29.2456 143.24 30.0029 143.24 30.9496C143.24 31.8963 142.482 32.6536 141.536 32.6536C140.589 32.6536 139.832 31.8963 139.832 30.9496C139.832 30.0029 140.589 29.2456 141.536 29.2456Z" fill="#00998B"/>
<path d="M148.73 25.958C149.901 25.958 150.848 26.9047 150.848 28.0751C150.848 29.2456 149.901 30.1922 148.73 30.1922C147.56 30.1922 146.613 29.2456 146.613 28.0751C146.613 26.9219 147.56 25.958 148.73 25.958Z" fill="#009B8B"/>
<path d="M156.201 23.6343C157.56 23.6343 158.662 24.7359 158.662 26.0956C158.662 27.4554 157.56 28.557 156.201 28.557C154.841 28.557 153.739 27.4554 153.739 26.0956C153.739 24.7359 154.841 23.6343 156.201 23.6343Z" fill="#00A08B"/>
<path d="M163.843 22.051C165.271 22.051 166.407 23.2042 166.407 24.6157C166.407 26.0443 165.254 27.1803 163.843 27.1803C162.414 27.1803 161.261 26.0271 161.261 24.6157C161.261 23.2042 162.414 22.051 163.843 22.051Z" fill="#00B4A6"/>
<path d="M171.605 21.001C173.189 21.001 174.48 22.2919 174.48 23.8754C174.48 25.459 173.189 26.7499 171.605 26.7499C170.022 26.7499 168.731 25.459 168.731 23.8754C168.731 22.2747 170.022 21.001 171.605 21.001Z" fill="#00B6A7"/>
<path d="M148.248 35.27C149.195 35.27 149.952 36.0274 149.952 36.974C149.952 37.9207 149.195 38.6781 148.248 38.6781C147.302 38.6781 146.544 37.9207 146.544 36.974C146.527 36.0446 147.302 35.27 148.248 35.27Z" fill="#00998B"/>
<path d="M155.735 32.5159C156.906 32.5159 157.852 33.4625 157.852 34.633C157.852 35.8034 156.906 36.7501 155.735 36.7501C154.565 36.7501 153.618 35.8034 153.618 34.633C153.618 33.4798 154.565 32.5159 155.735 32.5159Z" fill="#009B8B"/>
<path d="M163.619 30.7603C164.979 30.7603 166.08 31.8618 166.08 33.2216C166.08 34.5814 164.979 35.683 163.619 35.683C162.259 35.683 161.158 34.5814 161.158 33.2216C161.158 31.8618 162.259 30.7603 163.619 30.7603Z" fill="#00A08B"/>
<path d="M171.915 30.4849C173.344 30.4849 174.48 31.6381 174.48 33.0495C174.48 34.4781 173.327 35.6313 171.915 35.6313C170.487 35.6313 169.333 34.4781 169.333 33.0495C169.333 31.6381 170.487 30.4849 171.915 30.4849Z" fill="#00B4A6"/>
<path d="M154.72 41.604C155.667 41.604 156.424 42.3613 156.424 43.308C156.424 44.2547 155.667 45.012 154.72 45.012C153.773 45.012 153.016 44.2547 153.016 43.308C153.016 42.3613 153.773 41.604 154.72 41.604Z" fill="#00998B"/>
<path d="M163.619 39.4871C164.789 39.4871 165.736 40.4337 165.736 41.6042C165.736 42.7746 164.789 43.7213 163.619 43.7213C162.448 43.7213 161.501 42.7746 161.501 41.6042C161.501 40.4509 162.448 39.4871 163.619 39.4871Z" fill="#009B8B"/>
<path d="M172.139 39.2632C173.413 39.2632 174.446 40.2959 174.446 41.5696C174.446 42.8433 173.413 43.8761 172.139 43.8761C170.865 43.8761 169.833 42.8433 169.833 41.5696C169.816 40.2959 170.865 39.2632 172.139 39.2632Z" fill="#00A08B"/>
<path d="M115.235 29.4695C116.182 29.4695 116.939 30.2268 116.939 31.1735C116.939 32.1202 116.182 32.8775 115.235 32.8775C114.289 32.8775 113.531 32.1202 113.531 31.1735C113.531 30.244 114.289 29.4695 115.235 29.4695Z" fill="#00998B"/>
<path d="M108.144 26.2678C109.314 26.2678 110.261 27.2145 110.261 28.3849C110.261 29.5554 109.314 30.502 108.144 30.502C106.973 30.502 106.027 29.5554 106.027 28.3849C106.009 27.2145 106.973 26.2678 108.144 26.2678Z" fill="#009D8A"/>
<path d="M100.622 23.927C101.982 23.927 103.083 25.0286 103.083 26.3884C103.083 27.7481 101.982 28.8497 100.622 28.8497C99.2622 28.8497 98.1606 27.7481 98.1606 26.3884C98.1606 25.0286 99.2622 23.927 100.622 23.927Z" fill="#00A08B"/>
<path d="M92.9969 22.4297C94.4255 22.4297 95.5615 23.5829 95.5615 25.0115C95.5615 26.4402 94.4083 27.5762 92.9969 27.5762C91.5683 27.5762 90.415 26.4229 90.415 25.0115C90.415 23.5829 91.5683 22.4297 92.9969 22.4297Z" fill="#00B4A6"/>
<path d="M85.2514 21.001C86.8349 21.001 88.1259 22.2919 88.1259 23.8754C88.1259 25.459 86.8349 26.7499 85.2514 26.7499C83.6679 26.7499 82.377 25.459 82.377 23.8754C82.377 22.2747 83.6679 21.001 85.2514 21.001Z" fill="#00B6A7"/>
<path d="M108.557 35.4939C109.504 35.4939 110.261 36.2512 110.261 37.1979C110.261 38.1446 109.504 38.9019 108.557 38.9019C107.61 38.9019 106.853 38.1446 106.853 37.1979C106.853 36.2685 107.61 35.4939 108.557 35.4939Z" fill="#00998B"/>
<path d="M101 32.7571C102.171 32.7571 103.118 33.7038 103.118 34.8742C103.118 36.0446 102.171 36.9913 101 36.9913C99.83 36.9913 98.8833 36.0446 98.8833 34.8742C98.8833 33.7038 99.83 32.7571 101 32.7571Z" fill="#009D8A"/>
<path d="M92.997 30.9841C94.3568 30.9841 95.4584 32.0857 95.4584 33.4455C95.4584 34.8053 94.3568 35.9068 92.997 35.9068C91.6372 35.9068 90.5356 34.8053 90.5356 33.4455C90.5356 32.0857 91.6372 30.9841 92.997 30.9841Z" fill="#00A08B"/>
<path d="M84.9416 30.7087C86.3702 30.7087 87.5234 31.862 87.5234 33.2734C87.5234 34.702 86.3702 35.8552 84.9416 35.8552C83.513 35.8552 82.377 34.702 82.377 33.2734C82.377 31.862 83.513 30.7087 84.9416 30.7087Z" fill="#00B4A6"/>
<path d="M102.119 41.8279C103.066 41.8279 103.823 42.5852 103.823 43.5319C103.823 44.4786 103.066 45.2359 102.119 45.2359C101.172 45.2359 100.415 44.4786 100.415 43.5319C100.415 42.6024 101.172 41.8279 102.119 41.8279Z" fill="#00998B"/>
<path d="M93.4443 39.728C94.6147 39.728 95.5614 40.6747 95.5614 41.8451C95.5614 43.0156 94.6147 43.9623 93.4443 43.9623C92.2738 43.9623 91.3271 43.0156 91.3271 41.8451C91.3271 40.6747 92.2738 39.728 93.4443 39.728Z" fill="#009D8A"/>
<path d="M84.5628 39.5042C85.8365 39.5042 86.8692 40.5369 86.8692 41.8106C86.8692 43.0843 85.8365 44.117 84.5628 44.117C83.2891 44.117 82.2563 43.0843 82.2563 41.8106C82.2563 40.5369 83.2891 39.5042 84.5628 39.5042Z" fill="#00A08B"/>
<path d="M48.2451 76.3384C48.6254 76.3384 48.9336 76.0302 48.9336 75.6499C48.9336 75.2697 48.6254 74.9614 48.2451 74.9614C47.8649 74.9614 47.5566 75.2697 47.5566 75.6499C47.5566 76.0302 47.8649 76.3384 48.2451 76.3384Z" fill="#019A8B"/>
<path d="M82.6006 65.512C82.9808 65.512 83.2891 65.2037 83.2891 64.8235C83.2891 64.4433 82.9808 64.135 82.6006 64.135C82.2204 64.135 81.9121 64.4433 81.9121 64.8235C81.9121 65.2037 82.2204 65.512 82.6006 65.512Z" fill="#019A8B"/>
<path d="M50.5686 74.9614C50.1727 74.9614 49.8629 75.2712 49.8801 75.6499C49.8801 76.0286 50.1899 76.3384 50.5686 76.3384C50.9472 76.3384 51.2571 76.0286 51.2571 75.6499C51.2571 75.2712 50.9472 74.9614 50.5686 74.9614Z" fill="#019A8B"/>
<path d="M103.737 65.512C104.118 65.512 104.426 65.2037 104.426 64.8235C104.426 64.4433 104.118 64.135 103.737 64.135C103.357 64.135 103.049 64.4433 103.049 64.8235C103.049 65.2037 103.357 65.512 103.737 65.512Z" fill="#019A8B"/>
<path d="M84.9245 65.512C85.3032 65.512 85.613 65.2022 85.613 64.8235C85.613 64.4448 85.3032 64.135 84.9245 64.135C84.5286 64.135 84.2188 64.4448 84.236 64.8235C84.236 65.2022 84.5459 65.512 84.9245 65.512Z" fill="#019A8B"/>
<path d="M101.431 65.512C101.81 65.512 102.119 65.2022 102.119 64.8235C102.119 64.4448 101.81 64.135 101.431 64.135C101.035 64.135 100.725 64.4448 100.742 64.8235C100.742 65.2022 101.052 65.512 101.431 65.512Z" fill="#019A8B"/>
<path d="M117.954 67.3538H116.836C116.767 67.3538 116.715 67.4054 116.698 67.4742C116.698 69.5053 116.698 71.5191 116.698 73.5502C116.698 75.5812 115.751 75.6501 115.373 75.7878C114.873 75.9599 114.994 76.5279 115.579 76.4419C116.44 76.3214 118.075 75.7017 118.075 72.965C118.075 70.8651 118.075 69.5741 118.075 67.4742C118.075 67.4054 118.023 67.3538 117.954 67.3538Z" fill="#019A8B"/>
<path d="M117.421 65.512C117.802 65.512 118.11 65.2037 118.11 64.8235C118.11 64.4433 117.802 64.135 117.421 64.135C117.041 64.135 116.733 64.4433 116.733 64.8235C116.733 65.2037 117.041 65.512 117.421 65.512Z" fill="#019A8B"/>
<path d="M128.007 67.3193H124.031C121.587 67.3193 120.021 68.1627 120.038 70.538V73.0855C120.038 73.1543 120.089 73.2059 120.158 73.2059H126.647C126.716 73.2404 126.785 73.292 126.785 73.3608V74.91C126.768 75.2886 126.234 75.5984 125.924 75.8566C125.649 76.0976 125.649 76.2697 126.234 76.2181C126.974 76.1492 128.145 75.237 128.128 74.3936V73.1027V71.9322V67.4398C128.128 67.371 128.076 67.3193 128.007 67.3193ZM126.768 71.9839C126.768 72.0527 126.699 72.1216 126.63 72.1216H121.552C121.484 72.1216 121.415 72.0527 121.415 71.9839V70.211C121.415 69.4192 121.966 68.4726 123.515 68.4726H126.63C126.699 68.4726 126.768 68.5414 126.768 68.6103V71.9839Z" fill="#019A8B"/>
<path d="M114.117 64.1179H112.998C112.929 64.1179 112.877 64.1868 112.877 64.2556V73.1372C112.877 73.206 112.929 73.2577 112.998 73.2577H114.117C114.186 73.2577 114.237 73.206 114.237 73.1372V64.2384C114.237 64.1696 114.186 64.1179 114.117 64.1179Z" fill="#019A8B"/>
<path d="M93.0313 64.1179H91.9125C91.8608 64.1179 91.792 64.1868 91.792 64.2556V73.1372C91.792 73.206 91.8436 73.2577 91.9125 73.2577H93.0313C93.1001 73.2577 93.1518 73.206 93.1518 73.1372V64.2384C93.1518 64.1696 93.1001 64.1179 93.0313 64.1179Z" fill="#019A8B"/>
<path d="M110.433 67.3538H109.314C109.245 67.3538 109.194 67.4054 109.176 67.4742C109.176 69.5053 109.176 71.5191 109.176 73.5502C109.176 75.5812 108.23 75.6501 107.851 75.7878C107.352 75.9599 107.472 76.5279 108.058 76.4419C108.918 76.3214 110.553 75.7017 110.553 72.965C110.553 70.8651 110.553 69.5741 110.553 67.4742C110.553 67.4054 110.502 67.3538 110.433 67.3538Z" fill="#019A8B"/>
<path d="M106.216 67.3538H102.24C99.7958 67.3538 98.2295 68.1972 98.2467 70.5725V73.1199C98.2467 73.1887 98.2984 73.2404 98.3672 73.2404C100.983 73.2404 103.6 73.2404 106.216 73.2404C106.285 73.2404 106.337 73.1887 106.337 73.1199V67.4742C106.337 67.4054 106.285 67.3538 106.216 67.3538ZM104.96 71.9839C104.96 72.0527 104.891 72.1216 104.822 72.1216H99.7442C99.6753 72.1216 99.6065 72.0527 99.6065 71.9839V70.211C99.6065 69.4192 100.157 68.4726 101.706 68.4726H104.822C104.891 68.4726 104.96 68.5414 104.96 68.6103V71.9839Z" fill="#019A8B"/>
<path d="M89.3821 64.1006H88.2805C88.2117 64.1006 88.16 64.1522 88.16 64.2211V71.7601C88.16 71.8289 88.1084 71.8805 88.0395 71.8805H84.5799C84.511 71.8805 84.4594 71.8289 84.4594 71.7601V67.4398C84.4594 67.3709 84.4077 67.3193 84.3389 67.3193H83.2201C83.1512 67.3193 83.0996 67.3709 83.0996 67.4398V71.7601C83.0996 71.8289 83.048 71.8805 82.9791 71.8805H68.8306C68.7618 71.8805 68.6929 71.8117 68.6929 71.7429V70.211C68.6929 69.4192 69.2437 68.4553 70.7928 68.4553H76.5245C76.5934 68.4553 76.645 68.4037 76.645 68.3348V67.457C76.645 67.3881 76.5934 67.3365 76.5245 67.3365H71.3092C68.865 67.3365 67.2987 68.1799 67.3159 70.5552V71.7429C67.3159 71.8117 67.2643 71.8633 67.1954 71.8633H55.6976C55.6288 71.8633 55.5771 71.8117 55.5771 71.7429V64.1867C55.5771 64.1178 55.5255 64.0662 55.4567 64.0662H54.3379C54.269 64.0662 54.2174 64.1178 54.2174 64.1867V71.7601C54.2174 71.8289 54.1657 71.8805 54.0969 71.8805H50.2241C50.1553 71.8805 50.1036 71.8289 50.1036 71.7601V67.5258C50.1036 67.457 50.052 67.4054 49.9831 67.4054H48.8643C48.7955 67.4054 48.7439 67.457 48.7439 67.5258V71.7601C48.7439 71.8289 48.6922 71.8805 48.6234 71.8805H46.1104C46.0415 71.8805 45.9899 71.8289 45.9899 71.7601V70.5724C46.0071 68.1971 44.4408 67.3537 41.9966 67.3537H37.0911C37.0223 67.3537 36.9706 67.4053 36.9706 67.4742V74.9099H36.9879C36.9706 75.2886 36.4371 75.5984 36.1272 75.8566C35.8518 76.0976 35.8518 76.2697 36.4371 76.2181C37.1772 76.1492 38.3476 75.2369 38.3304 74.3935V73.2231H45.8522H89.3821C89.4509 73.2231 89.5026 73.1715 89.5026 73.1026V64.2211C89.5026 64.1522 89.4509 64.1006 89.3821 64.1006ZM44.6301 71.7429C44.6301 71.8117 44.5785 71.8805 44.4924 71.8805H38.4853C38.4165 71.8805 38.3476 71.8117 38.3476 71.7429V68.6102C38.3476 68.5414 38.4165 68.4725 38.4853 68.4725H42.5302C44.0793 68.4725 44.6301 69.4192 44.6301 70.211V71.7429Z" fill="#019A8B"/>
</svg>
