<svg width="170" height="62" viewBox="0 0 170 62" fill="none" xmlns="http://www.w3.org/2000/svg">
<path d="M0.647949 48.1462H2.65755L5.53444 52.4827L5.61906 52.6943L5.66137 52.4827L8.55942 48.1462H9.63825V56.4173H8.4748V49.9232L8.36903 50.2405L5.93636 53.7943H5.25945L2.84793 50.2405L2.74216 49.9866V56.4173H1.57871V48.9712L0.647949 48.7174V48.1462Z" fill="#005C4F"/>
<path d="M13.0441 48.8445L12.0922 49.4368L11.521 48.4637L12.4941 47.8926L13.0441 48.8445ZM12.8537 50.6637V56.4175H11.7537V51.3829L11.0557 51.1925V50.6849H12.8537V50.6637Z" fill="#005C4F"/>
<path d="M20.1092 52.5251V56.4174H19.0092V52.8001C19.0092 51.954 18.6496 51.5309 17.8881 51.4886C17.3169 51.4463 16.6612 51.7848 15.8996 52.4617V56.4174H14.7996V51.3828L14.1016 51.1713V50.6636H15.7939L15.8785 51.6367C16.6823 50.8751 17.4861 50.4944 18.29 50.4944C19.3477 50.5155 20.1092 51.2136 20.1092 52.5251Z" fill="#005C4F"/>
<path d="M23.2824 48.8445L22.3305 49.4368L21.7593 48.4637L22.7324 47.8926L23.2824 48.8445ZM23.092 50.6637V56.4175H21.992V51.3829L21.2939 51.1925V50.6849H23.092V50.6637Z" fill="#005C4F"/>
<path d="M27.1325 56.5231C26.244 56.65 25.2286 56.502 24.3613 56.1423L24.5729 55.3173C25.9479 55.8039 27.619 55.952 27.6613 54.8943C27.6613 54.6616 27.5767 54.4712 27.2382 54.302C27.069 54.2174 26.9209 54.1327 26.8152 54.0904C26.6882 54.0481 26.4767 53.9635 26.1805 53.8577C25.0171 53.4347 24.4036 53.0116 24.4459 52.1443C24.4883 50.3674 27.0267 50.2616 28.4863 50.9174L28.2748 51.7424C27.1325 51.2558 25.4825 51.277 25.5036 52.1231C25.5036 52.4193 25.6729 52.5885 25.9902 52.7366C26.2229 52.8635 26.3075 52.8847 26.6459 52.9904C26.8152 53.0539 26.9209 53.0962 27.0055 53.1385C28.1478 53.5616 28.7613 53.9847 28.719 54.9154C28.6555 55.8039 27.9998 56.3962 27.1325 56.5231Z" fill="#005C4F"/>
<path d="M33.0342 56.3327C32.0823 56.65 31.3842 56.65 30.9189 56.2904C30.4535 55.952 30.1996 55.4443 30.1996 54.7462V51.4886H29.2266V50.9809L30.1996 50.5789V49.2886H31.3208V50.6636H32.5265V51.5097H31.3208V54.6193C31.3208 55.4866 31.7015 55.8462 32.8438 55.4866L33.0342 56.3327Z" fill="#005C4F"/>
<path d="M35.3189 51.6154C36.1439 50.7481 36.715 50.3462 37.6035 50.5577L37.4977 51.5308C36.715 51.3827 36.1862 51.7634 35.3612 52.6307V56.4173H34.2401V51.3827L33.542 51.1711V50.6635H35.2343L35.3189 51.6154Z" fill="#005C4F"/>
<path d="M42.8493 50.6636H43.9916L40.7339 58.9346H39.5704L40.7974 55.9731H40.3531L38.1108 50.6636H39.232L41.1147 55.1482L42.8493 50.6636Z" fill="#005C4F"/>
<path d="M50.3801 55.6559C50.909 55.6559 51.3321 55.4655 51.6705 55.0847C52.009 54.704 52.157 54.1751 52.157 53.5194C52.157 52.8636 51.9878 52.3559 51.6705 51.9751C51.3321 51.5944 50.909 51.404 50.3801 51.404C49.8301 51.404 49.4071 51.5944 49.0898 51.9751C48.7513 52.3559 48.6032 52.8636 48.6032 53.5194C48.6032 54.1751 48.7725 54.704 49.0898 55.0847C49.4282 55.4655 49.8513 55.6559 50.3801 55.6559ZM50.3801 56.5443C49.5128 56.5443 48.8359 56.2482 48.2859 55.6982C47.7359 55.127 47.4609 54.4078 47.4609 53.5194C47.4609 52.6309 47.7359 51.9117 48.2859 51.3405C48.8359 50.7694 49.5128 50.4944 50.3801 50.4944C51.2474 50.4944 51.9455 50.7694 52.4743 51.3405C53.0243 51.9117 53.2993 52.6309 53.2993 53.5194C53.2993 54.4078 53.0243 55.1482 52.4743 55.6982C51.9455 56.2693 51.2474 56.5443 50.3801 56.5443Z" fill="#005C4F"/>
<path d="M57.8264 48.3367C56.4302 47.9771 55.986 48.3791 55.986 49.2252V50.6637H57.4245V51.5098H55.986V56.3963H54.886V51.5098H53.9976V50.6637H54.886V49.2464C54.886 48.506 55.1187 47.9348 55.6264 47.5752C56.1129 47.2156 56.9168 47.1945 58.0591 47.4906L57.8264 48.3367Z" fill="#005C4F"/>
<path d="M67.3031 49.0982H63.4743V52.1231H66.5838V53.0751H63.4743V56.4173H62.3108V48.9924L61.3589 48.7174V48.1462H67.3031V49.0982Z" fill="#005C4F"/>
<path d="M70.1798 48.8445L69.2279 49.4368L68.6568 48.4637L69.6299 47.8926L70.1798 48.8445ZM69.9895 50.6637V56.4175H68.8895V51.3829L68.1914 51.1925V50.6849H69.9895V50.6637Z" fill="#005C4F"/>
<path d="M77.2664 52.5249V56.4172H76.1664V52.7999C76.1664 51.9537 75.8068 51.5307 75.0453 51.4884C74.4741 51.4461 73.8184 51.7845 73.0568 52.4614V56.4172H71.9569V51.3826L71.2588 51.1711V50.6634H72.9511L73.0357 51.6364C73.8395 50.8749 74.6434 50.4941 75.4472 50.4941C76.5049 50.5153 77.2664 51.2134 77.2664 52.5249Z" fill="#005C4F"/>
<path d="M82.1952 54.8519L82.2163 53.6884C80.7144 53.6038 80.0798 53.6461 79.7413 54.1115C79.3817 54.5346 79.4452 55.6134 80.3759 55.7192C80.8836 55.7615 81.4971 55.4653 82.1952 54.8519ZM78.8106 55.9307C78.5144 55.5499 78.3875 55.1057 78.4298 54.6615C78.4721 54.2173 78.599 53.8576 78.8317 53.6038C79.1279 53.2653 79.5086 53.0538 80.0163 52.9692C80.524 52.9057 81.2644 52.8846 82.2163 52.9269V52.2711C82.2163 51.3615 81.2856 51.1711 79.4029 51.7L79.1913 50.875C80.1221 50.5577 81.0106 50.4519 81.8779 50.5365C82.7452 50.6211 83.2951 51.1711 83.2951 52.1019L83.274 55.698L83.9932 55.8884V56.3961H82.3009L82.2375 55.5288C81.4971 56.2269 80.9048 56.6076 80.1009 56.5653C79.5298 56.5442 79.1067 56.3326 78.8106 55.9307Z" fill="#005C4F"/>
<path d="M90.6781 52.5251V56.4174H89.5781V52.8001C89.5781 51.954 89.2185 51.5309 88.4569 51.4886C87.8858 51.4463 87.23 51.7848 86.4685 52.4617V56.4174H85.3685V51.3828L84.6704 51.1713V50.6636H86.3627L86.4473 51.6367C87.2512 50.8751 88.055 50.4944 88.8588 50.4944C89.9165 50.5155 90.6781 51.2136 90.6781 52.5251Z" fill="#005C4F"/>
<path d="M92.7298 55.7405C92.2221 55.1693 91.9683 54.4501 91.9683 53.5194C91.9683 52.6097 92.2221 51.8905 92.7086 51.3194C93.1952 50.7694 93.8509 50.4944 94.6759 50.4944C95.374 50.4944 96.0298 50.6848 96.6432 51.0867L96.4528 51.8694C95.8182 51.5098 95.2682 51.3617 94.8029 51.3828C93.7452 51.404 93.0894 52.229 93.0894 53.5194C93.0894 54.7886 93.7452 55.6136 94.8452 55.677C95.3951 55.6982 95.9663 55.529 96.6009 55.2116L96.7913 55.9943C96.1355 56.3539 95.4375 56.5655 94.7182 56.5655C93.9144 56.5866 93.2375 56.3116 92.7298 55.7405Z" fill="#005C4F"/>
<path d="M101.784 52.9904C101.868 52.0808 101.509 51.4251 100.43 51.4039C99.5202 51.4039 98.9067 52.0174 98.801 52.9904H101.784ZM98.3991 55.6981C97.9125 55.1269 97.6587 54.4077 97.6587 53.5193C97.6587 52.6097 97.9125 51.8904 98.4202 51.3193C98.9279 50.7481 99.6048 50.4731 100.43 50.4943C102.545 50.4943 103.032 52.1866 102.714 53.7308H98.7587C98.7798 54.9577 99.4567 55.6346 100.684 55.6346C101.276 55.6346 101.868 55.4654 102.461 55.1693L102.651 55.9308C102.08 56.3539 101.361 56.5654 100.514 56.5654C99.6048 56.5654 98.9068 56.2692 98.3991 55.6981Z" fill="#005C4F"/>
<path d="M87.7373 25.8503V26.5907L86.7219 26.8657V38.8387H85.1143V25.8503H87.7373Z" fill="#005C4F"/>
<path d="M92.7512 27.8388L91.2916 28.7273L90.4243 27.2254L91.9262 26.3369L92.7512 27.8388Z" fill="#005C4F"/>
<path d="M90.6145 30.5042V39.7695C90.6145 40.8694 90.5511 41.6733 88.7953 41.3348L88.478 42.5617C91.6934 43.3021 92.2011 41.5252 92.2222 39.7271V31.5195L93.2165 31.2445V30.5042H90.6145Z" fill="#005C4F"/>
<path d="M79.8684 30.5042V39.7695C79.8684 40.8694 79.805 41.6733 78.0492 41.3348L77.7319 42.5617C80.9473 43.3021 81.455 41.5252 81.4761 39.7271V31.5195L82.4704 31.2445V30.5042H79.8684Z" fill="#005C4F"/>
<path d="M75.7436 27.8388L74.284 28.7273L73.3955 27.2254L74.8974 26.3369L75.7436 27.8388Z" fill="#005C4F"/>
<path d="M73.0779 27.8388L71.6183 28.7273L70.751 27.2254L72.2529 26.3369L73.0779 27.8388Z" fill="#005C4F"/>
<path d="M72.211 37.506C71.3437 37.506 70.0956 37.0195 70.0956 34.8195C70.0956 31.9003 72.6764 31.8157 73.6283 31.8157H74.5167V37.506H72.211ZM73.6283 30.5042C72.1264 30.5042 68.4668 30.7791 68.4668 34.8195C68.4668 38.5425 71.2168 38.8387 72.211 38.8387H76.1244V31.5407L77.161 31.2445V30.5042H73.6283Z" fill="#005C4F"/>
<path d="M101.213 37.506H99.3722C97.8491 37.506 96.7914 36.2791 96.7914 34.883C96.7914 33.931 97.0241 33.1907 97.5107 32.6407C97.976 32.0907 98.5895 31.8157 99.3722 31.8157H101.213V37.506ZM102.82 30.5042H99.3722C98.1241 30.5042 97.1299 30.9061 96.3472 31.7099C95.5645 32.5349 95.1626 33.5714 95.1626 34.8618C95.1626 37.781 97.7222 38.8175 99.3722 38.8175H101.234C101.234 41.5675 99.4356 41.8213 96.4953 40.954L96.178 42.2021C98.2722 42.8367 99.901 42.8367 101.064 42.181C102.228 41.5252 102.82 40.5098 102.82 38.8175V30.5042Z" fill="#005C4F"/>
<path d="M24.9746 41.2927L25.8419 42.7734L27.3227 41.885L26.4765 40.3831L24.9746 41.2927Z" fill="#005C4F"/>
<path d="M22.3091 41.2927L23.1975 42.7734L24.6571 41.885L23.811 40.3831L22.3091 41.2927Z" fill="#005C4F"/>
<path d="M9.04614 27.5638L8.22115 26.083L6.71924 26.9715L7.58654 28.4522L9.04614 27.5638Z" fill="#005C4F"/>
<path d="M6.40177 27.5638L5.55562 26.083L4.05371 26.9715L4.92101 28.4522L6.40177 27.5638Z" fill="#005C4F"/>
<path d="M61.6128 25.8503V38.8387H63.2205V26.8657L64.2358 26.5907V25.8503H61.6128Z" fill="#005C4F"/>
<path d="M51.5013 37.506H49.1955C48.3282 37.506 47.0802 37.0195 47.0802 34.8195C47.0802 31.9003 48.3282 31.8157 49.2801 31.8157C50.2532 31.8157 51.4801 31.9003 51.4801 34.8195V37.506H51.5013ZM57.0647 25.8503V37.506H53.1301V34.8195C53.1301 30.7791 50.782 30.5041 49.2801 30.5041C47.7782 30.5041 45.4513 30.7791 45.4513 34.8195V35.306C45.4513 37.506 44.2033 37.506 43.336 37.506H37.0745V25.8503H35.4668V38.8387H43.3148C43.9917 38.8387 45.5148 38.9233 46.4032 37.7598C47.2917 38.7118 48.5821 38.8387 49.1744 38.8387H58.6512V26.8657L59.6666 26.5907V25.8503H57.0647Z" fill="#005C4F"/>
<path d="M7.2901 36.6175H6.25357C5.38627 36.6175 3.20745 36.4906 3.20745 34.1426C3.20745 31.2234 5.44973 31.1388 6.40165 31.1388H7.2901V36.6175ZM30.9187 25.8503V37.506H28.0207C27.1957 37.506 25.9688 37.506 25.8842 35.5387V30.5041H24.2765V35.306C24.2765 37.506 22.9861 37.506 22.14 37.506H9.08816C9.00355 37.506 8.91893 37.4425 8.91893 37.3368V30.8849L9.95546 30.5888V29.8484H6.4228C4.92089 29.8484 1.57861 30.1234 1.57861 34.1637C1.57861 37.8868 5.25935 37.9714 6.25357 37.9714H7.2901V38.1829C7.2901 38.5425 7.58625 38.8387 7.94587 38.8387H22.0977C22.7534 38.8387 24.1496 38.9021 25.038 37.9291C25.9265 38.9233 27.3438 38.8387 27.9784 38.8387H32.4841V26.8657L33.4995 26.5907V25.8503H30.9187Z" fill="#005C4F"/>
<path d="M130.743 55.1059C132.33 55.1059 134.255 55.8251 135.312 56.8828L138.803 60.3732C139.331 60.902 140.03 61.177 140.77 61.177C141.51 61.177 142.208 60.8809 142.737 60.3732L146.228 56.8828C147.433 55.6771 149.802 54.8944 151.495 55.1694L156.381 55.952C157.904 56.1847 159.322 55.1482 159.554 53.6463L160.337 48.7598C160.612 47.0675 162.072 45.0579 163.595 44.2752L167.995 42.0329C169.37 41.3349 169.898 39.6637 169.2 38.2887L166.958 33.8888C166.175 32.3657 166.175 29.8696 166.958 28.3465L169.2 23.9466C169.539 23.2908 169.602 22.5293 169.37 21.8312C169.137 21.1331 168.65 20.5408 167.995 20.2024L163.595 17.9601C162.072 17.1774 160.612 15.1678 160.337 13.4755L159.554 8.58901C159.449 7.84863 159.047 7.21402 158.433 6.7698C157.841 6.32557 157.101 6.15634 156.36 6.26211L151.474 7.04479C149.781 7.31979 147.412 6.53711 146.206 5.33135L142.716 1.841C142.187 1.31216 141.489 1.03715 140.749 1.03715C140.008 1.03715 139.31 1.33331 138.781 1.841L135.291 5.33135C134.085 6.53711 131.716 7.31979 130.024 7.04479L125.137 6.26211C123.614 6.02942 122.197 7.06595 121.964 8.56786L121.182 13.4544C120.907 15.1466 119.447 17.1562 117.924 17.9389L113.524 20.1812C112.868 20.5197 112.382 21.0908 112.149 21.81C111.916 22.5081 111.98 23.2696 112.318 23.9254L114.56 28.3254C115.343 29.8484 115.343 32.3446 114.56 33.8676L112.318 38.2676C111.98 38.9234 111.916 39.6849 112.149 40.383C112.382 41.081 112.868 41.6733 113.524 42.0118L117.924 44.2541C119.447 45.0368 120.907 47.0464 121.182 48.7387L121.964 53.6251C122.197 55.1482 123.635 56.1847 125.137 55.9309L130.024 55.1482C130.257 55.1271 130.51 55.1059 130.743 55.1059ZM140.77 61.6212C139.903 61.6212 139.099 61.2828 138.485 60.6905L134.995 57.2001C133.874 56.079 131.674 55.3598 130.108 55.6136L125.222 56.3963C123.466 56.6713 121.816 55.4655 121.541 53.7098L120.759 48.8233C120.505 47.2579 119.151 45.3752 117.734 44.656L113.334 42.4137C112.572 42.0329 112.001 41.356 111.726 40.531C111.451 39.706 111.536 38.8387 111.916 38.0772L114.159 33.6772C114.878 32.26 114.878 29.9542 114.159 28.5369L111.937 24.1158C111.557 23.3543 111.472 22.487 111.747 21.662C112.022 20.837 112.572 20.1812 113.355 19.7793L117.755 17.537C119.172 16.8178 120.526 14.9563 120.78 13.3697L121.562 8.48324C121.837 6.72749 123.487 5.52173 125.243 5.79673L130.13 6.57941C131.695 6.83326 133.895 6.11403 135.016 4.99289L138.506 1.50254C139.12 0.889081 139.924 0.571777 140.791 0.571777C141.658 0.571777 142.462 0.910235 143.076 1.50254L146.566 4.99289C147.687 6.11403 149.887 6.83326 151.452 6.57941L156.339 5.79673C157.185 5.66981 158.031 5.86019 158.729 6.36788C159.427 6.87557 159.893 7.61594 160.02 8.46209L160.802 13.3486C161.056 14.914 162.41 16.7966 163.827 17.5159L168.227 19.7581C168.989 20.1389 169.56 20.8158 169.835 21.6408C170.11 22.4658 170.025 23.3331 169.645 24.0946L167.402 28.4946C166.683 29.9119 166.683 32.2176 167.402 33.6349L169.645 38.0349C170.448 39.6214 169.814 41.5676 168.227 42.3714L163.827 44.6137C162.41 45.3329 161.056 47.1944 160.802 48.781L160.02 53.6675C159.745 55.4232 158.095 56.629 156.339 56.354L151.452 55.5713C149.887 55.3174 147.687 56.0367 146.566 57.1578L143.054 60.6905C142.441 61.2828 141.637 61.6212 140.77 61.6212Z" fill="#005C4F"/>
<path d="M132.139 53.9637C133.98 53.9637 136.137 54.7041 137.364 55.8252L139.564 57.8348C140.939 59.0829 143.076 58.9983 144.345 57.6233L146.354 55.4233C147.729 53.9214 150.522 52.8637 152.553 53.0964L155.514 53.4349C156.402 53.5406 157.291 53.2868 157.989 52.7156C158.687 52.1445 159.152 51.3406 159.237 50.4522L159.576 47.4907C159.808 45.4599 161.437 42.985 163.214 41.9696L165.816 40.4888C166.599 40.0446 167.17 39.3254 167.402 38.4581C167.635 37.5908 167.529 36.6812 167.085 35.8985L165.604 33.2966C164.589 31.5197 164.462 28.5582 165.308 26.6755L166.535 23.9678C167.297 22.2755 166.556 20.2659 164.864 19.4832L162.156 18.2563C160.295 17.4102 158.433 15.0833 158.031 13.0737L157.439 10.1545C157.058 8.33525 155.281 7.15065 153.441 7.51026L150.522 8.10256C148.512 8.50448 145.656 7.7218 144.133 6.34681L141.933 4.33721C140.558 3.08914 138.422 3.17376 137.153 4.54875L135.143 6.74873C133.768 8.25064 130.976 9.30832 128.945 9.07563L125.984 8.73717C125.095 8.6314 124.207 8.88525 123.509 9.4564C122.81 10.0275 122.345 10.8314 122.26 11.7198L121.922 14.6813C121.689 16.7121 120.06 19.1871 118.284 20.2025L115.682 21.6832C114.899 22.1274 114.328 22.8467 114.095 23.714C113.862 24.5813 113.968 25.4909 114.412 26.2736L115.893 28.8755C116.909 30.6524 117.036 33.6139 116.189 35.4965L114.962 38.2042C114.201 39.8965 114.941 41.9061 116.634 42.6888L119.362 43.9157C121.224 44.7618 123.085 47.0888 123.487 49.0984L124.08 52.0176C124.27 52.906 124.778 53.6675 125.539 54.1541C126.301 54.6618 127.189 54.831 128.078 54.6406L130.997 54.0483C131.335 53.9849 131.737 53.9637 132.139 53.9637ZM141.849 59.1675C140.918 59.1675 140.008 58.829 139.268 58.1733L137.068 56.1637C135.651 54.8733 132.964 54.1329 131.082 54.5137L128.162 55.106C127.168 55.3175 126.153 55.106 125.285 54.556C124.439 53.9849 123.847 53.1387 123.635 52.1445L123.043 49.2253C122.662 47.3426 120.928 45.1638 119.172 44.3599L116.464 43.133C115.534 42.71 114.836 41.9484 114.476 40.9965C114.116 40.0446 114.159 39.0081 114.582 38.0773L115.809 35.3696C116.612 33.6139 116.486 30.8427 115.534 29.1504L114.053 26.5486C113.545 25.6601 113.418 24.6236 113.693 23.6505C113.968 22.6563 114.603 21.8524 115.491 21.3448L118.093 19.864C119.764 18.9121 121.309 16.5852 121.52 14.6813L121.859 11.7198C121.964 10.7045 122.472 9.79485 123.276 9.16024C124.08 8.52563 125.074 8.22948 126.089 8.3564L129.051 8.69486C130.955 8.9064 133.578 7.93333 134.868 6.51603L136.878 4.31605C138.295 2.77184 140.728 2.64491 142.272 4.08336L144.472 6.09296C145.889 7.38333 148.576 8.12372 150.458 7.74295L153.378 7.15064C155.451 6.72757 157.46 8.06025 157.883 10.1333L158.476 13.0525C158.856 14.9352 160.591 17.114 162.347 17.9179L165.054 19.1448C166.979 20.0121 167.825 22.2967 166.958 24.2005L165.731 26.9082C164.927 28.6639 165.054 31.4351 166.006 33.1273L167.487 35.7292C167.995 36.6177 168.122 37.6542 167.847 38.6273C167.572 39.6215 166.937 40.4254 166.049 40.933L163.447 42.4138C161.776 43.3657 160.231 45.6926 160.02 47.5964L159.681 50.558C159.576 51.5733 159.068 52.4829 158.264 53.1175C157.46 53.7522 156.466 54.0483 155.451 53.9214L152.489 53.5829C150.585 53.3714 147.962 54.3445 146.672 55.7618L144.662 57.9617C143.922 58.7656 142.885 59.1675 141.849 59.1675Z" fill="#006354"/>
<path d="M133.725 52.8425C135.756 52.8425 138.062 53.5617 139.479 54.704L140.283 55.3809C141.975 56.7771 144.492 56.5444 145.889 54.8521L146.566 54.0482C148.089 52.2079 151.241 50.8329 153.61 50.981L154.667 51.0444C155.725 51.1079 156.74 50.7483 157.544 50.0502C158.348 49.3521 158.814 48.3791 158.877 47.3214L158.94 46.2637C159.089 43.8945 160.844 40.9118 162.833 39.6426L163.721 39.0715C165.562 37.8868 166.112 35.433 164.948 33.5715L164.377 32.683C163.108 30.6734 162.769 27.2466 163.637 25.0254L164.017 24.0524C164.821 22.0005 163.806 19.6947 161.775 18.8909L160.802 18.5101C158.581 17.6428 156.296 15.062 155.704 12.7563L155.45 11.7409C154.9 9.62556 152.721 8.33518 150.606 8.88518L149.591 9.13903C147.285 9.73133 143.921 8.99095 142.081 7.46788L141.277 6.79097C140.452 6.11405 139.416 5.79674 138.358 5.90251C137.3 6.00828 136.348 6.51597 135.671 7.31981L134.994 8.12365C133.471 9.96401 130.32 11.339 127.95 11.1909L126.893 11.1275C125.835 11.064 124.82 11.4236 124.016 12.1217C123.212 12.8198 122.747 13.7928 122.683 14.8505L122.62 15.9082C122.472 18.2774 120.716 21.2601 118.727 22.5293L117.839 23.1004C116.95 23.6716 116.337 24.56 116.104 25.5966C115.872 26.6331 116.062 27.7119 116.633 28.6004L117.204 29.4888C118.473 31.4984 118.812 34.9253 117.945 37.1465L117.564 38.1195C117.183 39.1138 117.204 40.1926 117.627 41.1657C118.05 42.1387 118.833 42.9003 119.806 43.281L120.779 43.6618C123 44.5291 125.285 47.1098 125.877 49.4156L126.131 50.431C126.681 52.5463 128.86 53.8367 130.975 53.2867L131.991 53.0329C132.498 52.9271 133.091 52.8425 133.725 52.8425ZM142.8 56.7348C141.806 56.7348 140.812 56.3963 139.987 55.7194L139.183 55.0425C137.448 53.604 134.254 52.9059 132.075 53.4559L131.06 53.7098C128.691 54.3232 126.279 52.9059 125.666 50.5367L125.412 49.5214C124.841 47.3425 122.683 44.8887 120.589 44.0637L119.616 43.6829C118.516 43.2599 117.648 42.4137 117.183 41.3349C116.718 40.2561 116.697 39.0503 117.12 37.9503L117.5 36.9772C118.325 34.883 118.008 31.6254 116.802 29.7215L116.231 28.8331C115.597 27.8389 115.385 26.6543 115.639 25.4908C115.893 24.3273 116.591 23.3543 117.585 22.7197L118.473 22.1485C120.377 20.9428 122.027 18.1293 122.175 15.8659L122.239 14.8082C122.302 13.6236 122.831 12.5448 123.72 11.7621C124.608 10.9794 125.75 10.5775 126.914 10.6621L127.971 10.7256C130.235 10.8736 133.218 9.5621 134.656 7.8275L135.333 7.02366C136.073 6.11405 137.152 5.5429 138.316 5.43714C139.5 5.33137 140.643 5.66982 141.552 6.43135L142.356 7.10827C144.091 8.54672 147.285 9.24479 149.464 8.6948L150.479 8.44095C152.848 7.8275 155.26 9.24479 155.873 11.614L156.127 12.6294C156.698 14.8082 158.856 17.262 160.95 18.087L161.923 18.4678C164.187 19.3562 165.308 21.937 164.419 24.2004L164.038 25.1735C163.213 27.2677 163.531 30.5254 164.737 32.4292L165.308 33.3177C166.619 35.3696 166.006 38.1195 163.954 39.4311L163.065 40.0022C161.162 41.208 159.512 44.0214 159.363 46.2848L159.3 47.3425C159.237 48.5271 158.708 49.606 157.819 50.3887C156.931 51.1713 155.789 51.5733 154.625 51.4887L153.567 51.4252C151.325 51.2771 148.321 52.5886 146.883 54.3232L146.206 55.1271C145.36 56.1848 144.091 56.7348 142.8 56.7348Z" fill="#006B59"/>
<path d="M135.756 51.679C137.724 51.679 139.881 52.2713 141.277 53.2867C142.166 53.9425 143.266 54.1963 144.366 54.0271C145.466 53.8579 146.439 53.2655 147.073 52.3771C148.533 50.3886 151.727 48.7598 154.202 48.7598H154.223C156.508 48.7598 158.37 46.8983 158.37 44.6137C158.37 42.1387 159.998 38.9445 162.008 37.4849C163.869 36.1311 164.271 33.5292 162.939 31.6888C161.479 29.6792 160.929 26.1466 161.691 23.7773C162.41 21.5985 161.204 19.2505 159.025 18.5312C156.677 17.7697 154.139 15.2313 153.377 12.8621C152.679 10.6832 150.331 9.47748 148.152 10.1967C145.804 10.9582 142.25 10.3871 140.262 8.92749C139.374 8.27172 138.274 8.01788 137.174 8.18711C136.074 8.35634 135.1 8.94864 134.466 9.83709C133.006 11.8255 129.812 13.4544 127.337 13.4544H127.316C125.031 13.4544 123.17 15.3159 123.17 17.6005C123.17 20.0755 121.541 23.2697 119.531 24.7293C118.643 25.385 118.051 26.3369 117.881 27.4369C117.712 28.5369 117.966 29.6369 118.622 30.5254C120.081 32.535 120.631 36.0676 119.87 38.4368C119.531 39.4945 119.616 40.6157 120.124 41.6099C120.631 42.6041 121.478 43.3445 122.535 43.6829C124.883 44.4445 127.422 46.9829 128.183 49.3521C128.881 51.5309 131.229 52.7367 133.408 52.0175C134.085 51.7848 134.91 51.679 135.756 51.679ZM143.71 54.5136C142.737 54.5136 141.806 54.2175 141.024 53.6463C139.12 52.2713 135.756 51.7213 133.514 52.4406C131.102 53.2232 128.501 51.8906 127.718 49.479C126.999 47.2368 124.587 44.8252 122.345 44.106C121.181 43.7252 120.229 42.9214 119.679 41.8214C119.129 40.7214 119.024 39.4734 119.404 38.3099C120.124 36.0676 119.616 32.7042 118.22 30.8004C117.501 29.8061 117.204 28.6004 117.416 27.3735C117.606 26.1466 118.262 25.0889 119.256 24.3697C121.16 22.9947 122.704 19.9485 122.704 17.6005C122.704 15.062 124.777 13.0101 127.295 13.0101H127.316C129.664 13.0101 132.689 11.4659 134.085 9.5621C134.804 8.56788 135.862 7.93326 137.089 7.74288C138.316 7.5525 139.522 7.84865 140.516 8.56787C142.42 9.94286 145.783 10.4929 148.025 9.77363C150.437 8.99095 153.039 10.3236 153.821 12.7351C154.541 14.9774 156.952 17.3889 159.194 18.1082C161.606 18.8909 162.918 21.4928 162.135 23.9043C161.416 26.1466 161.944 29.51 163.319 31.4138C164.8 33.4657 164.356 36.3426 162.283 37.8445C160.379 39.2195 158.835 42.2657 158.835 44.6137C158.835 47.1521 156.762 49.204 154.245 49.204H154.223C151.875 49.204 148.829 50.7483 147.454 52.6521C146.735 53.6463 145.677 54.2809 144.45 54.4713C144.197 54.4925 143.943 54.5136 143.71 54.5136Z" fill="#00735E"/>
<path d="M138.147 50.3464C139.776 50.3464 141.489 50.7483 142.674 51.4887C143.541 52.0387 144.556 52.2079 145.551 51.9752C146.545 51.7425 147.391 51.1502 147.941 50.2829C149.147 48.3368 152.002 46.6233 154.287 46.4753C155.302 46.4118 156.233 45.9464 156.91 45.1637C157.587 44.381 157.904 43.408 157.841 42.3926C157.693 40.108 158.983 37.0407 160.739 35.5811C162.347 34.2273 162.558 31.8158 161.225 30.1869C159.745 28.4312 159.004 25.1947 159.575 22.9735C160.083 20.9216 158.835 18.8486 156.804 18.3409C154.583 17.7909 152.087 15.6121 151.22 13.4756C150.839 12.5236 150.12 11.7833 149.168 11.3813C148.237 10.9794 147.179 10.9583 146.249 11.339C144.133 12.1852 140.812 11.9102 138.866 10.6833C137.089 9.56212 134.72 10.1121 133.599 11.889C132.372 13.8352 129.537 15.5486 127.253 15.6967C125.158 15.8448 123.551 17.664 123.699 19.7793C123.847 22.0639 122.557 25.1312 120.801 26.5908C119.193 27.9447 118.982 30.3562 120.314 31.985C121.795 33.7408 122.535 36.9773 121.964 39.1984C121.71 40.1926 121.88 41.208 122.387 42.0965C122.916 42.9638 123.741 43.5984 124.735 43.8311C126.957 44.3811 129.453 46.5599 130.32 48.6964C130.701 49.6483 131.42 50.3887 132.372 50.7906C133.303 51.1925 134.36 51.2137 135.291 50.8329C136.137 50.4945 137.131 50.3464 138.147 50.3464ZM144.704 52.5041C143.922 52.5041 143.139 52.2925 142.462 51.8483C140.622 50.706 137.491 50.431 135.481 51.2348C134.424 51.6579 133.26 51.6368 132.224 51.1925C131.166 50.7483 130.362 49.9233 129.939 48.8656C129.135 46.856 126.766 44.783 124.651 44.2753C123.551 44.0003 122.62 43.3022 122.028 42.3291C121.435 41.3561 121.266 40.1926 121.541 39.0926C122.07 36.9984 121.372 33.9311 119.976 32.26C118.474 30.4619 118.707 27.7543 120.505 26.2524C122.176 24.8562 123.403 21.9793 123.255 19.8005C123.085 17.4524 124.862 15.4217 127.21 15.2525C129.368 15.1044 132.076 13.4967 133.218 11.6563C134.466 9.66789 137.11 9.05444 139.099 10.3025C140.939 11.4448 144.07 11.7198 146.079 10.916C147.137 10.4929 148.279 10.514 149.337 10.9583C150.395 11.4025 151.199 12.2275 151.622 13.2852C152.426 15.2948 154.795 17.3678 156.91 17.8755C159.195 18.4467 160.591 20.7736 160.02 23.0582C159.491 25.1524 160.189 28.2196 161.585 29.8908C163.087 31.6888 162.854 34.3965 161.056 35.8984C159.385 37.2946 158.158 40.1715 158.306 42.3503C158.391 43.4926 158.01 44.5714 157.27 45.4387C156.529 46.306 155.493 46.8137 154.351 46.8983C152.193 47.0464 149.485 48.6541 148.343 50.4945C147.751 51.4464 146.799 52.1233 145.678 52.3771C145.339 52.4829 145.022 52.5041 144.704 52.5041Z" fill="#007D63"/>
<path d="M140.601 48.9501C141.87 48.9501 143.118 49.2039 144.091 49.6905C145.804 50.5789 147.941 49.902 148.829 48.1885C149.802 46.3059 152.298 44.5078 154.393 44.1905C156.297 43.8944 157.629 42.0963 157.333 40.1925C157.016 38.0983 157.989 35.1791 159.491 33.6771C160.866 32.3233 160.887 30.081 159.512 28.706C158.031 27.2041 157.079 24.2638 157.439 22.1695C157.587 21.2388 157.375 20.3292 156.825 19.5465C156.275 18.785 155.472 18.2773 154.541 18.1292C152.447 17.7907 149.972 15.9715 149.02 14.0677C148.597 13.2427 147.877 12.6081 146.989 12.312C146.1 12.0158 145.149 12.0793 144.302 12.5023C142.399 13.4542 139.331 13.4331 137.449 12.46C136.624 12.037 135.672 11.9523 134.762 12.2273C133.874 12.5023 133.133 13.1158 132.71 13.9619C131.737 15.8446 129.241 17.6427 127.147 17.96C125.243 18.2561 123.91 20.0542 124.206 21.958C124.524 24.0522 123.551 26.9714 122.049 28.4522C120.674 29.806 120.653 32.0483 122.028 33.4233C123.508 34.9252 124.439 37.8656 124.101 39.9598C123.953 40.8905 124.164 41.8001 124.714 42.5828C125.264 43.3444 126.068 43.8521 126.999 44.0001C129.093 44.3386 131.568 46.1578 132.52 48.0616C132.943 48.8866 133.662 49.5212 134.551 49.8174C135.439 50.1135 136.391 50.0501 137.237 49.627C138.168 49.1828 139.374 48.9501 140.601 48.9501ZM145.699 50.5366C145.085 50.5366 144.472 50.3885 143.879 50.0924C142.102 49.1828 139.204 49.1616 137.427 50.0501C136.497 50.5154 135.418 50.6001 134.403 50.2616C133.387 49.9231 132.583 49.2251 132.118 48.2943C131.229 46.5174 128.903 44.804 126.914 44.4655C125.878 44.2963 124.968 43.7251 124.355 42.8578C123.741 41.9905 123.487 40.954 123.656 39.9175C123.974 37.9502 123.106 35.2002 121.71 33.7618C120.187 32.2175 120.187 29.7003 121.753 28.1772C123.17 26.7811 124.08 24.0311 123.783 22.0638C123.445 19.9061 124.947 17.8965 127.104 17.5581C129.072 17.2619 131.42 15.5696 132.351 13.7927C132.837 12.8619 133.662 12.1639 134.656 11.8466C135.672 11.5293 136.729 11.6139 137.681 12.1004C139.458 13.01 142.356 13.0312 144.133 12.1427C145.064 11.6773 146.143 11.5927 147.158 11.9312C148.174 12.2696 148.977 12.9677 149.443 13.8985C150.331 15.6754 152.658 17.3888 154.647 17.7273C155.683 17.8965 156.593 18.4677 157.206 19.335C157.82 20.2023 158.073 21.2388 157.904 22.2753C157.587 24.2426 158.454 26.9926 159.85 28.431C161.373 29.9753 161.373 32.4925 159.808 34.0156C158.391 35.4117 157.481 38.1617 157.777 40.129C158.116 42.2867 156.614 44.2963 154.456 44.6347C152.489 44.9309 150.141 46.6232 149.21 48.4001C148.512 49.7539 147.116 50.5366 145.699 50.5366Z" fill="#008769"/>
<path d="M134.868 14.0467C133.577 14.0467 132.372 14.8082 131.864 16.0774C131.123 17.8967 128.987 19.7793 127.083 20.2659C125.349 20.7101 124.312 22.4658 124.735 24.1793C125.222 26.0831 124.587 28.8754 123.318 30.3773C122.768 31.0331 122.514 31.8792 122.577 32.7465C122.662 33.6138 123.064 34.3965 123.72 34.9465C125.222 36.2157 126.343 38.8176 126.216 40.7849C126.089 42.5618 127.443 44.106 129.22 44.233C131.187 44.3599 133.62 45.8195 134.677 47.4906C135.143 48.2098 135.862 48.7175 136.687 48.9079C137.533 49.0983 138.4 48.9502 139.12 48.506C140.791 47.4695 143.625 47.1945 145.444 47.9348C146.248 48.2521 147.116 48.2522 147.919 47.8925C148.723 47.5541 149.337 46.9195 149.654 46.1368C150.394 44.3176 152.531 42.4349 154.435 41.9484C156.169 41.5041 157.206 39.7484 156.783 38.0349C156.296 36.1311 156.931 33.36 158.2 31.8369C158.75 31.1811 159.004 30.335 158.941 29.4677C158.856 28.6004 158.454 27.8177 157.798 27.2677C156.296 25.9985 155.175 23.3966 155.302 21.4293C155.429 19.6524 154.075 18.1082 152.298 17.9813C150.331 17.8543 147.898 16.3947 146.841 14.7236C145.889 13.2217 143.9 12.7563 142.377 13.7082C140.706 14.7448 137.871 15.0198 136.052 14.2794C135.672 14.1313 135.27 14.0467 134.868 14.0467ZM137.448 49.4156C137.173 49.4156 136.898 49.3945 136.623 49.331C135.672 49.1195 134.847 48.5271 134.339 47.7022C133.366 46.1368 131.06 44.7829 129.22 44.656C127.189 44.5291 125.666 42.7733 125.793 40.7426C125.92 38.9022 124.862 36.4484 123.445 35.2638C122.704 34.6292 122.239 33.7619 122.154 32.7677C122.07 31.7946 122.366 30.8427 122.979 30.0812C124.164 28.6639 124.756 26.062 124.312 24.2851C123.825 22.3178 125.01 20.3293 126.977 19.8216C128.754 19.3774 130.764 17.6217 131.462 15.9082C132.223 14.0255 134.36 13.1159 136.243 13.8563C137.956 14.5332 140.621 14.3005 142.166 13.3275C142.991 12.7986 143.985 12.6505 144.937 12.8621C145.889 13.0736 146.714 13.6659 147.221 14.4909C148.194 16.0563 150.5 17.4101 152.341 17.537C154.371 17.664 155.894 19.4197 155.767 21.4505C155.641 23.2908 156.698 25.7447 158.116 26.9293C158.877 27.5639 159.321 28.4312 159.427 29.4254C159.512 30.3985 159.216 31.3504 158.602 32.1119C157.417 33.5292 156.825 36.1311 157.269 37.908C157.756 39.8753 156.571 41.8637 154.604 42.3714C152.827 42.8157 150.818 44.5714 150.119 46.2849C149.76 47.1945 149.062 47.9137 148.152 48.2945C147.243 48.6752 146.248 48.6964 145.339 48.3368C143.625 47.6598 140.96 47.8925 139.416 48.8656C138.802 49.2252 138.125 49.4156 137.448 49.4156Z" fill="#0A8F6E"/>
<path d="M131.674 44.3809C133.472 44.3809 135.777 45.4598 136.877 46.8348C137.364 47.4482 138.083 47.8501 138.887 47.9347C139.691 48.0194 140.473 47.8078 141.087 47.3001C142.525 46.1578 145.127 45.629 146.883 46.1155C147.645 46.3271 148.448 46.2213 149.146 45.8405C149.845 45.4386 150.352 44.804 150.564 44.0425C151.05 42.2867 152.848 40.3194 154.562 39.6637C156.106 39.0925 156.889 37.3579 156.318 35.8137C155.683 34.1003 155.979 31.4561 156.973 29.933C157.883 28.558 157.502 26.6965 156.127 25.7869C154.604 24.7715 153.293 22.4658 153.208 20.6465C153.144 18.9966 151.727 17.7273 150.098 17.7908C148.279 17.8754 145.846 16.7754 144.704 15.337C144.218 14.7235 143.498 14.3216 142.695 14.237C141.891 14.1524 141.108 14.3639 140.495 14.8716C139.056 16.0139 136.454 16.5427 134.698 16.0562C133.937 15.8447 133.133 15.9504 132.435 16.3312C131.737 16.7331 131.229 17.3677 131.018 18.1293C130.531 19.885 128.733 21.8523 127.02 22.5081C126.279 22.7831 125.687 23.333 125.349 24.0734C125.01 24.7927 124.989 25.6176 125.264 26.358C125.899 28.0715 125.602 30.7157 124.608 32.2387C124.164 32.8945 124.016 33.6983 124.185 34.481C124.354 35.2637 124.799 35.9406 125.454 36.3849C126.977 37.4002 128.289 39.706 128.374 41.5252C128.458 43.1752 129.854 44.4444 131.483 44.3809C131.547 44.3809 131.61 44.3809 131.674 44.3809ZM139.225 48.4001C139.098 48.4001 138.972 48.4001 138.823 48.379C137.914 48.2732 137.089 47.829 136.518 47.1098C135.46 45.7771 133.197 44.7617 131.483 44.8252C129.579 44.9098 127.993 43.4502 127.908 41.5464C127.824 39.8329 126.618 37.6964 125.179 36.7445C124.418 36.2368 123.889 35.4753 123.72 34.5656C123.529 33.656 123.72 32.7464 124.206 31.9849C125.137 30.5676 125.433 28.0926 124.82 26.5061C124.502 25.66 124.524 24.7292 124.904 23.883C125.285 23.0369 125.962 22.4023 126.829 22.085C128.437 21.4927 130.108 19.6523 130.552 18.0023C130.785 17.1139 131.377 16.3946 132.16 15.9293C132.964 15.485 133.895 15.3581 134.762 15.612C136.412 16.0562 138.823 15.5697 140.177 14.512C140.897 13.9408 141.785 13.687 142.695 13.7928C143.604 13.8985 144.429 14.3427 145 15.062C146.058 16.3947 148.343 17.41 150.035 17.3466C151.939 17.262 153.525 18.7216 153.61 20.6254C153.694 22.3388 154.9 24.4754 156.339 25.4273C157.925 26.4638 158.348 28.6003 157.312 30.1868C156.381 31.6041 156.085 34.0791 156.698 35.6656C157.354 37.4425 156.466 39.4098 154.689 40.0867C153.081 40.6791 151.41 42.5194 150.966 44.1694C150.733 45.0579 150.141 45.7771 149.358 46.2425C148.554 46.6867 147.623 46.8136 146.756 46.5598C145.106 46.0944 142.673 46.6021 141.341 47.6598C140.727 48.1463 139.987 48.4001 139.225 48.4001Z" fill="#1F9973"/>
<path d="M134.55 44.4443C136.137 44.4443 137.999 45.1213 139.056 46.1366C140.156 47.1943 141.912 47.1732 142.991 46.0732C144.175 44.8463 146.545 44.0424 148.237 44.2751C148.956 44.3809 149.697 44.1905 150.289 43.7463C150.881 43.302 151.262 42.6463 151.368 41.9271C151.6 40.2348 153.039 38.1829 154.562 37.4002C155.218 37.0617 155.704 36.4694 155.916 35.7502C156.127 35.031 156.064 34.2906 155.725 33.6348C154.921 32.1118 154.879 29.6368 155.641 28.0926C156.318 26.7176 155.746 25.0465 154.371 24.3695C152.827 23.608 151.346 21.6196 151.05 19.9273C150.923 19.208 150.522 18.5734 149.908 18.1292C149.295 17.7061 148.554 17.5369 147.835 17.6638C146.143 17.96 143.773 17.2196 142.525 16.035C141.425 14.9773 139.67 14.9985 138.591 16.0985C137.406 17.3254 135.037 18.1292 133.345 17.8965C132.625 17.7907 131.885 17.9811 131.293 18.4254C130.701 18.8696 130.32 19.5253 130.214 20.2446C129.981 21.9369 128.543 23.9888 127.02 24.7926C126.364 25.1311 125.877 25.7234 125.666 26.4214C125.454 27.1407 125.518 27.881 125.856 28.5368C126.66 30.0599 126.702 32.5348 125.941 34.0791C125.264 35.454 125.835 37.1252 127.21 37.8021C128.754 38.5636 130.235 40.5521 130.531 42.2444C130.658 42.9636 131.06 43.5982 131.674 44.0424C132.287 44.4655 133.027 44.6347 133.747 44.5078C134 44.4655 134.275 44.4443 134.55 44.4443ZM140.981 47.3636C140.177 47.3636 139.374 47.0674 138.739 46.4539C137.597 45.354 135.397 44.677 133.831 44.952C132.985 45.1001 132.139 44.9097 131.42 44.402C130.722 43.9155 130.235 43.1751 130.087 42.329C129.812 40.7636 128.437 38.9233 126.999 38.2252C125.412 37.4425 124.735 35.5175 125.518 33.9098C126.216 32.4714 126.174 30.1656 125.433 28.7695C125.031 28.008 124.947 27.1407 125.201 26.3157C125.454 25.4907 126.004 24.8138 126.766 24.4118C128.162 23.6715 129.495 21.7888 129.727 20.2023C129.854 19.3561 130.299 18.5946 130.976 18.0869C131.674 17.5581 132.52 17.3465 133.366 17.4734C134.931 17.7061 137.131 16.9446 138.231 15.8023C139.458 14.5331 141.51 14.4908 142.779 15.7388C143.922 16.8388 146.122 17.5157 147.687 17.2407C148.533 17.0927 149.379 17.2831 150.098 17.7907C150.796 18.2773 151.283 19.0177 151.431 19.8638C151.706 21.4292 153.081 23.2695 154.52 23.9676C156.106 24.7503 156.783 26.6753 156 28.283C155.302 29.7214 155.345 32.0272 156.085 33.4233C156.487 34.1848 156.571 35.0521 156.318 35.8771C156.064 36.7021 155.514 37.379 154.752 37.7809C153.356 38.5213 152.023 40.404 151.791 41.9905C151.664 42.8367 151.22 43.5982 150.543 44.1059C149.845 44.6136 148.998 44.8463 148.152 44.7194C146.587 44.4867 144.387 45.2482 143.287 46.3905C142.652 47.0462 141.827 47.3636 140.981 47.3636Z" fill="#2BA378"/>
<path d="M137.66 44.1272C138.929 44.1272 140.304 44.5079 141.193 45.1425C142.335 45.9675 143.943 45.7137 144.768 44.5714C145.699 43.281 147.772 42.2233 149.358 42.2233C150.035 42.2233 150.691 41.9483 151.177 41.4618C151.664 40.9753 151.939 40.3407 151.918 39.6426C151.918 38.0349 152.954 35.983 154.245 35.0311C155.387 34.2061 155.641 32.5984 154.795 31.4561C153.843 30.1658 153.483 27.8812 153.97 26.3581C154.181 25.7023 154.118 25.0043 153.8 24.412C153.483 23.7985 152.954 23.3543 152.298 23.1427C150.775 22.6562 149.125 21.0274 148.639 19.5043C148.427 18.8485 147.962 18.3197 147.37 18.0236C146.756 17.7062 146.058 17.6639 145.402 17.8755C143.879 18.3832 141.595 18.0236 140.304 17.0716C139.754 16.6697 139.077 16.5216 138.401 16.6274C137.724 16.7332 137.131 17.0928 136.729 17.6639C135.799 18.9543 133.726 20.012 132.139 20.012C130.722 20.012 129.579 21.1754 129.579 22.5927C129.579 24.2004 128.543 26.2523 127.253 27.2042C126.703 27.6062 126.343 28.1985 126.237 28.8754C126.131 29.5523 126.301 30.2292 126.703 30.7792C127.654 32.0696 128.014 34.3542 127.528 35.8772C127.316 36.533 127.379 37.2311 127.697 37.8234C128.014 38.4368 128.543 38.8811 129.199 39.0926C130.722 39.5791 132.372 41.208 132.858 42.731C133.302 44.0849 134.741 44.8041 136.095 44.381C136.56 44.1906 137.089 44.1272 137.66 44.1272ZM142.695 46.0733C142.081 46.0733 141.468 45.8829 140.939 45.5021C139.754 44.656 137.618 44.3175 136.243 44.7618C134.677 45.2695 132.964 44.4233 132.456 42.8368C132.012 41.4618 130.468 39.9176 129.072 39.4734C128.31 39.2195 127.697 38.6907 127.316 37.9714C126.956 37.2522 126.872 36.4484 127.126 35.6869C127.57 34.3119 127.231 32.1542 126.364 30.9907C125.899 30.335 125.708 29.5523 125.814 28.7485C125.941 27.9446 126.364 27.2465 127.02 26.7812C128.183 25.935 129.178 23.9889 129.178 22.5293C129.178 20.8793 130.51 19.5255 132.181 19.5043C133.641 19.5043 135.566 18.5101 136.412 17.3255C136.877 16.6697 137.576 16.2466 138.379 16.1197C139.183 15.9928 139.966 16.1832 140.622 16.6486C141.806 17.4947 143.943 17.8332 145.339 17.3889C146.1 17.1351 146.904 17.1986 147.624 17.5582C148.343 17.9178 148.872 18.5524 149.125 19.2928C149.57 20.6678 151.114 22.212 152.51 22.6562C153.272 22.91 153.885 23.4389 154.266 24.1581C154.625 24.8773 154.71 25.6812 154.456 26.4427C154.012 27.8177 154.35 29.9754 155.218 31.1388C155.683 31.7946 155.873 32.5773 155.768 33.3811C155.641 34.1849 155.218 34.883 154.583 35.3484C153.42 36.1945 152.425 38.1407 152.425 39.6003C152.425 40.4041 152.108 41.1656 151.537 41.7368C150.966 42.3079 150.225 42.6253 149.422 42.6253C147.962 42.6253 146.037 43.6195 145.191 44.8041C144.556 45.6502 143.625 46.0733 142.695 46.0733Z" fill="#38AB7D"/>
<path d="M140.77 43.3657C141.637 43.3657 142.504 43.5349 143.16 43.8734C143.71 44.1484 144.366 44.2118 144.958 44.0214C145.55 43.8311 146.037 43.408 146.333 42.858C147.01 41.5253 148.744 40.2772 150.225 40.0446C151.516 39.833 152.383 38.6273 152.192 37.3369C151.96 35.8773 152.616 33.8254 153.673 32.7677C154.117 32.3235 154.371 31.7312 154.371 31.0966C154.371 30.462 154.117 29.8697 153.673 29.4254C152.616 28.3677 151.96 26.337 152.192 24.8562C152.404 23.5659 151.516 22.3601 150.225 22.1486C148.766 21.9159 147.01 20.6467 146.333 19.3351C146.058 18.7851 145.55 18.3621 144.958 18.1717C144.366 17.9813 143.71 18.0236 143.16 18.3198C141.827 18.9967 139.691 18.9967 138.358 18.3198C137.808 18.0448 137.152 17.9813 136.56 18.1717C135.968 18.3621 135.46 18.7851 135.185 19.3351C134.508 20.6678 132.773 21.9159 131.293 22.1486C130.679 22.2543 130.129 22.5716 129.748 23.1005C129.368 23.6082 129.22 24.2428 129.325 24.8562C129.558 26.3158 128.902 28.3677 127.845 29.4254C127.4 29.8697 127.147 30.462 127.147 31.0966C127.147 31.7312 127.4 32.3235 127.845 32.7677C128.902 33.8254 129.558 35.8561 129.325 37.3369C129.22 37.9503 129.389 38.585 129.748 39.0926C130.129 39.6003 130.658 39.9388 131.293 40.0446C132.752 40.2772 134.508 41.5465 135.185 42.858C135.46 43.408 135.968 43.8311 136.56 44.0214C137.152 44.2118 137.808 44.1695 138.358 43.8734C139.035 43.5349 139.902 43.3657 140.77 43.3657ZM144.239 44.5714C143.794 44.5714 143.371 44.4657 142.969 44.2753C141.785 43.6618 139.754 43.6618 138.57 44.2753C137.914 44.6137 137.152 44.6772 136.433 44.4445C135.714 44.2118 135.143 43.7253 134.804 43.0484C134.191 41.8638 132.562 40.6792 131.25 40.4676C130.51 40.3407 129.875 39.9599 129.431 39.3465C128.987 38.733 128.818 37.9927 128.923 37.2523C129.135 35.9407 128.5 34.0158 127.57 33.0639C127.041 32.535 126.745 31.8369 126.745 31.0754C126.745 30.335 127.041 29.6158 127.57 29.087C128.522 28.1351 129.135 26.2312 128.923 24.8985C128.797 24.1582 128.987 23.4178 129.431 22.8043C129.875 22.1909 130.531 21.789 131.25 21.6832C132.562 21.4717 134.191 20.287 134.804 19.1024C135.143 18.4467 135.714 17.939 136.433 17.7063C137.152 17.4736 137.914 17.5371 138.57 17.8755C139.754 18.489 141.785 18.489 142.969 17.8755C143.625 17.5371 144.387 17.4736 145.106 17.7063C145.825 17.939 146.396 18.4255 146.735 19.1024C147.348 20.287 148.977 21.4717 150.289 21.6832C151.812 21.9159 152.869 23.3543 152.616 24.8985C152.404 26.2101 153.039 28.1351 153.969 29.087C154.498 29.6158 154.794 30.3139 154.794 31.0754C154.794 31.8158 154.498 32.535 153.969 33.0639C153.017 34.0158 152.404 35.9196 152.616 37.2523C152.848 38.7753 151.812 40.2138 150.289 40.4676C148.977 40.6792 147.348 41.8638 146.735 43.0484C146.396 43.7041 145.825 44.2118 145.106 44.4445C144.81 44.5291 144.535 44.5714 144.239 44.5714Z" fill="#42BA82"/>
<path d="M149.676 33.6139L149.295 33.4869C148.703 33.2966 148.026 33.2119 147.264 33.2119C145.36 33.2331 143.203 33.8465 141.447 34.8619C140.939 31.8581 141.172 28.3889 141.256 27.4793C141.976 27.8812 142.864 28.6639 143.435 30.7793L143.52 31.0543L143.562 30.7793C143.985 28.4101 142.378 26.887 142.314 26.8235C142.378 26.8235 142.801 26.8235 143.414 27.1197C143.985 27.3735 144.831 27.9447 145.656 29.1504L145.826 29.4043L145.762 29.087C145.149 26.062 142.674 25.4486 142.526 25.4062C142.568 25.3851 143.351 24.8139 145.699 25.5755L145.91 25.6389L145.762 25.4697C144.324 23.7774 142.145 24.2428 141.891 24.2851C141.976 24.0947 142.335 23.6293 143.055 23.1216L143.266 22.9736L142.991 23.0159C141.806 23.1851 141.151 23.7351 141.003 23.9466C140.981 23.6928 140.939 23.2063 140.77 22.8466L140.706 22.7197L140.643 22.8466C140.495 23.2063 140.431 23.6928 140.41 23.9466C140.262 23.7563 139.606 23.1851 138.422 23.0159L138.147 22.9736L138.358 23.1216C139.078 23.6082 139.416 24.0736 139.522 24.2851C139.31 24.2428 137.089 23.7774 135.651 25.4697L135.503 25.6389L135.714 25.5755C138.062 24.7928 138.866 25.3639 138.887 25.4062C138.739 25.4486 136.264 26.062 135.651 29.087L135.587 29.4043L135.756 29.1504C136.581 27.9447 137.428 27.3735 137.999 27.1197C138.591 26.8447 139.014 26.8235 139.099 26.8235C139.035 26.887 137.428 28.4101 137.851 30.7793L137.893 31.0543L137.978 30.7793C138.549 28.6639 139.437 27.9024 140.156 27.4793C140.22 28.3678 140.453 31.8581 139.966 34.8619C138.21 33.8465 136.053 33.2331 134.149 33.2119C134.128 33.2119 134.085 33.2119 134.064 33.2119C133.324 33.2119 132.668 33.2966 132.118 33.4869L131.737 33.6139H132.139C135.46 33.6139 137.47 34.4389 139.776 35.8561C139.733 35.8985 139.67 35.9408 139.606 35.9831C138.655 36.66 136.433 38.2677 135.333 38.2677C135.143 38.2677 134.974 38.2465 134.805 38.2042L134.593 38.1407L134.762 38.3311C134.889 38.4792 135.206 38.86 135.778 38.86C137.131 38.86 138.993 37.5696 140.114 36.7869C140.326 36.6388 140.516 36.5119 140.643 36.4273C140.791 36.5119 140.981 36.6388 141.193 36.7869C142.314 37.5696 144.176 38.86 145.529 38.86C146.101 38.86 146.397 38.5004 146.545 38.3311L146.714 38.1407L146.503 38.2042C146.354 38.2465 146.164 38.2677 145.974 38.2677C144.874 38.2677 142.653 36.66 141.701 35.9831C141.637 35.9408 141.574 35.8985 141.531 35.8561C143.837 34.4389 145.847 33.6139 149.168 33.6139H149.676Z" fill="#005C4F"/>
</svg>
