<svg width="150" height="54" viewBox="0 0 150 54" fill="none" xmlns="http://www.w3.org/2000/svg">
<path d="M145.368 27.3082L136.822 22.337V12.4583C136.822 9.64485 135.32 7.04295 132.887 5.64681L126.097 1.73339C123.664 0.337244 120.682 0.337244 118.249 1.73339L111.438 5.66797C109.005 7.06411 107.524 9.666 107.503 12.4583V22.3582L98.9146 27.3082C96.4819 28.7043 95.0011 31.3062 94.98 34.0985V41.9465C94.98 44.7599 96.4819 47.3407 98.9146 48.7368L105.705 52.6714C108.138 54.0675 111.12 54.0675 113.553 52.6714L122.12 47.7214L130.687 52.6714C133.12 54.0675 136.103 54.0675 138.535 52.6714L145.368 48.758C147.801 47.3618 149.281 44.7599 149.303 41.9676V34.1196C149.303 31.3062 147.801 28.7043 145.368 27.3082ZM111.797 12.4794C111.797 11.2102 112.474 10.0256 113.574 9.391L120.386 5.45643C121.486 4.82182 122.861 4.82182 123.96 5.45643L130.772 9.391C131.872 10.0256 132.549 11.2102 132.549 12.4794V19.9044L126.668 16.5198C123.876 14.9121 120.449 14.9121 117.657 16.5198L111.797 19.9044V12.4794ZM111.438 48.9695C110.338 49.6041 108.963 49.6041 107.863 48.9695L101.072 45.0349C99.9722 44.4003 99.2742 43.2157 99.2742 41.9465V34.0985C99.2742 32.8293 99.9511 31.6447 101.051 31.01L107.503 27.287V34.0985C107.503 37.3138 109.216 40.2965 111.988 41.9253L117.826 45.2888L111.438 48.9695ZM122.162 42.8138L114.166 38.2023C112.707 37.3561 111.797 35.7908 111.797 34.0985V24.8332L119.793 20.2217C121.253 19.3755 123.072 19.3755 124.532 20.2217L132.528 24.8332V34.0773C132.528 35.7696 131.618 37.335 130.159 38.1811L122.162 42.8138ZM145.051 41.9465C145.051 43.2157 144.374 44.4003 143.253 45.0349L136.441 48.9695C135.341 49.6041 133.966 49.6041 132.866 48.9695L126.457 45.2676L132.316 41.9253C135.108 40.3176 136.822 37.335 136.822 34.1196V27.287L143.274 31.01C144.374 31.6447 145.072 32.8293 145.072 34.0985L145.051 41.9465Z" fill="#231BFF"/>
<path d="M24.2632 29.1061C24.2632 29.6773 24.7286 30.1426 25.2997 30.1426C25.8709 30.1426 26.3362 29.6773 26.3362 29.1061C26.3362 28.535 25.8709 28.0696 25.2997 28.0696C24.7286 28.0696 24.2843 28.535 24.2632 29.1061Z" fill="#231BFF"/>
<path d="M45.6496 17.0063H43.8516V26.5255H45.6496V17.0063Z" fill="#231BFF"/>
<path d="M11.3595 26.5256V21.1314H10.4922C9.41332 21.1314 8.79986 22.0198 8.79986 23.0564V26.5044H4.0826C3.13068 26.5467 2.19992 26.1659 1.523 25.5102C0.909548 24.8333 0.57109 23.966 0.592244 23.0564C0.57109 22.1467 0.909548 21.2794 1.523 20.6237L2.83453 21.7237C2.53838 22.1044 2.39031 22.591 2.39031 23.0564C2.36915 23.5429 2.53838 24.0294 2.83453 24.4102C3.13068 24.791 3.59606 25.0025 4.0826 24.9813H7.0018V23.0352C6.93834 21.1948 8.39795 19.6506 10.2383 19.5872C10.3229 19.5872 10.4075 19.5872 10.4922 19.5872H13.1575V24.9813H19.4613C19.3767 24.7275 19.3132 24.4525 19.3132 24.1775V23.0352C19.3344 22.5487 19.1652 22.0833 18.869 21.7025C18.2767 21.0045 17.2402 20.941 16.5421 21.5333C16.4786 21.5968 16.4152 21.6391 16.3729 21.7025L15.0613 20.6237C16.4998 19.2487 18.7632 19.2487 20.2017 20.6237C20.8151 21.2794 21.1536 22.1467 21.1324 23.0564V24.3679C21.1324 24.7063 21.4074 24.9813 21.7459 24.9813H26.7382C26.6536 24.7275 26.5901 24.4525 26.5901 24.1775V23.0352C26.5901 22.5487 26.442 22.0833 26.1459 21.7025C25.5536 21.0045 24.517 20.941 23.819 21.5333C23.7555 21.5968 23.692 21.6391 23.6497 21.7025L22.3382 20.6237C23.7767 19.2487 26.0401 19.2487 27.4785 20.6237C28.092 21.2794 28.4305 22.1467 28.4093 23.0564V24.3679C28.4093 24.7063 28.6843 24.9813 29.0228 24.9813H29.467V26.5256H11.3595Z" fill="#231BFF"/>
<path d="M5.07697 29.1061C5.07697 28.535 4.61159 28.0696 4.04044 28.0696C3.46929 28.0696 3.00391 28.535 3.00391 29.1061C3.00391 29.6773 3.46929 30.1426 4.04044 30.1426C4.61159 30.1426 5.07697 29.6773 5.07697 29.1061Z" fill="#231BFF"/>
<path d="M52.8207 19.291C53.3919 19.291 53.8572 18.8256 53.8784 18.2545C53.8784 17.6833 53.413 17.2179 52.8419 17.1968C52.2707 17.1968 51.8053 17.6622 51.7842 18.2333C51.7842 18.8256 52.2496 19.291 52.8207 19.291Z" fill="#231BFF"/>
<path d="M7.02286 28.0696C6.45171 28.0696 5.98633 28.535 5.98633 29.1061C5.98633 29.6773 6.45171 30.1426 7.02286 30.1426C7.594 30.1426 8.05939 29.6773 8.05939 29.1061C8.05939 28.535 7.61516 28.0696 7.02286 28.0696Z" fill="#231BFF"/>
<path d="M56.7764 19.587C54.936 19.5024 53.3707 20.9409 53.2861 22.7812C53.2861 22.8659 53.2861 22.9505 53.2861 23.0351C53.2861 23.712 53.4553 24.3889 53.8149 24.9601H51.4457C50.9591 24.9812 50.4938 24.7697 50.1976 24.3889C49.9015 24.0082 49.7534 23.5216 49.7534 23.0351C49.7534 22.5486 49.9015 22.0832 50.1976 21.7024L48.9072 20.6236C47.6592 22.0197 47.6592 24.1139 48.9072 25.5101C49.5842 26.187 50.5149 26.5678 51.4668 26.5466H56.7976C58.7225 26.5466 60.2668 25.0024 60.2668 23.0774C60.2668 21.1524 58.6802 19.587 56.7764 19.587ZM56.7764 24.9812C55.6976 24.9812 55.0841 24.0928 55.0841 23.0562C55.0841 22.0197 55.6553 21.1313 56.7764 21.1313C57.7283 21.1313 58.511 21.8928 58.511 22.8447C58.511 22.9082 58.511 22.9716 58.511 23.0351C58.511 24.0716 57.8975 24.9601 56.8187 24.9601" fill="#231BFF"/>
<path d="M81.1243 19.587C79.284 19.5024 77.7186 20.9409 77.634 22.7812C77.634 22.8659 77.634 22.9505 77.634 23.0351C77.634 23.712 77.8032 24.3889 78.1628 24.9601H75.8571C75.709 24.9601 75.5821 24.8966 75.5186 24.7485C75.7513 24.3043 75.8782 23.8178 75.8994 23.3101C75.9629 21.4486 74.5033 19.9043 72.6417 19.862C72.5571 19.862 72.4725 19.862 72.3879 19.862C70.6744 19.8832 69.0879 20.7082 68.0725 22.0832V20.412H66.4014V24.9812H64.4341C64.138 24.9812 64.0533 24.7485 64.0533 24.4524V20.2217H62.2553V26.0389C62.2553 27.0754 61.6418 27.9639 60.563 27.9639V29.5081C62.4034 29.5927 63.9687 28.1543 64.0533 26.3139C64.0533 26.2716 64.0533 26.2293 64.0533 26.1658C64.2226 26.3985 64.4976 26.5254 64.7726 26.5254H72.9379C73.6359 26.5043 74.3129 26.2293 74.8206 25.7216C75.0955 26.2293 75.6244 26.5254 76.1955 26.5254H81.1243C83.0493 26.5254 84.5935 24.9812 84.5935 23.0562C84.5935 21.1313 83.0282 19.587 81.1243 19.587ZM72.3879 24.9812H68.3264C69.1302 23.0351 70.6321 21.4274 72.409 21.4274C73.4879 21.4274 74.1013 22.3159 74.1013 23.3524C74.1648 24.1985 73.5513 24.9389 72.7052 25.0024C72.5994 25.0024 72.4936 25.0024 72.3879 24.9812ZM81.1032 24.9812C80.0243 24.9812 79.4109 24.0928 79.4109 23.0562C79.4109 22.0197 80.0243 21.1313 81.1032 21.1313C82.0551 21.1313 82.8378 21.8928 82.8378 22.8447C82.8378 22.9082 82.8378 22.9716 82.8378 23.0351C82.8378 24.0928 82.2032 24.9812 81.1032 24.9812Z" fill="#231BFF"/>
<path d="M33.486 17.0063H31.688V26.5255H33.486V17.0063Z" fill="#231BFF"/>
<path d="M40.467 23.9237C40.467 24.664 40.1074 24.9813 39.5786 24.9813H38.0555C37.7594 24.9813 37.6747 24.7487 37.6747 24.4525V20.2218H35.8767V26.039C35.8767 27.0756 35.2632 27.964 34.1421 27.964V29.5082C35.9825 29.5928 37.5478 28.1755 37.6324 26.314C37.6324 26.2506 37.6324 26.2083 37.6324 26.1448C37.8017 26.3775 38.0767 26.5044 38.3517 26.5044H39.8113C41.3978 26.5044 42.1593 25.5102 42.1593 23.9871V16.9641H40.4247L40.467 23.9237Z" fill="#231BFF"/>
<path d="M49.8589 42.8349V32.2581H51.6569V36.2773C51.9319 36.0446 52.2492 35.8753 52.5877 35.7484C52.905 35.6426 53.2223 35.5792 53.5608 35.6003C54.6185 35.5792 55.6127 36.0446 56.3108 36.8272C56.9242 37.5042 57.2627 38.4138 57.2627 39.3445C57.2838 40.4022 56.8396 41.4387 56.0358 42.1368C55.3588 42.7714 54.4704 43.1099 53.5608 43.1099C53.2223 43.1099 52.905 43.0676 52.5877 42.9618C52.2492 42.8349 51.9531 42.6445 51.6569 42.433V42.8772L49.8589 42.8349ZM53.5185 37.208C52.9685 37.1869 52.4396 37.4407 52.1012 37.8849C51.4454 38.8157 51.4877 40.0638 52.2281 40.9311C52.9896 41.6503 54.1742 41.608 54.8935 40.8464C54.9146 40.8253 54.9358 40.8041 54.9569 40.783C55.2742 40.3811 55.4435 39.8522 55.4223 39.3445C55.4646 38.7522 55.2531 38.1811 54.8512 37.758C54.5127 37.3984 54.0473 37.208 53.5608 37.2292" fill="#231BFF"/>
<path d="M65.5764 42.8349H63.7783V42.3906C63.5033 42.6022 63.186 42.7925 62.8475 42.9195C62.5302 43.0252 62.2129 43.0887 61.8745 43.0675C60.8168 43.0887 59.8014 42.6445 59.1245 41.8406C57.7707 40.2964 57.8764 37.9272 59.3783 36.5311C60.0553 35.9176 60.9437 35.5791 61.8745 35.6003C62.2129 35.6003 62.5302 35.6426 62.8475 35.7484C63.186 35.8753 63.4822 36.0445 63.7783 36.2772V35.833H65.5764V42.8349ZM61.9379 37.208C61.3879 37.1868 60.8379 37.4407 60.4995 37.8849C60.1822 38.308 60.0129 38.8157 60.0341 39.3233C60.0129 39.9156 60.2245 40.508 60.6476 40.931C60.986 41.2695 61.4726 41.4599 61.9379 41.4387C62.4879 41.4599 63.0168 41.206 63.3552 40.7618C63.6725 40.3599 63.8418 39.831 63.8206 39.3233C63.8629 38.731 63.6514 38.1599 63.2495 37.7368C62.911 37.3772 62.4456 37.1868 61.9379 37.208Z" fill="#231BFF"/>
<path d="M69.236 36.1503C69.4687 35.9599 69.7226 35.7907 70.0187 35.6849C70.2937 35.5792 70.5899 35.5369 70.886 35.5369C71.288 35.5369 71.711 35.6215 72.0918 35.7907C72.4726 35.9388 72.811 36.1926 73.086 36.4888C73.6572 37.208 73.9322 38.1176 73.8475 39.0484V42.8349H72.0283V39.1541C72.0918 38.6041 71.9649 38.0541 71.6899 37.5676C71.4572 37.3138 71.0976 37.1657 70.7591 37.1868C70.3149 37.1657 69.8918 37.3349 69.6168 37.6734C69.3418 38.1599 69.2149 38.7311 69.2784 39.2811V42.8137H67.438V35.7907H69.2572L69.236 36.1503Z" fill="#231BFF"/>
<path d="M79.3684 38.7522L82.6049 42.8349H80.3838L78.1415 39.958L77.4646 40.6138V42.8349H75.6665V32.2581H77.4646V38.308L80.0242 35.8119H82.4145L79.3684 38.7522Z" fill="#231BFF"/>
<path d="M10.0267 42.8349H8.2075V42.3906C7.9325 42.6022 7.6152 42.7925 7.27674 42.9195C6.95943 43.0252 6.64213 43.0887 6.30367 43.0675C5.24599 43.0887 4.25177 42.6233 3.55369 41.8406C2.19986 40.2964 2.30563 37.9483 3.80754 36.5311C4.48445 35.9176 5.37291 35.5791 6.30367 35.6003C6.64213 35.6003 6.95943 35.6426 7.27674 35.7484C7.6152 35.8753 7.91135 36.0445 8.2075 36.2772V35.833H10.0267V42.8349ZM6.34598 37.208C5.77483 37.1868 5.24599 37.4407 4.90753 37.8849C4.59022 38.2868 4.42099 38.8157 4.44215 39.3233C4.39984 39.9156 4.61138 40.4868 5.0133 40.931C5.35175 41.2695 5.83829 41.4599 6.30367 41.4387C6.87482 41.4599 7.42481 41.206 7.76327 40.7618C8.08058 40.3387 8.24981 39.831 8.22865 39.3233C8.27096 38.731 8.05942 38.1599 7.6575 37.7368C7.31904 37.3772 6.85366 37.1868 6.34598 37.208Z" fill="#231BFF"/>
<path d="M13.6652 32.2581H11.8672V42.8349H13.6652V32.2581Z" fill="#231BFF"/>
<path d="M27.521 42.8349H25.7018V42.3906C25.4268 42.6022 25.1095 42.7925 24.771 42.9195C24.4537 43.0252 24.1364 43.0887 23.798 43.0675C22.7615 43.0887 21.7672 42.6233 21.0903 41.8406C19.7365 40.2964 19.8423 37.9483 21.3442 36.5311C22.0211 35.9176 22.9095 35.5791 23.8191 35.6003C24.1576 35.6003 24.4749 35.6426 24.7922 35.7484C25.1307 35.8753 25.4268 36.0445 25.723 36.2772V35.833H27.521V42.8349ZM23.8614 37.208C23.2903 37.1868 22.7615 37.4407 22.423 37.8849C22.1057 38.308 21.9365 38.8157 21.9576 39.3233C21.9365 39.9156 22.148 40.508 22.5711 40.931C22.9095 41.2695 23.3961 41.4599 23.8614 41.4387C24.4114 41.4599 24.9403 41.206 25.2787 40.7618C25.596 40.3599 25.7653 39.831 25.7441 39.3233C25.7864 38.731 25.5749 38.1599 25.173 37.7368C24.8345 37.3772 24.348 37.1868 23.8614 37.208Z" fill="#231BFF"/>
<path d="M30.4187 32.3005C30.7148 32.3005 31.011 32.4063 31.2225 32.639C31.434 32.8505 31.561 33.1255 31.561 33.4217C31.561 33.7178 31.4552 34.014 31.2225 34.2255C31.011 34.4371 30.7148 34.5428 30.4187 34.5428C30.1225 34.5428 29.8264 34.4371 29.6148 34.2255C29.4033 34.014 29.2764 33.7178 29.2764 33.4217C29.2764 33.1255 29.4033 32.8505 29.6148 32.639C29.8264 32.4063 30.1014 32.3005 30.4187 32.3005Z" fill="#231BFF"/>
<path d="M34.9882 36.1504C35.2209 35.96 35.4747 35.7908 35.7708 35.685C36.0458 35.6004 36.342 35.5581 36.6381 35.5793C37.0401 35.5793 37.4631 35.6639 37.8439 35.8331C38.2247 35.9812 38.5631 36.235 38.8381 36.5312C39.4093 37.2504 39.6843 38.16 39.5997 39.0908V42.8773H37.8016V39.2177C37.8651 38.6677 37.7381 38.1177 37.4631 37.6312C37.2304 37.3773 36.8708 37.2293 36.5324 37.2504C36.0881 37.2293 35.6651 37.3985 35.3901 37.7369C35.1151 38.2235 34.9882 38.7946 35.0516 39.3446V42.8773H33.1689V32.2793H34.9882V36.1504Z" fill="#231BFF"/>
<path d="M42.3073 32.3005C42.6035 32.3005 42.8996 32.4063 43.1112 32.639C43.3227 32.8505 43.4496 33.1255 43.4496 33.4217C43.4496 33.7178 43.3227 34.014 43.1112 34.2255C42.8996 34.4371 42.6035 34.5428 42.3073 34.5428C42.0112 34.5428 41.715 34.4371 41.5035 34.2255C41.292 34.014 41.165 33.7178 41.165 33.4217C41.165 33.1255 41.2708 32.8505 41.5035 32.639C41.7362 32.4063 42.0112 32.3005 42.3073 32.3005ZM43.2169 42.8351H41.4189V35.8121H43.2169V42.8351Z" fill="#231BFF"/>
<path d="M15.3999 38.6043V42.8562H17.198V38.5197C17.198 37.5677 17.7057 37.2716 18.4883 37.2716H19.5037V35.6851H18.4249C16.3941 35.6851 15.3999 36.7851 15.3999 38.6043Z" fill="#231BFF"/>
<path d="M31.3076 35.812H29.5095V43.0677C29.5095 44.1254 28.896 45.035 27.7749 45.035V46.6004C29.6787 46.6427 31.2653 45.1196 31.3076 43.2158C31.3076 43.1946 31.3076 43.1735 31.3076 43.1312V35.812Z" fill="#231BFF"/>
</svg>
