<svg width="18" height="19" viewBox="0 0 18 19" fill="none" xmlns="http://www.w3.org/2000/svg">
<path fill-rule="evenodd" clip-rule="evenodd" d="M5.71813 3.21279C6.14997 2.11787 7.69955 2.11787 8.13138 3.21279L8.9086 5.18345C8.9299 5.23746 8.97265 5.28021 9.02666 5.30152L10.9973 6.07873C12.0922 6.51056 12.0922 8.06015 10.9973 8.49198L9.02666 9.26919C8.97265 9.29049 8.9299 9.33325 8.9086 9.38726L8.13138 11.3579C7.69955 12.4528 6.14996 12.4528 5.71813 11.3579L4.94092 9.38726C4.91962 9.33325 4.87686 9.29049 4.82285 9.26919L2.8522 8.49198C1.75727 8.06014 1.75728 6.51056 2.8522 6.07873L4.82285 5.30152C4.87686 5.28021 4.91962 5.23746 4.94092 5.18345L5.71813 3.21279ZM7.11972 3.61179C7.04994 3.43487 6.79957 3.43488 6.7298 3.61179L5.95258 5.58244C5.82074 5.91673 5.55613 6.18134 5.22184 6.31318L3.25119 7.09039C3.07428 7.16017 3.07428 7.41054 3.25119 7.48031L5.22184 8.25753C5.55613 8.38937 5.82074 8.65398 5.95258 8.98827L6.7298 10.9589C6.79957 11.1358 7.04994 11.1358 7.11972 10.9589L7.89693 8.98827C8.02877 8.65398 8.29339 8.38937 8.62767 8.25753L10.5983 7.48031C10.7752 7.41054 10.7752 7.16017 10.5983 7.09039L8.62767 6.31318C8.29339 6.18134 8.02877 5.91673 7.89693 5.58244L7.11972 3.61179ZM11.8481 10.2383C12.1618 9.44272 13.2877 9.44272 13.6014 10.2383L14.1588 11.6513L15.5719 12.2087C16.3674 12.5224 16.3674 13.6483 15.5719 13.962L14.1588 14.5194L13.6014 15.9325C13.2877 16.728 12.1618 16.728 11.8481 15.9325L11.2908 14.5194L9.87766 13.962C9.08213 13.6483 9.08213 12.5224 9.87766 12.2087L11.2908 11.6513L11.8481 10.2383ZM12.7248 10.9795L12.2793 12.109C12.1835 12.3518 11.9912 12.5441 11.7484 12.6399L10.6189 13.0854L11.7484 13.5308C11.9912 13.6266 12.1835 13.8189 12.2793 14.0617L12.7248 15.1912L13.1702 14.0617C13.266 13.8189 13.4583 13.6266 13.7012 13.5308L14.8306 13.0854L13.7012 12.6399C13.4583 12.5441 13.266 12.3518 13.1702 12.109L12.7248 10.9795Z" fill="#454855"/>
</svg>
