<svg width="766" height="766" viewBox="0 0 766 766" fill="none" xmlns="http://www.w3.org/2000/svg">
<rect x="383" y="383" width="383" height="383" fill="white"/>
<path d="M469.9 570.445H471.23C472.42 570.445 473.412 570.293 474.205 569.99C474.998 569.687 475.64 569.255 476.13 568.695C476.62 568.158 476.97 567.505 477.18 566.735C477.39 565.965 477.495 565.102 477.495 564.145C477.495 563.515 477.46 562.862 477.39 562.185C477.32 561.508 477.227 560.832 477.11 560.155L476.375 555.92L479.385 555.36L479.875 558.3C479.992 558.977 480.085 559.63 480.155 560.26C480.248 560.89 480.318 561.485 480.365 562.045H483.62V565.16L482.78 566H480.365C480.225 567.213 479.945 568.333 479.525 569.36C479.105 570.387 478.522 571.273 477.775 572.02C477.052 572.767 476.153 573.35 475.08 573.77C474.007 574.19 472.735 574.4 471.265 574.4H469.9V570.445ZM482.781 562.885L483.621 562.045H487.366V565.16L486.526 566H482.781V562.885ZM486.541 562.885L487.381 562.045H491.126V565.16L490.286 566H486.541V562.885ZM490.301 562.885L491.141 562.045H494.886V565.16L494.046 566H490.301V562.885ZM494.06 562.885L494.9 562.045H495.635C497.222 562.045 498.342 561.87 498.995 561.52C499.649 561.147 499.975 560.482 499.975 559.525C499.975 559.128 499.94 558.627 499.87 558.02C499.824 557.413 499.719 556.608 499.555 555.605L498.995 552.56L502.04 552.07L502.495 555.115C502.775 556.982 502.915 558.452 502.915 559.525C502.915 561.718 502.32 563.352 501.13 564.425C499.94 565.475 498.109 566 495.635 566H494.06V562.885ZM502.18 573.245C501.644 573.245 501.212 573.082 500.885 572.755C500.582 572.428 500.43 571.927 500.43 571.25C500.43 570.55 500.582 570.037 500.885 569.71C501.212 569.407 501.644 569.255 502.18 569.255H502.705C503.242 569.255 503.674 569.407 504 569.71C504.327 570.037 504.49 570.55 504.49 571.25C504.49 571.927 504.327 572.428 504 572.755C503.674 573.082 503.242 573.245 502.705 573.245H502.18ZM497.245 573.245C496.709 573.245 496.277 573.082 495.95 572.755C495.647 572.428 495.495 571.927 495.495 571.25C495.495 570.55 495.647 570.037 495.95 569.71C496.277 569.407 496.709 569.255 497.245 569.255H497.77C498.307 569.255 498.739 569.407 499.065 569.71C499.392 570.037 499.555 570.55 499.555 571.25C499.555 571.927 499.392 572.428 499.065 572.755C498.739 573.082 498.307 573.245 497.77 573.245H497.245ZM505.754 570.445H507.084C508.274 570.445 509.266 570.293 510.059 569.99C510.853 569.687 511.494 569.255 511.984 568.695C512.474 568.158 512.824 567.505 513.034 566.735C513.244 565.965 513.349 565.102 513.349 564.145C513.349 563.515 513.314 562.862 513.244 562.185C513.174 561.508 513.081 560.832 512.964 560.155L512.229 555.92L515.239 555.36L515.729 558.3C516.126 560.563 516.324 562.5 516.324 564.11C516.324 565.557 516.149 566.898 515.799 568.135C515.473 569.395 514.936 570.492 514.189 571.425C513.443 572.358 512.486 573.082 511.319 573.595C510.153 574.132 508.753 574.4 507.119 574.4H505.754V570.445ZM526.519 566C524.232 566 522.587 565.533 521.584 564.6C520.581 563.643 520.079 562.057 520.079 559.84V540.1H523.334V559.525C523.334 560.505 523.556 561.17 523.999 561.52C524.466 561.87 525.224 562.045 526.274 562.045H527.429V565.16L526.554 566H526.519ZM526.599 562.885L527.439 562.045H531.184V565.16L530.344 566H526.599V562.885ZM530.359 562.885L531.199 562.045H534.944V565.16L534.104 566H530.359V562.885ZM534.119 562.885L534.959 562.045H538.704V565.16L537.864 566H534.119V562.885ZM537.879 562.885L538.719 562.045H543.234L543.304 561.87C541.204 560.073 540.154 557.962 540.154 555.535C540.154 554.555 540.305 553.633 540.609 552.77C540.935 551.907 541.39 551.148 541.974 550.495C542.557 549.842 543.245 549.328 544.039 548.955C544.855 548.582 545.754 548.395 546.734 548.395C547.714 548.395 548.6 548.582 549.394 548.955C550.21 549.328 550.899 549.842 551.459 550.495C552.042 551.125 552.497 551.883 552.824 552.77C553.15 553.633 553.314 554.555 553.314 555.535C553.314 557.938 552.264 560.05 550.164 561.87L550.234 562.045H554.784V565.16L553.944 566H553.524C552.287 566 551.097 565.86 549.954 565.58C548.834 565.277 547.76 564.787 546.734 564.11C545.73 564.787 544.657 565.277 543.514 565.58C542.37 565.86 541.192 566 539.979 566H537.879V562.885ZM546.734 561.24C547.924 560.587 548.845 559.84 549.499 559C550.152 558.16 550.479 557.18 550.479 556.06C550.479 554.94 550.14 554.042 549.464 553.365C548.81 552.688 547.959 552.35 546.909 552.35H546.524C545.474 552.35 544.61 552.688 543.934 553.365C543.28 554.042 542.954 554.94 542.954 556.06C542.954 557.18 543.28 558.16 543.934 559C544.61 559.84 545.544 560.587 546.734 561.24ZM548.869 544.825C548.332 544.825 547.9 544.662 547.574 544.335C547.27 544.008 547.119 543.507 547.119 542.83C547.119 542.13 547.27 541.628 547.574 541.325C547.9 540.998 548.332 540.835 548.869 540.835H549.394C549.93 540.835 550.362 540.998 550.689 541.325C551.015 541.628 551.179 542.13 551.179 542.83C551.179 543.507 551.015 544.008 550.689 544.335C550.362 544.662 549.93 544.825 549.394 544.825H548.869ZM543.934 544.825C543.397 544.825 542.965 544.662 542.639 544.335C542.335 544.008 542.184 543.507 542.184 542.83C542.184 542.13 542.335 541.628 542.639 541.325C542.965 540.998 543.397 540.835 543.934 540.835H544.459C544.995 540.835 545.427 540.998 545.754 541.325C546.08 541.628 546.244 542.13 546.244 542.83C546.244 543.507 546.08 544.008 545.754 544.335C545.427 544.662 544.995 544.825 544.459 544.825H543.934ZM553.943 562.885L554.783 562.045H558.528V565.16L557.688 566H553.943V562.885ZM557.703 562.885L558.543 562.045H559.278C560.865 562.045 561.985 561.87 562.638 561.52C563.291 561.147 563.618 560.482 563.618 559.525C563.618 559.128 563.583 558.627 563.513 558.02C563.466 557.413 563.361 556.608 563.198 555.605L562.638 552.56L565.683 552.07L566.138 555.115C566.418 556.982 566.558 558.452 566.558 559.525C566.558 561.718 565.963 563.352 564.773 564.425C563.583 565.475 561.751 566 559.278 566H557.703V562.885ZM565.858 548.5C565.321 548.5 564.89 548.337 564.563 548.01C564.26 547.683 564.108 547.182 564.108 546.505C564.108 545.805 564.26 545.303 564.563 545C564.89 544.673 565.321 544.51 565.858 544.51H566.383C566.92 544.51 567.351 544.673 567.678 545C568.005 545.303 568.168 545.805 568.168 546.505C568.168 547.182 568.005 547.683 567.678 548.01C567.351 548.337 566.92 548.5 566.383 548.5H565.858ZM560.923 548.5C560.386 548.5 559.955 548.337 559.628 548.01C559.325 547.683 559.173 547.182 559.173 546.505C559.173 545.805 559.325 545.303 559.628 545C559.955 544.673 560.386 544.51 560.923 544.51H561.448C561.985 544.51 562.416 544.673 562.743 545C563.07 545.303 563.233 545.805 563.233 546.505C563.233 547.182 563.07 547.683 562.743 548.01C562.416 548.337 561.985 548.5 561.448 548.5H560.923Z" fill="#1B1B1B"/>
<path d="M475.84 590.28V609H473.32V590.28H466.66V588.06H482.5V590.28H475.84ZM494.859 609C493.959 609 493.309 608.76 492.909 608.28C492.529 607.8 492.289 607.2 492.189 606.48H492.039C491.699 607.44 491.139 608.16 490.359 608.64C489.579 609.12 488.649 609.36 487.569 609.36C485.929 609.36 484.649 608.94 483.729 608.1C482.829 607.26 482.379 606.12 482.379 604.68C482.379 603.22 482.909 602.1 483.969 601.32C485.049 600.54 486.719 600.15 488.979 600.15H492.039V598.62C492.039 597.52 491.739 596.68 491.139 596.1C490.539 595.52 489.619 595.23 488.379 595.23C487.439 595.23 486.649 595.44 486.009 595.86C485.389 596.28 484.869 596.84 484.449 597.54L483.009 596.19C483.429 595.35 484.099 594.64 485.019 594.06C485.939 593.46 487.099 593.16 488.499 593.16C490.379 593.16 491.839 593.62 492.879 594.54C493.919 595.46 494.439 596.74 494.439 598.38V606.9H496.209V609H494.859ZM487.959 607.32C488.559 607.32 489.109 607.25 489.609 607.11C490.109 606.97 490.539 606.77 490.899 606.51C491.259 606.25 491.539 605.95 491.739 605.61C491.939 605.27 492.039 604.9 492.039 604.5V601.95H488.859C487.479 601.95 486.469 602.15 485.829 602.55C485.209 602.95 484.899 603.53 484.899 604.29V604.92C484.899 605.68 485.169 606.27 485.709 606.69C486.269 607.11 487.019 607.32 487.959 607.32ZM512.684 610.71C512.684 612.31 512.054 613.48 510.794 614.22C509.554 614.98 507.684 615.36 505.184 615.36C502.764 615.36 501.024 615.03 499.964 614.37C498.904 613.71 498.374 612.77 498.374 611.55C498.374 610.71 498.594 610.05 499.034 609.57C499.474 609.11 500.074 608.77 500.834 608.55V608.22C499.914 607.78 499.454 607.06 499.454 606.06C499.454 605.28 499.704 604.69 500.204 604.29C500.704 603.87 501.344 603.56 502.124 603.36V603.24C501.204 602.8 500.484 602.17 499.964 601.35C499.464 600.53 499.214 599.58 499.214 598.5C499.214 597.72 499.354 597 499.634 596.34C499.914 595.68 500.304 595.12 500.804 594.66C501.324 594.18 501.934 593.81 502.634 593.55C503.354 593.29 504.154 593.16 505.034 593.16C506.134 593.16 507.114 593.36 507.974 593.76V593.49C507.974 592.89 508.114 592.4 508.394 592.02C508.674 591.62 509.134 591.42 509.774 591.42H512.084V593.52H509.144V594.51C509.704 594.99 510.134 595.57 510.434 596.25C510.754 596.91 510.914 597.66 510.914 598.5C510.914 599.28 510.774 600 510.494 600.66C510.214 601.32 509.814 601.89 509.294 602.37C508.794 602.83 508.184 603.19 507.464 603.45C506.744 603.71 505.944 603.84 505.064 603.84C504.564 603.84 504.064 603.79 503.564 603.69C503.044 603.83 502.574 604.04 502.154 604.32C501.734 604.58 501.524 604.95 501.524 605.43C501.524 605.89 501.744 606.2 502.184 606.36C502.624 606.52 503.194 606.6 503.894 606.6H507.194C509.114 606.6 510.504 606.97 511.364 607.71C512.244 608.43 512.684 609.43 512.684 610.71ZM510.434 610.89C510.434 610.27 510.194 609.77 509.714 609.39C509.254 609.03 508.424 608.85 507.224 608.85H502.064C501.104 609.29 500.624 609.99 500.624 610.95C500.624 611.63 500.874 612.21 501.374 612.69C501.894 613.17 502.764 613.41 503.984 613.41H506.204C507.544 613.41 508.584 613.2 509.324 612.78C510.064 612.36 510.434 611.73 510.434 610.89ZM505.064 601.92C506.084 601.92 506.894 601.68 507.494 601.2C508.094 600.7 508.394 599.94 508.394 598.92V598.08C508.394 597.06 508.094 596.31 507.494 595.83C506.894 595.33 506.084 595.08 505.064 595.08C504.044 595.08 503.234 595.33 502.634 595.83C502.034 596.31 501.734 597.06 501.734 598.08V598.92C501.734 599.94 502.034 600.7 502.634 601.2C503.234 601.68 504.044 601.92 505.064 601.92ZM526.646 609C525.746 609 525.096 608.76 524.696 608.28C524.316 607.8 524.076 607.2 523.976 606.48H523.826C523.486 607.44 522.926 608.16 522.146 608.64C521.366 609.12 520.436 609.36 519.356 609.36C517.716 609.36 516.436 608.94 515.516 608.1C514.616 607.26 514.166 606.12 514.166 604.68C514.166 603.22 514.696 602.1 515.756 601.32C516.836 600.54 518.506 600.15 520.766 600.15H523.826V598.62C523.826 597.52 523.526 596.68 522.926 596.1C522.326 595.52 521.406 595.23 520.166 595.23C519.226 595.23 518.436 595.44 517.796 595.86C517.176 596.28 516.656 596.84 516.236 597.54L514.796 596.19C515.216 595.35 515.886 594.64 516.806 594.06C517.726 593.46 518.886 593.16 520.286 593.16C522.166 593.16 523.626 593.62 524.666 594.54C525.706 595.46 526.226 596.74 526.226 598.38V606.9H527.996V609H526.646ZM519.746 607.32C520.346 607.32 520.896 607.25 521.396 607.11C521.896 606.97 522.326 606.77 522.686 606.51C523.046 606.25 523.326 605.95 523.526 605.61C523.726 605.27 523.826 604.9 523.826 604.5V601.95H520.646C519.266 601.95 518.256 602.15 517.616 602.55C516.996 602.95 516.686 603.53 516.686 604.29V604.92C516.686 605.68 516.956 606.27 517.496 606.69C518.056 607.11 518.806 607.32 519.746 607.32ZM531.421 609V593.52H533.821V596.37H533.971C534.251 595.63 534.751 594.97 535.471 594.39C536.191 593.81 537.181 593.52 538.441 593.52H539.371V595.92H537.961C536.661 595.92 535.641 596.17 534.901 596.67C534.181 597.15 533.821 597.76 533.821 598.5V609H531.421ZM548.11 609.36C547.05 609.36 546.09 609.17 545.23 608.79C544.39 608.41 543.66 607.87 543.04 607.17C542.44 606.45 541.97 605.6 541.63 604.62C541.31 603.62 541.15 602.5 541.15 601.26C541.15 600.04 541.31 598.93 541.63 597.93C541.97 596.93 542.44 596.08 543.04 595.38C543.66 594.66 544.39 594.11 545.23 593.73C546.09 593.35 547.05 593.16 548.11 593.16C549.15 593.16 550.08 593.35 550.9 593.73C551.72 594.11 552.42 594.64 553 595.32C553.58 595.98 554.02 596.77 554.32 597.69C554.64 598.61 554.8 599.62 554.8 600.72V601.86H543.67V602.58C543.67 603.24 543.77 603.86 543.97 604.44C544.19 605 544.49 605.49 544.87 605.91C545.27 606.33 545.75 606.66 546.31 606.9C546.89 607.14 547.54 607.26 548.26 607.26C549.24 607.26 550.09 607.03 550.81 606.57C551.55 606.11 552.12 605.45 552.52 604.59L554.23 605.82C553.73 606.88 552.95 607.74 551.89 608.4C550.83 609.04 549.57 609.36 548.11 609.36ZM548.11 595.17C547.45 595.17 546.85 595.29 546.31 595.53C545.77 595.75 545.3 596.07 544.9 596.49C544.52 596.91 544.22 597.41 544 597.99C543.78 598.55 543.67 599.17 543.67 599.85V600.06H552.22V599.73C552.22 598.35 551.84 597.25 551.08 596.43C550.34 595.59 549.35 595.17 548.11 595.17ZM558.755 609V593.52H561.155V596.37H561.305C561.585 595.63 562.085 594.97 562.805 594.39C563.525 593.81 564.515 593.52 565.775 593.52H566.705V595.92H565.295C563.995 595.92 562.975 596.17 562.235 596.67C561.515 597.15 561.155 597.76 561.155 598.5V609H558.755Z" fill="#1B1B1B"/>
<path d="M637.84 582.11C641.855 582.11 645.11 578.855 645.11 574.84C645.11 570.825 641.855 567.57 637.84 567.57C633.825 567.57 630.57 570.825 630.57 574.84C630.57 578.855 633.825 582.11 637.84 582.11Z" fill="#1B1B1B"/>
<path d="M611.02 609.55C615.416 609.55 618.98 605.986 618.98 601.59C618.98 597.194 615.416 593.63 611.02 593.63C606.624 593.63 603.06 597.194 603.06 601.59C603.06 605.986 606.624 609.55 611.02 609.55Z" fill="#1B1B1B"/>
<path d="M599.96 582.75C604.356 582.75 607.92 579.186 607.92 574.79C607.92 570.394 604.356 566.83 599.96 566.83C595.564 566.83 592 570.394 592 574.79C592 579.186 595.564 582.75 599.96 582.75Z" fill="#1B1B1B"/>
<path d="M611.1 555.98C615.496 555.98 619.06 552.416 619.06 548.02C619.06 543.624 615.496 540.06 611.1 540.06C606.704 540.06 603.14 543.624 603.14 548.02C603.14 552.416 606.704 555.98 611.1 555.98Z" fill="#1B1B1B"/>
<path d="M637.9 544.92C642.296 544.92 645.86 541.356 645.86 536.96C645.86 532.564 642.296 529 637.9 529C633.504 529 629.94 532.564 629.94 536.96C629.94 541.356 633.504 544.92 637.9 544.92Z" fill="#1B1B1B"/>
<path d="M664.67 556.05C669.066 556.05 672.63 552.486 672.63 548.09C672.63 543.694 669.066 540.13 664.67 540.13C660.274 540.13 656.71 543.694 656.71 548.09C656.71 552.486 660.274 556.05 664.67 556.05Z" fill="#1B1B1B"/>
<path d="M675.73 582.85C680.126 582.85 683.69 579.286 683.69 574.89C683.69 570.494 680.126 566.93 675.73 566.93C671.334 566.93 667.77 570.494 667.77 574.89C667.77 579.286 671.334 582.85 675.73 582.85Z" fill="#1B1B1B"/>
<path d="M664.6 609.62C668.996 609.62 672.56 606.056 672.56 601.66C672.56 597.264 668.996 593.7 664.6 593.7C660.204 593.7 656.64 597.264 656.64 601.66C656.64 606.056 660.204 609.62 664.6 609.62Z" fill="#1B1B1B"/>
<path d="M637.79 620.68C642.186 620.68 645.75 617.116 645.75 612.72C645.75 608.324 642.186 604.76 637.79 604.76C633.394 604.76 629.83 608.324 629.83 612.72C629.83 617.116 633.394 620.68 637.79 620.68Z" fill="#1B1B1B"/>
<rect y="383" width="383" height="383" fill="#1B1B1B"/>
<path d="M86.9 570.445H88.23C89.42 570.445 90.4117 570.293 91.205 569.99C91.9983 569.687 92.64 569.255 93.13 568.695C93.62 568.158 93.97 567.505 94.18 566.735C94.39 565.965 94.495 565.102 94.495 564.145C94.495 563.515 94.46 562.862 94.39 562.185C94.32 561.508 94.2267 560.832 94.11 560.155L93.375 555.92L96.385 555.36L96.875 558.3C96.9917 558.977 97.085 559.63 97.155 560.26C97.2483 560.89 97.3183 561.485 97.365 562.045H100.62V565.16L99.78 566H97.365C97.225 567.213 96.945 568.333 96.525 569.36C96.105 570.387 95.5217 571.273 94.775 572.02C94.0517 572.767 93.1533 573.35 92.08 573.77C91.0067 574.19 89.735 574.4 88.265 574.4H86.9V570.445ZM99.7811 562.885L100.621 562.045H104.366V565.16L103.526 566H99.7811V562.885ZM103.541 562.885L104.381 562.045H108.126V565.16L107.286 566H103.541V562.885ZM107.301 562.885L108.141 562.045H111.886V565.16L111.046 566H107.301V562.885ZM111.06 562.885L111.9 562.045H112.635C114.222 562.045 115.342 561.87 115.995 561.52C116.649 561.147 116.975 560.482 116.975 559.525C116.975 559.128 116.94 558.627 116.87 558.02C116.824 557.413 116.719 556.608 116.555 555.605L115.995 552.56L119.04 552.07L119.495 555.115C119.775 556.982 119.915 558.452 119.915 559.525C119.915 561.718 119.32 563.352 118.13 564.425C116.94 565.475 115.109 566 112.635 566H111.06V562.885ZM119.18 573.245C118.644 573.245 118.212 573.082 117.885 572.755C117.582 572.428 117.43 571.927 117.43 571.25C117.43 570.55 117.582 570.037 117.885 569.71C118.212 569.407 118.644 569.255 119.18 569.255H119.705C120.242 569.255 120.674 569.407 121 569.71C121.327 570.037 121.49 570.55 121.49 571.25C121.49 571.927 121.327 572.428 121 572.755C120.674 573.082 120.242 573.245 119.705 573.245H119.18ZM114.245 573.245C113.709 573.245 113.277 573.082 112.95 572.755C112.647 572.428 112.495 571.927 112.495 571.25C112.495 570.55 112.647 570.037 112.95 569.71C113.277 569.407 113.709 569.255 114.245 569.255H114.77C115.307 569.255 115.739 569.407 116.065 569.71C116.392 570.037 116.555 570.55 116.555 571.25C116.555 571.927 116.392 572.428 116.065 572.755C115.739 573.082 115.307 573.245 114.77 573.245H114.245ZM122.754 570.445H124.084C125.274 570.445 126.266 570.293 127.059 569.99C127.853 569.687 128.494 569.255 128.984 568.695C129.474 568.158 129.824 567.505 130.034 566.735C130.244 565.965 130.349 565.102 130.349 564.145C130.349 563.515 130.314 562.862 130.244 562.185C130.174 561.508 130.081 560.832 129.964 560.155L129.229 555.92L132.239 555.36L132.729 558.3C133.126 560.563 133.324 562.5 133.324 564.11C133.324 565.557 133.149 566.898 132.799 568.135C132.473 569.395 131.936 570.492 131.189 571.425C130.443 572.358 129.486 573.082 128.319 573.595C127.153 574.132 125.753 574.4 124.119 574.4H122.754V570.445ZM143.519 566C141.232 566 139.587 565.533 138.584 564.6C137.581 563.643 137.079 562.057 137.079 559.84V540.1H140.334V559.525C140.334 560.505 140.556 561.17 140.999 561.52C141.466 561.87 142.224 562.045 143.274 562.045H144.429V565.16L143.554 566H143.519ZM143.599 562.885L144.439 562.045H148.184V565.16L147.344 566H143.599V562.885ZM147.359 562.885L148.199 562.045H151.944V565.16L151.104 566H147.359V562.885ZM151.119 562.885L151.959 562.045H155.704V565.16L154.864 566H151.119V562.885ZM154.879 562.885L155.719 562.045H160.234L160.304 561.87C158.204 560.073 157.154 557.962 157.154 555.535C157.154 554.555 157.305 553.633 157.609 552.77C157.935 551.907 158.39 551.148 158.974 550.495C159.557 549.842 160.245 549.328 161.039 548.955C161.855 548.582 162.754 548.395 163.734 548.395C164.714 548.395 165.6 548.582 166.394 548.955C167.21 549.328 167.899 549.842 168.459 550.495C169.042 551.125 169.497 551.883 169.824 552.77C170.15 553.633 170.314 554.555 170.314 555.535C170.314 557.938 169.264 560.05 167.164 561.87L167.234 562.045H171.784V565.16L170.944 566H170.524C169.287 566 168.097 565.86 166.954 565.58C165.834 565.277 164.76 564.787 163.734 564.11C162.73 564.787 161.657 565.277 160.514 565.58C159.37 565.86 158.192 566 156.979 566H154.879V562.885ZM163.734 561.24C164.924 560.587 165.845 559.84 166.499 559C167.152 558.16 167.479 557.18 167.479 556.06C167.479 554.94 167.14 554.042 166.464 553.365C165.81 552.688 164.959 552.35 163.909 552.35H163.524C162.474 552.35 161.61 552.688 160.934 553.365C160.28 554.042 159.954 554.94 159.954 556.06C159.954 557.18 160.28 558.16 160.934 559C161.61 559.84 162.544 560.587 163.734 561.24ZM165.869 544.825C165.332 544.825 164.9 544.662 164.574 544.335C164.27 544.008 164.119 543.507 164.119 542.83C164.119 542.13 164.27 541.628 164.574 541.325C164.9 540.998 165.332 540.835 165.869 540.835H166.394C166.93 540.835 167.362 540.998 167.689 541.325C168.015 541.628 168.179 542.13 168.179 542.83C168.179 543.507 168.015 544.008 167.689 544.335C167.362 544.662 166.93 544.825 166.394 544.825H165.869ZM160.934 544.825C160.397 544.825 159.965 544.662 159.639 544.335C159.335 544.008 159.184 543.507 159.184 542.83C159.184 542.13 159.335 541.628 159.639 541.325C159.965 540.998 160.397 540.835 160.934 540.835H161.459C161.995 540.835 162.427 540.998 162.754 541.325C163.08 541.628 163.244 542.13 163.244 542.83C163.244 543.507 163.08 544.008 162.754 544.335C162.427 544.662 161.995 544.825 161.459 544.825H160.934ZM170.943 562.885L171.783 562.045H175.528V565.16L174.688 566H170.943V562.885ZM174.703 562.885L175.543 562.045H176.278C177.865 562.045 178.985 561.87 179.638 561.52C180.291 561.147 180.618 560.482 180.618 559.525C180.618 559.128 180.583 558.627 180.513 558.02C180.466 557.413 180.361 556.608 180.198 555.605L179.638 552.56L182.683 552.07L183.138 555.115C183.418 556.982 183.558 558.452 183.558 559.525C183.558 561.718 182.963 563.352 181.773 564.425C180.583 565.475 178.751 566 176.278 566H174.703V562.885ZM182.858 548.5C182.321 548.5 181.89 548.337 181.563 548.01C181.26 547.683 181.108 547.182 181.108 546.505C181.108 545.805 181.26 545.303 181.563 545C181.89 544.673 182.321 544.51 182.858 544.51H183.383C183.92 544.51 184.351 544.673 184.678 545C185.005 545.303 185.168 545.805 185.168 546.505C185.168 547.182 185.005 547.683 184.678 548.01C184.351 548.337 183.92 548.5 183.383 548.5H182.858ZM177.923 548.5C177.386 548.5 176.955 548.337 176.628 548.01C176.325 547.683 176.173 547.182 176.173 546.505C176.173 545.805 176.325 545.303 176.628 545C176.955 544.673 177.386 544.51 177.923 544.51H178.448C178.985 544.51 179.416 544.673 179.743 545C180.07 545.303 180.233 545.805 180.233 546.505C180.233 547.182 180.07 547.683 179.743 548.01C179.416 548.337 178.985 548.5 178.448 548.5H177.923Z" fill="white"/>
<path d="M92.84 590.28V609H90.32V590.28H83.66V588.06H99.5V590.28H92.84ZM111.859 609C110.959 609 110.309 608.76 109.909 608.28C109.529 607.8 109.289 607.2 109.189 606.48H109.039C108.699 607.44 108.139 608.16 107.359 608.64C106.579 609.12 105.649 609.36 104.569 609.36C102.929 609.36 101.649 608.94 100.729 608.1C99.8286 607.26 99.3786 606.12 99.3786 604.68C99.3786 603.22 99.9086 602.1 100.969 601.32C102.049 600.54 103.719 600.15 105.979 600.15H109.039V598.62C109.039 597.52 108.739 596.68 108.139 596.1C107.539 595.52 106.619 595.23 105.379 595.23C104.439 595.23 103.649 595.44 103.009 595.86C102.389 596.28 101.869 596.84 101.449 597.54L100.009 596.19C100.429 595.35 101.099 594.64 102.019 594.06C102.939 593.46 104.099 593.16 105.499 593.16C107.379 593.16 108.839 593.62 109.879 594.54C110.919 595.46 111.439 596.74 111.439 598.38V606.9H113.209V609H111.859ZM104.959 607.32C105.559 607.32 106.109 607.25 106.609 607.11C107.109 606.97 107.539 606.77 107.899 606.51C108.259 606.25 108.539 605.95 108.739 605.61C108.939 605.27 109.039 604.9 109.039 604.5V601.95H105.859C104.479 601.95 103.469 602.15 102.829 602.55C102.209 602.95 101.899 603.53 101.899 604.29V604.92C101.899 605.68 102.169 606.27 102.709 606.69C103.269 607.11 104.019 607.32 104.959 607.32ZM129.684 610.71C129.684 612.31 129.054 613.48 127.794 614.22C126.554 614.98 124.684 615.36 122.184 615.36C119.764 615.36 118.024 615.03 116.964 614.37C115.904 613.71 115.374 612.77 115.374 611.55C115.374 610.71 115.594 610.05 116.034 609.57C116.474 609.11 117.074 608.77 117.834 608.55V608.22C116.914 607.78 116.454 607.06 116.454 606.06C116.454 605.28 116.704 604.69 117.204 604.29C117.704 603.87 118.344 603.56 119.124 603.36V603.24C118.204 602.8 117.484 602.17 116.964 601.35C116.464 600.53 116.214 599.58 116.214 598.5C116.214 597.72 116.354 597 116.634 596.34C116.914 595.68 117.304 595.12 117.804 594.66C118.324 594.18 118.934 593.81 119.634 593.55C120.354 593.29 121.154 593.16 122.034 593.16C123.134 593.16 124.114 593.36 124.974 593.76V593.49C124.974 592.89 125.114 592.4 125.394 592.02C125.674 591.62 126.134 591.42 126.774 591.42H129.084V593.52H126.144V594.51C126.704 594.99 127.134 595.57 127.434 596.25C127.754 596.91 127.914 597.66 127.914 598.5C127.914 599.28 127.774 600 127.494 600.66C127.214 601.32 126.814 601.89 126.294 602.37C125.794 602.83 125.184 603.19 124.464 603.45C123.744 603.71 122.944 603.84 122.064 603.84C121.564 603.84 121.064 603.79 120.564 603.69C120.044 603.83 119.574 604.04 119.154 604.32C118.734 604.58 118.524 604.95 118.524 605.43C118.524 605.89 118.744 606.2 119.184 606.36C119.624 606.52 120.194 606.6 120.894 606.6H124.194C126.114 606.6 127.504 606.97 128.364 607.71C129.244 608.43 129.684 609.43 129.684 610.71ZM127.434 610.89C127.434 610.27 127.194 609.77 126.714 609.39C126.254 609.03 125.424 608.85 124.224 608.85H119.064C118.104 609.29 117.624 609.99 117.624 610.95C117.624 611.63 117.874 612.21 118.374 612.69C118.894 613.17 119.764 613.41 120.984 613.41H123.204C124.544 613.41 125.584 613.2 126.324 612.78C127.064 612.36 127.434 611.73 127.434 610.89ZM122.064 601.92C123.084 601.92 123.894 601.68 124.494 601.2C125.094 600.7 125.394 599.94 125.394 598.92V598.08C125.394 597.06 125.094 596.31 124.494 595.83C123.894 595.33 123.084 595.08 122.064 595.08C121.044 595.08 120.234 595.33 119.634 595.83C119.034 596.31 118.734 597.06 118.734 598.08V598.92C118.734 599.94 119.034 600.7 119.634 601.2C120.234 601.68 121.044 601.92 122.064 601.92ZM143.646 609C142.746 609 142.096 608.76 141.696 608.28C141.316 607.8 141.076 607.2 140.976 606.48H140.826C140.486 607.44 139.926 608.16 139.146 608.64C138.366 609.12 137.436 609.36 136.356 609.36C134.716 609.36 133.436 608.94 132.516 608.1C131.616 607.26 131.166 606.12 131.166 604.68C131.166 603.22 131.696 602.1 132.756 601.32C133.836 600.54 135.506 600.15 137.766 600.15H140.826V598.62C140.826 597.52 140.526 596.68 139.926 596.1C139.326 595.52 138.406 595.23 137.166 595.23C136.226 595.23 135.436 595.44 134.796 595.86C134.176 596.28 133.656 596.84 133.236 597.54L131.796 596.19C132.216 595.35 132.886 594.64 133.806 594.06C134.726 593.46 135.886 593.16 137.286 593.16C139.166 593.16 140.626 593.62 141.666 594.54C142.706 595.46 143.226 596.74 143.226 598.38V606.9H144.996V609H143.646ZM136.746 607.32C137.346 607.32 137.896 607.25 138.396 607.11C138.896 606.97 139.326 606.77 139.686 606.51C140.046 606.25 140.326 605.95 140.526 605.61C140.726 605.27 140.826 604.9 140.826 604.5V601.95H137.646C136.266 601.95 135.256 602.15 134.616 602.55C133.996 602.95 133.686 603.53 133.686 604.29V604.92C133.686 605.68 133.956 606.27 134.496 606.69C135.056 607.11 135.806 607.32 136.746 607.32ZM148.421 609V593.52H150.821V596.37H150.971C151.251 595.63 151.751 594.97 152.471 594.39C153.191 593.81 154.181 593.52 155.441 593.52H156.371V595.92H154.961C153.661 595.92 152.641 596.17 151.901 596.67C151.181 597.15 150.821 597.76 150.821 598.5V609H148.421ZM165.11 609.36C164.05 609.36 163.09 609.17 162.23 608.79C161.39 608.41 160.66 607.87 160.04 607.17C159.44 606.45 158.97 605.6 158.63 604.62C158.31 603.62 158.15 602.5 158.15 601.26C158.15 600.04 158.31 598.93 158.63 597.93C158.97 596.93 159.44 596.08 160.04 595.38C160.66 594.66 161.39 594.11 162.23 593.73C163.09 593.35 164.05 593.16 165.11 593.16C166.15 593.16 167.08 593.35 167.9 593.73C168.72 594.11 169.42 594.64 170 595.32C170.58 595.98 171.02 596.77 171.32 597.69C171.64 598.61 171.8 599.62 171.8 600.72V601.86H160.67V602.58C160.67 603.24 160.77 603.86 160.97 604.44C161.19 605 161.49 605.49 161.87 605.91C162.27 606.33 162.75 606.66 163.31 606.9C163.89 607.14 164.54 607.26 165.26 607.26C166.24 607.26 167.09 607.03 167.81 606.57C168.55 606.11 169.12 605.45 169.52 604.59L171.23 605.82C170.73 606.88 169.95 607.74 168.89 608.4C167.83 609.04 166.57 609.36 165.11 609.36ZM165.11 595.17C164.45 595.17 163.85 595.29 163.31 595.53C162.77 595.75 162.3 596.07 161.9 596.49C161.52 596.91 161.22 597.41 161 597.99C160.78 598.55 160.67 599.17 160.67 599.85V600.06H169.22V599.73C169.22 598.35 168.84 597.25 168.08 596.43C167.34 595.59 166.35 595.17 165.11 595.17ZM175.755 609V593.52H178.155V596.37H178.305C178.585 595.63 179.085 594.97 179.805 594.39C180.525 593.81 181.515 593.52 182.775 593.52H183.705V595.92H182.295C180.995 595.92 179.975 596.17 179.235 596.67C178.515 597.15 178.155 597.76 178.155 598.5V609H175.755Z" fill="white"/>
<path d="M254.84 582.11C258.855 582.11 262.11 578.855 262.11 574.84C262.11 570.825 258.855 567.57 254.84 567.57C250.825 567.57 247.57 570.825 247.57 574.84C247.57 578.855 250.825 582.11 254.84 582.11Z" fill="white"/>
<path d="M228.02 609.55C232.416 609.55 235.98 605.986 235.98 601.59C235.98 597.194 232.416 593.63 228.02 593.63C223.624 593.63 220.06 597.194 220.06 601.59C220.06 605.986 223.624 609.55 228.02 609.55Z" fill="white"/>
<path d="M216.96 582.75C221.356 582.75 224.92 579.186 224.92 574.79C224.92 570.394 221.356 566.83 216.96 566.83C212.564 566.83 209 570.394 209 574.79C209 579.186 212.564 582.75 216.96 582.75Z" fill="white"/>
<path d="M228.1 555.98C232.496 555.98 236.06 552.416 236.06 548.02C236.06 543.624 232.496 540.06 228.1 540.06C223.704 540.06 220.14 543.624 220.14 548.02C220.14 552.416 223.704 555.98 228.1 555.98Z" fill="white"/>
<path d="M254.9 544.92C259.296 544.92 262.86 541.356 262.86 536.96C262.86 532.564 259.296 529 254.9 529C250.504 529 246.94 532.564 246.94 536.96C246.94 541.356 250.504 544.92 254.9 544.92Z" fill="white"/>
<path d="M281.67 556.05C286.066 556.05 289.63 552.486 289.63 548.09C289.63 543.694 286.066 540.13 281.67 540.13C277.274 540.13 273.71 543.694 273.71 548.09C273.71 552.486 277.274 556.05 281.67 556.05Z" fill="white"/>
<path d="M292.73 582.85C297.126 582.85 300.69 579.286 300.69 574.89C300.69 570.494 297.126 566.93 292.73 566.93C288.334 566.93 284.77 570.494 284.77 574.89C284.77 579.286 288.334 582.85 292.73 582.85Z" fill="white"/>
<path d="M281.6 609.62C285.996 609.62 289.56 606.056 289.56 601.66C289.56 597.264 285.996 593.7 281.6 593.7C277.204 593.7 273.64 597.264 273.64 601.66C273.64 606.056 277.204 609.62 281.6 609.62Z" fill="white"/>
<path d="M254.79 620.68C259.186 620.68 262.75 617.116 262.75 612.72C262.75 608.324 259.186 604.76 254.79 604.76C250.394 604.76 246.83 608.324 246.83 612.72C246.83 617.116 250.394 620.68 254.79 620.68Z" fill="white"/>
<rect x="383" width="383" height="383" fill="#004136"/>
<path d="M469.9 187.445H471.23C472.42 187.445 473.412 187.293 474.205 186.99C474.998 186.687 475.64 186.255 476.13 185.695C476.62 185.158 476.97 184.505 477.18 183.735C477.39 182.965 477.495 182.102 477.495 181.145C477.495 180.515 477.46 179.862 477.39 179.185C477.32 178.508 477.227 177.832 477.11 177.155L476.375 172.92L479.385 172.36L479.875 175.3C479.992 175.977 480.085 176.63 480.155 177.26C480.248 177.89 480.318 178.485 480.365 179.045H483.62V182.16L482.78 183H480.365C480.225 184.213 479.945 185.333 479.525 186.36C479.105 187.387 478.522 188.273 477.775 189.02C477.052 189.767 476.153 190.35 475.08 190.77C474.007 191.19 472.735 191.4 471.265 191.4H469.9V187.445ZM482.781 179.885L483.621 179.045H487.366V182.16L486.526 183H482.781V179.885ZM486.541 179.885L487.381 179.045H491.126V182.16L490.286 183H486.541V179.885ZM490.301 179.885L491.141 179.045H494.886V182.16L494.046 183H490.301V179.885ZM494.06 179.885L494.9 179.045H495.635C497.222 179.045 498.342 178.87 498.995 178.52C499.649 178.147 499.975 177.482 499.975 176.525C499.975 176.128 499.94 175.627 499.87 175.02C499.824 174.413 499.719 173.608 499.555 172.605L498.995 169.56L502.04 169.07L502.495 172.115C502.775 173.982 502.915 175.452 502.915 176.525C502.915 178.718 502.32 180.352 501.13 181.425C499.94 182.475 498.109 183 495.635 183H494.06V179.885ZM502.18 190.245C501.644 190.245 501.212 190.082 500.885 189.755C500.582 189.428 500.43 188.927 500.43 188.25C500.43 187.55 500.582 187.037 500.885 186.71C501.212 186.407 501.644 186.255 502.18 186.255H502.705C503.242 186.255 503.674 186.407 504 186.71C504.327 187.037 504.49 187.55 504.49 188.25C504.49 188.927 504.327 189.428 504 189.755C503.674 190.082 503.242 190.245 502.705 190.245H502.18ZM497.245 190.245C496.709 190.245 496.277 190.082 495.95 189.755C495.647 189.428 495.495 188.927 495.495 188.25C495.495 187.55 495.647 187.037 495.95 186.71C496.277 186.407 496.709 186.255 497.245 186.255H497.77C498.307 186.255 498.739 186.407 499.065 186.71C499.392 187.037 499.555 187.55 499.555 188.25C499.555 188.927 499.392 189.428 499.065 189.755C498.739 190.082 498.307 190.245 497.77 190.245H497.245ZM505.754 187.445H507.084C508.274 187.445 509.266 187.293 510.059 186.99C510.853 186.687 511.494 186.255 511.984 185.695C512.474 185.158 512.824 184.505 513.034 183.735C513.244 182.965 513.349 182.102 513.349 181.145C513.349 180.515 513.314 179.862 513.244 179.185C513.174 178.508 513.081 177.832 512.964 177.155L512.229 172.92L515.239 172.36L515.729 175.3C516.126 177.563 516.324 179.5 516.324 181.11C516.324 182.557 516.149 183.898 515.799 185.135C515.473 186.395 514.936 187.492 514.189 188.425C513.443 189.358 512.486 190.082 511.319 190.595C510.153 191.132 508.753 191.4 507.119 191.4H505.754V187.445ZM526.519 183C524.232 183 522.587 182.533 521.584 181.6C520.581 180.643 520.079 179.057 520.079 176.84V157.1H523.334V176.525C523.334 177.505 523.556 178.17 523.999 178.52C524.466 178.87 525.224 179.045 526.274 179.045H527.429V182.16L526.554 183H526.519ZM526.599 179.885L527.439 179.045H531.184V182.16L530.344 183H526.599V179.885ZM530.359 179.885L531.199 179.045H534.944V182.16L534.104 183H530.359V179.885ZM534.119 179.885L534.959 179.045H538.704V182.16L537.864 183H534.119V179.885ZM537.879 179.885L538.719 179.045H543.234L543.304 178.87C541.204 177.073 540.154 174.962 540.154 172.535C540.154 171.555 540.305 170.633 540.609 169.77C540.935 168.907 541.39 168.148 541.974 167.495C542.557 166.842 543.245 166.328 544.039 165.955C544.855 165.582 545.754 165.395 546.734 165.395C547.714 165.395 548.6 165.582 549.394 165.955C550.21 166.328 550.899 166.842 551.459 167.495C552.042 168.125 552.497 168.883 552.824 169.77C553.15 170.633 553.314 171.555 553.314 172.535C553.314 174.938 552.264 177.05 550.164 178.87L550.234 179.045H554.784V182.16L553.944 183H553.524C552.287 183 551.097 182.86 549.954 182.58C548.834 182.277 547.76 181.787 546.734 181.11C545.73 181.787 544.657 182.277 543.514 182.58C542.37 182.86 541.192 183 539.979 183H537.879V179.885ZM546.734 178.24C547.924 177.587 548.845 176.84 549.499 176C550.152 175.16 550.479 174.18 550.479 173.06C550.479 171.94 550.14 171.042 549.464 170.365C548.81 169.688 547.959 169.35 546.909 169.35H546.524C545.474 169.35 544.61 169.688 543.934 170.365C543.28 171.042 542.954 171.94 542.954 173.06C542.954 174.18 543.28 175.16 543.934 176C544.61 176.84 545.544 177.587 546.734 178.24ZM548.869 161.825C548.332 161.825 547.9 161.662 547.574 161.335C547.27 161.008 547.119 160.507 547.119 159.83C547.119 159.13 547.27 158.628 547.574 158.325C547.9 157.998 548.332 157.835 548.869 157.835H549.394C549.93 157.835 550.362 157.998 550.689 158.325C551.015 158.628 551.179 159.13 551.179 159.83C551.179 160.507 551.015 161.008 550.689 161.335C550.362 161.662 549.93 161.825 549.394 161.825H548.869ZM543.934 161.825C543.397 161.825 542.965 161.662 542.639 161.335C542.335 161.008 542.184 160.507 542.184 159.83C542.184 159.13 542.335 158.628 542.639 158.325C542.965 157.998 543.397 157.835 543.934 157.835H544.459C544.995 157.835 545.427 157.998 545.754 158.325C546.08 158.628 546.244 159.13 546.244 159.83C546.244 160.507 546.08 161.008 545.754 161.335C545.427 161.662 544.995 161.825 544.459 161.825H543.934ZM553.943 179.885L554.783 179.045H558.528V182.16L557.688 183H553.943V179.885ZM557.703 179.885L558.543 179.045H559.278C560.865 179.045 561.985 178.87 562.638 178.52C563.291 178.147 563.618 177.482 563.618 176.525C563.618 176.128 563.583 175.627 563.513 175.02C563.466 174.413 563.361 173.608 563.198 172.605L562.638 169.56L565.683 169.07L566.138 172.115C566.418 173.982 566.558 175.452 566.558 176.525C566.558 178.718 565.963 180.352 564.773 181.425C563.583 182.475 561.751 183 559.278 183H557.703V179.885ZM565.858 165.5C565.321 165.5 564.89 165.337 564.563 165.01C564.26 164.683 564.108 164.182 564.108 163.505C564.108 162.805 564.26 162.303 564.563 162C564.89 161.673 565.321 161.51 565.858 161.51H566.383C566.92 161.51 567.351 161.673 567.678 162C568.005 162.303 568.168 162.805 568.168 163.505C568.168 164.182 568.005 164.683 567.678 165.01C567.351 165.337 566.92 165.5 566.383 165.5H565.858ZM560.923 165.5C560.386 165.5 559.955 165.337 559.628 165.01C559.325 164.683 559.173 164.182 559.173 163.505C559.173 162.805 559.325 162.303 559.628 162C559.955 161.673 560.386 161.51 560.923 161.51H561.448C561.985 161.51 562.416 161.673 562.743 162C563.07 162.303 563.233 162.805 563.233 163.505C563.233 164.182 563.07 164.683 562.743 165.01C562.416 165.337 561.985 165.5 561.448 165.5H560.923Z" fill="white"/>
<path d="M475.84 207.28V226H473.32V207.28H466.66V205.06H482.5V207.28H475.84ZM494.859 226C493.959 226 493.309 225.76 492.909 225.28C492.529 224.8 492.289 224.2 492.189 223.48H492.039C491.699 224.44 491.139 225.16 490.359 225.64C489.579 226.12 488.649 226.36 487.569 226.36C485.929 226.36 484.649 225.94 483.729 225.1C482.829 224.26 482.379 223.12 482.379 221.68C482.379 220.22 482.909 219.1 483.969 218.32C485.049 217.54 486.719 217.15 488.979 217.15H492.039V215.62C492.039 214.52 491.739 213.68 491.139 213.1C490.539 212.52 489.619 212.23 488.379 212.23C487.439 212.23 486.649 212.44 486.009 212.86C485.389 213.28 484.869 213.84 484.449 214.54L483.009 213.19C483.429 212.35 484.099 211.64 485.019 211.06C485.939 210.46 487.099 210.16 488.499 210.16C490.379 210.16 491.839 210.62 492.879 211.54C493.919 212.46 494.439 213.74 494.439 215.38V223.9H496.209V226H494.859ZM487.959 224.32C488.559 224.32 489.109 224.25 489.609 224.11C490.109 223.97 490.539 223.77 490.899 223.51C491.259 223.25 491.539 222.95 491.739 222.61C491.939 222.27 492.039 221.9 492.039 221.5V218.95H488.859C487.479 218.95 486.469 219.15 485.829 219.55C485.209 219.95 484.899 220.53 484.899 221.29V221.92C484.899 222.68 485.169 223.27 485.709 223.69C486.269 224.11 487.019 224.32 487.959 224.32ZM512.684 227.71C512.684 229.31 512.054 230.48 510.794 231.22C509.554 231.98 507.684 232.36 505.184 232.36C502.764 232.36 501.024 232.03 499.964 231.37C498.904 230.71 498.374 229.77 498.374 228.55C498.374 227.71 498.594 227.05 499.034 226.57C499.474 226.11 500.074 225.77 500.834 225.55V225.22C499.914 224.78 499.454 224.06 499.454 223.06C499.454 222.28 499.704 221.69 500.204 221.29C500.704 220.87 501.344 220.56 502.124 220.36V220.24C501.204 219.8 500.484 219.17 499.964 218.35C499.464 217.53 499.214 216.58 499.214 215.5C499.214 214.72 499.354 214 499.634 213.34C499.914 212.68 500.304 212.12 500.804 211.66C501.324 211.18 501.934 210.81 502.634 210.55C503.354 210.29 504.154 210.16 505.034 210.16C506.134 210.16 507.114 210.36 507.974 210.76V210.49C507.974 209.89 508.114 209.4 508.394 209.02C508.674 208.62 509.134 208.42 509.774 208.42H512.084V210.52H509.144V211.51C509.704 211.99 510.134 212.57 510.434 213.25C510.754 213.91 510.914 214.66 510.914 215.5C510.914 216.28 510.774 217 510.494 217.66C510.214 218.32 509.814 218.89 509.294 219.37C508.794 219.83 508.184 220.19 507.464 220.45C506.744 220.71 505.944 220.84 505.064 220.84C504.564 220.84 504.064 220.79 503.564 220.69C503.044 220.83 502.574 221.04 502.154 221.32C501.734 221.58 501.524 221.95 501.524 222.43C501.524 222.89 501.744 223.2 502.184 223.36C502.624 223.52 503.194 223.6 503.894 223.6H507.194C509.114 223.6 510.504 223.97 511.364 224.71C512.244 225.43 512.684 226.43 512.684 227.71ZM510.434 227.89C510.434 227.27 510.194 226.77 509.714 226.39C509.254 226.03 508.424 225.85 507.224 225.85H502.064C501.104 226.29 500.624 226.99 500.624 227.95C500.624 228.63 500.874 229.21 501.374 229.69C501.894 230.17 502.764 230.41 503.984 230.41H506.204C507.544 230.41 508.584 230.2 509.324 229.78C510.064 229.36 510.434 228.73 510.434 227.89ZM505.064 218.92C506.084 218.92 506.894 218.68 507.494 218.2C508.094 217.7 508.394 216.94 508.394 215.92V215.08C508.394 214.06 508.094 213.31 507.494 212.83C506.894 212.33 506.084 212.08 505.064 212.08C504.044 212.08 503.234 212.33 502.634 212.83C502.034 213.31 501.734 214.06 501.734 215.08V215.92C501.734 216.94 502.034 217.7 502.634 218.2C503.234 218.68 504.044 218.92 505.064 218.92ZM526.646 226C525.746 226 525.096 225.76 524.696 225.28C524.316 224.8 524.076 224.2 523.976 223.48H523.826C523.486 224.44 522.926 225.16 522.146 225.64C521.366 226.12 520.436 226.36 519.356 226.36C517.716 226.36 516.436 225.94 515.516 225.1C514.616 224.26 514.166 223.12 514.166 221.68C514.166 220.22 514.696 219.1 515.756 218.32C516.836 217.54 518.506 217.15 520.766 217.15H523.826V215.62C523.826 214.52 523.526 213.68 522.926 213.1C522.326 212.52 521.406 212.23 520.166 212.23C519.226 212.23 518.436 212.44 517.796 212.86C517.176 213.28 516.656 213.84 516.236 214.54L514.796 213.19C515.216 212.35 515.886 211.64 516.806 211.06C517.726 210.46 518.886 210.16 520.286 210.16C522.166 210.16 523.626 210.62 524.666 211.54C525.706 212.46 526.226 213.74 526.226 215.38V223.9H527.996V226H526.646ZM519.746 224.32C520.346 224.32 520.896 224.25 521.396 224.11C521.896 223.97 522.326 223.77 522.686 223.51C523.046 223.25 523.326 222.95 523.526 222.61C523.726 222.27 523.826 221.9 523.826 221.5V218.95H520.646C519.266 218.95 518.256 219.15 517.616 219.55C516.996 219.95 516.686 220.53 516.686 221.29V221.92C516.686 222.68 516.956 223.27 517.496 223.69C518.056 224.11 518.806 224.32 519.746 224.32ZM531.421 226V210.52H533.821V213.37H533.971C534.251 212.63 534.751 211.97 535.471 211.39C536.191 210.81 537.181 210.52 538.441 210.52H539.371V212.92H537.961C536.661 212.92 535.641 213.17 534.901 213.67C534.181 214.15 533.821 214.76 533.821 215.5V226H531.421ZM548.11 226.36C547.05 226.36 546.09 226.17 545.23 225.79C544.39 225.41 543.66 224.87 543.04 224.17C542.44 223.45 541.97 222.6 541.63 221.62C541.31 220.62 541.15 219.5 541.15 218.26C541.15 217.04 541.31 215.93 541.63 214.93C541.97 213.93 542.44 213.08 543.04 212.38C543.66 211.66 544.39 211.11 545.23 210.73C546.09 210.35 547.05 210.16 548.11 210.16C549.15 210.16 550.08 210.35 550.9 210.73C551.72 211.11 552.42 211.64 553 212.32C553.58 212.98 554.02 213.77 554.32 214.69C554.64 215.61 554.8 216.62 554.8 217.72V218.86H543.67V219.58C543.67 220.24 543.77 220.86 543.97 221.44C544.19 222 544.49 222.49 544.87 222.91C545.27 223.33 545.75 223.66 546.31 223.9C546.89 224.14 547.54 224.26 548.26 224.26C549.24 224.26 550.09 224.03 550.81 223.57C551.55 223.11 552.12 222.45 552.52 221.59L554.23 222.82C553.73 223.88 552.95 224.74 551.89 225.4C550.83 226.04 549.57 226.36 548.11 226.36ZM548.11 212.17C547.45 212.17 546.85 212.29 546.31 212.53C545.77 212.75 545.3 213.07 544.9 213.49C544.52 213.91 544.22 214.41 544 214.99C543.78 215.55 543.67 216.17 543.67 216.85V217.06H552.22V216.73C552.22 215.35 551.84 214.25 551.08 213.43C550.34 212.59 549.35 212.17 548.11 212.17ZM558.755 226V210.52H561.155V213.37H561.305C561.585 212.63 562.085 211.97 562.805 211.39C563.525 210.81 564.515 210.52 565.775 210.52H566.705V212.92H565.295C563.995 212.92 562.975 213.17 562.235 213.67C561.515 214.15 561.155 214.76 561.155 215.5V226H558.755Z" fill="white"/>
<path d="M637.84 199.11C641.855 199.11 645.11 195.855 645.11 191.84C645.11 187.825 641.855 184.57 637.84 184.57C633.825 184.57 630.57 187.825 630.57 191.84C630.57 195.855 633.825 199.11 637.84 199.11Z" fill="#CFD324"/>
<path d="M611.02 226.55C615.416 226.55 618.98 222.986 618.98 218.59C618.98 214.194 615.416 210.63 611.02 210.63C606.624 210.63 603.06 214.194 603.06 218.59C603.06 222.986 606.624 226.55 611.02 226.55Z" fill="white"/>
<path d="M599.96 199.75C604.356 199.75 607.92 196.186 607.92 191.79C607.92 187.394 604.356 183.83 599.96 183.83C595.564 183.83 592 187.394 592 191.79C592 196.186 595.564 199.75 599.96 199.75Z" fill="white"/>
<path d="M611.1 172.98C615.496 172.98 619.06 169.416 619.06 165.02C619.06 160.624 615.496 157.06 611.1 157.06C606.704 157.06 603.14 160.624 603.14 165.02C603.14 169.416 606.704 172.98 611.1 172.98Z" fill="white"/>
<path d="M637.9 161.92C642.296 161.92 645.86 158.356 645.86 153.96C645.86 149.564 642.296 146 637.9 146C633.504 146 629.94 149.564 629.94 153.96C629.94 158.356 633.504 161.92 637.9 161.92Z" fill="white"/>
<path d="M664.67 173.05C669.066 173.05 672.63 169.486 672.63 165.09C672.63 160.694 669.066 157.13 664.67 157.13C660.274 157.13 656.71 160.694 656.71 165.09C656.71 169.486 660.274 173.05 664.67 173.05Z" fill="white"/>
<path d="M675.73 199.85C680.126 199.85 683.69 196.286 683.69 191.89C683.69 187.494 680.126 183.93 675.73 183.93C671.334 183.93 667.77 187.494 667.77 191.89C667.77 196.286 671.334 199.85 675.73 199.85Z" fill="white"/>
<path d="M664.6 226.62C668.996 226.62 672.56 223.056 672.56 218.66C672.56 214.264 668.996 210.7 664.6 210.7C660.204 210.7 656.64 214.264 656.64 218.66C656.64 223.056 660.204 226.62 664.6 226.62Z" fill="white"/>
<path d="M637.79 237.68C642.186 237.68 645.75 234.116 645.75 229.72C645.75 225.324 642.186 221.76 637.79 221.76C633.394 221.76 629.83 225.324 629.83 229.72C629.83 234.116 633.394 237.68 637.79 237.68Z" fill="white"/>
<rect y="1.90735e-06" width="383" height="383" fill="white"/>
<path d="M86.9 187.445H88.23C89.42 187.445 90.4117 187.293 91.205 186.99C91.9983 186.687 92.64 186.255 93.13 185.695C93.62 185.158 93.97 184.505 94.18 183.735C94.39 182.965 94.495 182.102 94.495 181.145C94.495 180.515 94.46 179.862 94.39 179.185C94.32 178.508 94.2267 177.832 94.11 177.155L93.375 172.92L96.385 172.36L96.875 175.3C96.9917 175.977 97.085 176.63 97.155 177.26C97.2483 177.89 97.3183 178.485 97.365 179.045H100.62V182.16L99.78 183H97.365C97.225 184.213 96.945 185.333 96.525 186.36C96.105 187.387 95.5217 188.273 94.775 189.02C94.0517 189.767 93.1533 190.35 92.08 190.77C91.0067 191.19 89.735 191.4 88.265 191.4H86.9V187.445ZM99.7811 179.885L100.621 179.045H104.366V182.16L103.526 183H99.7811V179.885ZM103.541 179.885L104.381 179.045H108.126V182.16L107.286 183H103.541V179.885ZM107.301 179.885L108.141 179.045H111.886V182.16L111.046 183H107.301V179.885ZM111.06 179.885L111.9 179.045H112.635C114.222 179.045 115.342 178.87 115.995 178.52C116.649 178.147 116.975 177.482 116.975 176.525C116.975 176.128 116.94 175.627 116.87 175.02C116.824 174.413 116.719 173.608 116.555 172.605L115.995 169.56L119.04 169.07L119.495 172.115C119.775 173.982 119.915 175.452 119.915 176.525C119.915 178.718 119.32 180.352 118.13 181.425C116.94 182.475 115.109 183 112.635 183H111.06V179.885ZM119.18 190.245C118.644 190.245 118.212 190.082 117.885 189.755C117.582 189.428 117.43 188.927 117.43 188.25C117.43 187.55 117.582 187.037 117.885 186.71C118.212 186.407 118.644 186.255 119.18 186.255H119.705C120.242 186.255 120.674 186.407 121 186.71C121.327 187.037 121.49 187.55 121.49 188.25C121.49 188.927 121.327 189.428 121 189.755C120.674 190.082 120.242 190.245 119.705 190.245H119.18ZM114.245 190.245C113.709 190.245 113.277 190.082 112.95 189.755C112.647 189.428 112.495 188.927 112.495 188.25C112.495 187.55 112.647 187.037 112.95 186.71C113.277 186.407 113.709 186.255 114.245 186.255H114.77C115.307 186.255 115.739 186.407 116.065 186.71C116.392 187.037 116.555 187.55 116.555 188.25C116.555 188.927 116.392 189.428 116.065 189.755C115.739 190.082 115.307 190.245 114.77 190.245H114.245ZM122.754 187.445H124.084C125.274 187.445 126.266 187.293 127.059 186.99C127.853 186.687 128.494 186.255 128.984 185.695C129.474 185.158 129.824 184.505 130.034 183.735C130.244 182.965 130.349 182.102 130.349 181.145C130.349 180.515 130.314 179.862 130.244 179.185C130.174 178.508 130.081 177.832 129.964 177.155L129.229 172.92L132.239 172.36L132.729 175.3C133.126 177.563 133.324 179.5 133.324 181.11C133.324 182.557 133.149 183.898 132.799 185.135C132.473 186.395 131.936 187.492 131.189 188.425C130.443 189.358 129.486 190.082 128.319 190.595C127.153 191.132 125.753 191.4 124.119 191.4H122.754V187.445ZM143.519 183C141.232 183 139.587 182.533 138.584 181.6C137.581 180.643 137.079 179.057 137.079 176.84V157.1H140.334V176.525C140.334 177.505 140.556 178.17 140.999 178.52C141.466 178.87 142.224 179.045 143.274 179.045H144.429V182.16L143.554 183H143.519ZM143.599 179.885L144.439 179.045H148.184V182.16L147.344 183H143.599V179.885ZM147.359 179.885L148.199 179.045H151.944V182.16L151.104 183H147.359V179.885ZM151.119 179.885L151.959 179.045H155.704V182.16L154.864 183H151.119V179.885ZM154.879 179.885L155.719 179.045H160.234L160.304 178.87C158.204 177.073 157.154 174.962 157.154 172.535C157.154 171.555 157.305 170.633 157.609 169.77C157.935 168.907 158.39 168.148 158.974 167.495C159.557 166.842 160.245 166.328 161.039 165.955C161.855 165.582 162.754 165.395 163.734 165.395C164.714 165.395 165.6 165.582 166.394 165.955C167.21 166.328 167.899 166.842 168.459 167.495C169.042 168.125 169.497 168.883 169.824 169.77C170.15 170.633 170.314 171.555 170.314 172.535C170.314 174.938 169.264 177.05 167.164 178.87L167.234 179.045H171.784V182.16L170.944 183H170.524C169.287 183 168.097 182.86 166.954 182.58C165.834 182.277 164.76 181.787 163.734 181.11C162.73 181.787 161.657 182.277 160.514 182.58C159.37 182.86 158.192 183 156.979 183H154.879V179.885ZM163.734 178.24C164.924 177.587 165.845 176.84 166.499 176C167.152 175.16 167.479 174.18 167.479 173.06C167.479 171.94 167.14 171.042 166.464 170.365C165.81 169.688 164.959 169.35 163.909 169.35H163.524C162.474 169.35 161.61 169.688 160.934 170.365C160.28 171.042 159.954 171.94 159.954 173.06C159.954 174.18 160.28 175.16 160.934 176C161.61 176.84 162.544 177.587 163.734 178.24ZM165.869 161.825C165.332 161.825 164.9 161.662 164.574 161.335C164.27 161.008 164.119 160.507 164.119 159.83C164.119 159.13 164.27 158.628 164.574 158.325C164.9 157.998 165.332 157.835 165.869 157.835H166.394C166.93 157.835 167.362 157.998 167.689 158.325C168.015 158.628 168.179 159.13 168.179 159.83C168.179 160.507 168.015 161.008 167.689 161.335C167.362 161.662 166.93 161.825 166.394 161.825H165.869ZM160.934 161.825C160.397 161.825 159.965 161.662 159.639 161.335C159.335 161.008 159.184 160.507 159.184 159.83C159.184 159.13 159.335 158.628 159.639 158.325C159.965 157.998 160.397 157.835 160.934 157.835H161.459C161.995 157.835 162.427 157.998 162.754 158.325C163.08 158.628 163.244 159.13 163.244 159.83C163.244 160.507 163.08 161.008 162.754 161.335C162.427 161.662 161.995 161.825 161.459 161.825H160.934ZM170.943 179.885L171.783 179.045H175.528V182.16L174.688 183H170.943V179.885ZM174.703 179.885L175.543 179.045H176.278C177.865 179.045 178.985 178.87 179.638 178.52C180.291 178.147 180.618 177.482 180.618 176.525C180.618 176.128 180.583 175.627 180.513 175.02C180.466 174.413 180.361 173.608 180.198 172.605L179.638 169.56L182.683 169.07L183.138 172.115C183.418 173.982 183.558 175.452 183.558 176.525C183.558 178.718 182.963 180.352 181.773 181.425C180.583 182.475 178.751 183 176.278 183H174.703V179.885ZM182.858 165.5C182.321 165.5 181.89 165.337 181.563 165.01C181.26 164.683 181.108 164.182 181.108 163.505C181.108 162.805 181.26 162.303 181.563 162C181.89 161.673 182.321 161.51 182.858 161.51H183.383C183.92 161.51 184.351 161.673 184.678 162C185.005 162.303 185.168 162.805 185.168 163.505C185.168 164.182 185.005 164.683 184.678 165.01C184.351 165.337 183.92 165.5 183.383 165.5H182.858ZM177.923 165.5C177.386 165.5 176.955 165.337 176.628 165.01C176.325 164.683 176.173 164.182 176.173 163.505C176.173 162.805 176.325 162.303 176.628 162C176.955 161.673 177.386 161.51 177.923 161.51H178.448C178.985 161.51 179.416 161.673 179.743 162C180.07 162.303 180.233 162.805 180.233 163.505C180.233 164.182 180.07 164.683 179.743 165.01C179.416 165.337 178.985 165.5 178.448 165.5H177.923Z" fill="black"/>
<path d="M92.84 207.28V226H90.32V207.28H83.66V205.06H99.5V207.28H92.84ZM111.859 226C110.959 226 110.309 225.76 109.909 225.28C109.529 224.8 109.289 224.2 109.189 223.48H109.039C108.699 224.44 108.139 225.16 107.359 225.64C106.579 226.12 105.649 226.36 104.569 226.36C102.929 226.36 101.649 225.94 100.729 225.1C99.8286 224.26 99.3786 223.12 99.3786 221.68C99.3786 220.22 99.9086 219.1 100.969 218.32C102.049 217.54 103.719 217.15 105.979 217.15H109.039V215.62C109.039 214.52 108.739 213.68 108.139 213.1C107.539 212.52 106.619 212.23 105.379 212.23C104.439 212.23 103.649 212.44 103.009 212.86C102.389 213.28 101.869 213.84 101.449 214.54L100.009 213.19C100.429 212.35 101.099 211.64 102.019 211.06C102.939 210.46 104.099 210.16 105.499 210.16C107.379 210.16 108.839 210.62 109.879 211.54C110.919 212.46 111.439 213.74 111.439 215.38V223.9H113.209V226H111.859ZM104.959 224.32C105.559 224.32 106.109 224.25 106.609 224.11C107.109 223.97 107.539 223.77 107.899 223.51C108.259 223.25 108.539 222.95 108.739 222.61C108.939 222.27 109.039 221.9 109.039 221.5V218.95H105.859C104.479 218.95 103.469 219.15 102.829 219.55C102.209 219.95 101.899 220.53 101.899 221.29V221.92C101.899 222.68 102.169 223.27 102.709 223.69C103.269 224.11 104.019 224.32 104.959 224.32ZM129.684 227.71C129.684 229.31 129.054 230.48 127.794 231.22C126.554 231.98 124.684 232.36 122.184 232.36C119.764 232.36 118.024 232.03 116.964 231.37C115.904 230.71 115.374 229.77 115.374 228.55C115.374 227.71 115.594 227.05 116.034 226.57C116.474 226.11 117.074 225.77 117.834 225.55V225.22C116.914 224.78 116.454 224.06 116.454 223.06C116.454 222.28 116.704 221.69 117.204 221.29C117.704 220.87 118.344 220.56 119.124 220.36V220.24C118.204 219.8 117.484 219.17 116.964 218.35C116.464 217.53 116.214 216.58 116.214 215.5C116.214 214.72 116.354 214 116.634 213.34C116.914 212.68 117.304 212.12 117.804 211.66C118.324 211.18 118.934 210.81 119.634 210.55C120.354 210.29 121.154 210.16 122.034 210.16C123.134 210.16 124.114 210.36 124.974 210.76V210.49C124.974 209.89 125.114 209.4 125.394 209.02C125.674 208.62 126.134 208.42 126.774 208.42H129.084V210.52H126.144V211.51C126.704 211.99 127.134 212.57 127.434 213.25C127.754 213.91 127.914 214.66 127.914 215.5C127.914 216.28 127.774 217 127.494 217.66C127.214 218.32 126.814 218.89 126.294 219.37C125.794 219.83 125.184 220.19 124.464 220.45C123.744 220.71 122.944 220.84 122.064 220.84C121.564 220.84 121.064 220.79 120.564 220.69C120.044 220.83 119.574 221.04 119.154 221.32C118.734 221.58 118.524 221.95 118.524 222.43C118.524 222.89 118.744 223.2 119.184 223.36C119.624 223.52 120.194 223.6 120.894 223.6H124.194C126.114 223.6 127.504 223.97 128.364 224.71C129.244 225.43 129.684 226.43 129.684 227.71ZM127.434 227.89C127.434 227.27 127.194 226.77 126.714 226.39C126.254 226.03 125.424 225.85 124.224 225.85H119.064C118.104 226.29 117.624 226.99 117.624 227.95C117.624 228.63 117.874 229.21 118.374 229.69C118.894 230.17 119.764 230.41 120.984 230.41H123.204C124.544 230.41 125.584 230.2 126.324 229.78C127.064 229.36 127.434 228.73 127.434 227.89ZM122.064 218.92C123.084 218.92 123.894 218.68 124.494 218.2C125.094 217.7 125.394 216.94 125.394 215.92V215.08C125.394 214.06 125.094 213.31 124.494 212.83C123.894 212.33 123.084 212.08 122.064 212.08C121.044 212.08 120.234 212.33 119.634 212.83C119.034 213.31 118.734 214.06 118.734 215.08V215.92C118.734 216.94 119.034 217.7 119.634 218.2C120.234 218.68 121.044 218.92 122.064 218.92ZM143.646 226C142.746 226 142.096 225.76 141.696 225.28C141.316 224.8 141.076 224.2 140.976 223.48H140.826C140.486 224.44 139.926 225.16 139.146 225.64C138.366 226.12 137.436 226.36 136.356 226.36C134.716 226.36 133.436 225.94 132.516 225.1C131.616 224.26 131.166 223.12 131.166 221.68C131.166 220.22 131.696 219.1 132.756 218.32C133.836 217.54 135.506 217.15 137.766 217.15H140.826V215.62C140.826 214.52 140.526 213.68 139.926 213.1C139.326 212.52 138.406 212.23 137.166 212.23C136.226 212.23 135.436 212.44 134.796 212.86C134.176 213.28 133.656 213.84 133.236 214.54L131.796 213.19C132.216 212.35 132.886 211.64 133.806 211.06C134.726 210.46 135.886 210.16 137.286 210.16C139.166 210.16 140.626 210.62 141.666 211.54C142.706 212.46 143.226 213.74 143.226 215.38V223.9H144.996V226H143.646ZM136.746 224.32C137.346 224.32 137.896 224.25 138.396 224.11C138.896 223.97 139.326 223.77 139.686 223.51C140.046 223.25 140.326 222.95 140.526 222.61C140.726 222.27 140.826 221.9 140.826 221.5V218.95H137.646C136.266 218.95 135.256 219.15 134.616 219.55C133.996 219.95 133.686 220.53 133.686 221.29V221.92C133.686 222.68 133.956 223.27 134.496 223.69C135.056 224.11 135.806 224.32 136.746 224.32ZM148.421 226V210.52H150.821V213.37H150.971C151.251 212.63 151.751 211.97 152.471 211.39C153.191 210.81 154.181 210.52 155.441 210.52H156.371V212.92H154.961C153.661 212.92 152.641 213.17 151.901 213.67C151.181 214.15 150.821 214.76 150.821 215.5V226H148.421ZM165.11 226.36C164.05 226.36 163.09 226.17 162.23 225.79C161.39 225.41 160.66 224.87 160.04 224.17C159.44 223.45 158.97 222.6 158.63 221.62C158.31 220.62 158.15 219.5 158.15 218.26C158.15 217.04 158.31 215.93 158.63 214.93C158.97 213.93 159.44 213.08 160.04 212.38C160.66 211.66 161.39 211.11 162.23 210.73C163.09 210.35 164.05 210.16 165.11 210.16C166.15 210.16 167.08 210.35 167.9 210.73C168.72 211.11 169.42 211.64 170 212.32C170.58 212.98 171.02 213.77 171.32 214.69C171.64 215.61 171.8 216.62 171.8 217.72V218.86H160.67V219.58C160.67 220.24 160.77 220.86 160.97 221.44C161.19 222 161.49 222.49 161.87 222.91C162.27 223.33 162.75 223.66 163.31 223.9C163.89 224.14 164.54 224.26 165.26 224.26C166.24 224.26 167.09 224.03 167.81 223.57C168.55 223.11 169.12 222.45 169.52 221.59L171.23 222.82C170.73 223.88 169.95 224.74 168.89 225.4C167.83 226.04 166.57 226.36 165.11 226.36ZM165.11 212.17C164.45 212.17 163.85 212.29 163.31 212.53C162.77 212.75 162.3 213.07 161.9 213.49C161.52 213.91 161.22 214.41 161 214.99C160.78 215.55 160.67 216.17 160.67 216.85V217.06H169.22V216.73C169.22 215.35 168.84 214.25 168.08 213.43C167.34 212.59 166.35 212.17 165.11 212.17ZM175.755 226V210.52H178.155V213.37H178.305C178.585 212.63 179.085 211.97 179.805 211.39C180.525 210.81 181.515 210.52 182.775 210.52H183.705V212.92H182.295C180.995 212.92 179.975 213.17 179.235 213.67C178.515 214.15 178.155 214.76 178.155 215.5V226H175.755Z" fill="black" fill-opacity="0.6"/>
<path d="M254.84 199.11C258.855 199.11 262.11 195.855 262.11 191.84C262.11 187.825 258.855 184.57 254.84 184.57C250.825 184.57 247.57 187.825 247.57 191.84C247.57 195.855 250.825 199.11 254.84 199.11Z" fill="#CFD324"/>
<path d="M228.02 226.55C232.416 226.55 235.98 222.986 235.98 218.59C235.98 214.194 232.416 210.63 228.02 210.63C223.624 210.63 220.06 214.194 220.06 218.59C220.06 222.986 223.624 226.55 228.02 226.55Z" fill="#004136"/>
<path d="M216.96 199.75C221.356 199.75 224.92 196.186 224.92 191.79C224.92 187.394 221.356 183.83 216.96 183.83C212.564 183.83 209 187.394 209 191.79C209 196.186 212.564 199.75 216.96 199.75Z" fill="#004136"/>
<path d="M228.1 172.98C232.496 172.98 236.06 169.416 236.06 165.02C236.06 160.624 232.496 157.06 228.1 157.06C223.704 157.06 220.14 160.624 220.14 165.02C220.14 169.416 223.704 172.98 228.1 172.98Z" fill="#004136"/>
<path d="M254.9 161.92C259.296 161.92 262.86 158.356 262.86 153.96C262.86 149.564 259.296 146 254.9 146C250.504 146 246.94 149.564 246.94 153.96C246.94 158.356 250.504 161.92 254.9 161.92Z" fill="#004136"/>
<path d="M281.67 173.05C286.066 173.05 289.63 169.486 289.63 165.09C289.63 160.694 286.066 157.13 281.67 157.13C277.274 157.13 273.71 160.694 273.71 165.09C273.71 169.486 277.274 173.05 281.67 173.05Z" fill="#004136"/>
<path d="M292.73 199.85C297.126 199.85 300.69 196.286 300.69 191.89C300.69 187.494 297.126 183.93 292.73 183.93C288.334 183.93 284.77 187.494 284.77 191.89C284.77 196.286 288.334 199.85 292.73 199.85Z" fill="#004136"/>
<path d="M281.6 226.62C285.996 226.62 289.56 223.056 289.56 218.66C289.56 214.264 285.996 210.7 281.6 210.7C277.204 210.7 273.64 214.264 273.64 218.66C273.64 223.056 277.204 226.62 281.6 226.62Z" fill="#004136"/>
<path d="M254.79 237.68C259.186 237.68 262.75 234.116 262.75 229.72C262.75 225.324 259.186 221.76 254.79 221.76C250.394 221.76 246.83 225.324 246.83 229.72C246.83 234.116 250.394 237.68 254.79 237.68Z" fill="#004136"/>
</svg>
