<svg width="40" height="38" viewBox="0 0 40 38" fill="none" xmlns="http://www.w3.org/2000/svg">
<path d="M18.5245 9.97346V2.28951C18.5245 1.47248 19.1762 0.791626 20.0004 0.791626C20.7383 0.791626 21.3635 1.36373 21.4625 2.0884L21.4762 2.28951V9.97346L30.6377 9.97404C35.1993 9.97404 38.9471 13.7095 39.1575 18.3682L39.1668 18.7816V28.4403C39.1668 33.1316 35.5494 36.9825 31.0556 37.1987L30.6568 37.2083H9.3435C4.78183 37.2083 1.05217 33.4915 0.842769 28.8157L0.833496 28.4007L0.833496 18.7618C0.833496 14.0705 4.43282 10.201 8.92565 9.98366L9.32433 9.97404H18.5243V22.2453L15.4577 19.0785C14.8827 18.4847 13.9435 18.4847 13.3685 19.0785C13.081 19.3754 12.9468 19.7712 12.9468 20.1671C12.9468 20.4679 13.0327 20.7814 13.2142 21.0468L13.3685 21.2359L18.946 27.0152C19.2143 27.3121 19.5977 27.4705 20.0002 27.4705C20.3196 27.4705 20.6391 27.3605 20.8919 27.152L21.0352 27.0152L26.6127 21.2359C27.1877 20.6421 27.1877 19.6723 26.6127 19.0785C26.0899 18.5387 25.2662 18.4897 24.6888 18.9313L24.5235 19.0785L21.476 22.2453V9.97404L18.5245 9.97346Z" fill="#004136"/>
</svg>
